<?xml version="1.0" encoding="UTF-8" standalone="no"?>
<!DOCTYPE svg PUBLIC "-//W3C//DTD SVG 1.1//EN"
 "http://www.w3.org/Graphics/SVG/1.1/DTD/svg11.dtd">
<!-- Generated by graphviz version 2.47.0 (20210316.0004)
 -->
<!-- Title: dependencies Pages: 1 -->
<svg width="504pt" height="211pt"
 viewBox="0.00 0.00 504.00 211.00" xmlns="http://www.w3.org/2000/svg" xmlns:xlink="http://www.w3.org/1999/xlink">
<g id="graph0" class="graph" transform="scale(1 1) rotate(0) translate(4 207)">
<title>dependencies</title>
<polygon fill="white" stroke="transparent" points="-4,4 -4,-207 500,-207 500,4 -4,4"/>
<text text-anchor="start" x="227.01" y="-42.4" font-family="Times-12" font-weight="bold" font-size="14.00">Legend</text>
<polygon fill="#ffffb3" stroke="transparent" points="14,-10 14,-30 34,-30 34,-10 14,-10"/>
<text text-anchor="start" x="37.63" y="-15.4" font-family="Times-12" font-size="14.00"> &#160;Declarations</text>
<polygon fill="#8dd3c7" stroke="transparent" points="127,-10 127,-30 147,-30 147,-10 127,-10"/>
<text text-anchor="start" x="150.73" y="-15.4" font-family="Times-12" font-size="14.00"> &#160;Module</text>
<polygon fill="#80b1d3" stroke="transparent" points="213,-10 213,-30 233,-30 233,-10 213,-10"/>
<text text-anchor="start" x="236.78" y="-15.4" font-family="Times-12" font-size="14.00"> &#160;Bootstrap</text>
<polygon fill="#fdb462" stroke="transparent" points="310,-10 310,-30 330,-30 330,-10 310,-10"/>
<text text-anchor="start" x="333.67" y="-15.4" font-family="Times-12" font-size="14.00"> &#160;Providers</text>
<polygon fill="#fb8072" stroke="transparent" points="406,-10 406,-30 426,-30 426,-10 406,-10"/>
<text text-anchor="start" x="429.73" y="-15.4" font-family="Times-12" font-size="14.00"> &#160;Exports</text>
<g id="clust1" class="cluster">
<title>cluster_LandingHomeModule</title>
<polygon fill="none" stroke="black" stroke-dasharray="1,5" points="90,-70 90,-195 406,-195 406,-70 90,-70"/>
</g>
<g id="clust4" class="cluster">
<title>cluster_LandingHomeModule_imports</title>
<polygon fill="none" stroke="black" points="284,-78 284,-130 398,-130 398,-78 284,-78"/>
</g>
<g id="clust2" class="cluster">
<title>cluster_LandingHomeModule_declarations</title>
<polygon fill="none" stroke="black" points="98,-78 98,-130 276,-130 276,-78 98,-78"/>
</g>
<!-- LandingHomeComponent -->
<g id="node1" class="node">
<title>LandingHomeComponent</title>
<polygon fill="#ffffb3" stroke="black" points="268.2,-122 105.8,-122 105.8,-86 268.2,-86 268.2,-122"/>
<text text-anchor="middle" x="187" y="-99.8" font-family="Times,serif" font-size="14.00">LandingHomeComponent</text>
</g>
<!-- LandingHomeModule -->
<g id="node2" class="node">
<title>LandingHomeModule</title>
<polygon fill="#8dd3c7" stroke="black" points="327.42,-187 324.42,-191 303.42,-191 300.42,-187 186.58,-187 186.58,-151 327.42,-151 327.42,-187"/>
<text text-anchor="middle" x="257" y="-164.8" font-family="Times,serif" font-size="14.00">LandingHomeModule</text>
</g>
<!-- LandingHomeComponent&#45;&gt;LandingHomeModule -->
<g id="edge1" class="edge">
<title>LandingHomeComponent&#45;&gt;LandingHomeModule</title>
<path fill="none" stroke="black" d="M227.45,-122.11C227.45,-122.11 227.45,-140.99 227.45,-140.99"/>
<polygon fill="black" stroke="black" points="223.95,-140.99 227.45,-150.99 230.95,-140.99 223.95,-140.99"/>
</g>
<!-- SharedModule -->
<g id="node3" class="node">
<title>SharedModule</title>
<polygon fill="#8dd3c7" stroke="black" points="390.42,-122 387.42,-126 366.42,-126 363.42,-122 291.58,-122 291.58,-86 390.42,-86 390.42,-122"/>
<text text-anchor="middle" x="341" y="-99.8" font-family="Times,serif" font-size="14.00">SharedModule</text>
</g>
<!-- SharedModule&#45;&gt;LandingHomeModule -->
<g id="edge2" class="edge">
<title>SharedModule&#45;&gt;LandingHomeModule</title>
<path fill="none" stroke="black" d="M309.5,-122.11C309.5,-122.11 309.5,-140.99 309.5,-140.99"/>
<polygon fill="black" stroke="black" points="306,-140.99 309.5,-150.99 313,-140.99 306,-140.99"/>
</g>
</g>
</svg>
