<?xml version="1.0" encoding="UTF-8" standalone="no"?>
<!DOCTYPE svg PUBLIC "-//W3C//DTD SVG 1.1//EN"
 "http://www.w3.org/Graphics/SVG/1.1/DTD/svg11.dtd">
<!-- Generated by graphviz version 2.47.0 (20210316.0004)
 -->
<!-- Title: dependencies Pages: 1 -->
<svg width="806pt" height="276pt"
 viewBox="0.00 0.00 806.00 276.00" xmlns="http://www.w3.org/2000/svg" xmlns:xlink="http://www.w3.org/1999/xlink">
<g id="graph0" class="graph" transform="scale(1 1) rotate(0) translate(4 272)">
<title>dependencies</title>
<polygon fill="white" stroke="transparent" points="-4,4 -4,-272 802,-272 802,4 -4,4"/>
<text text-anchor="start" x="378.01" y="-42.4" font-family="Times-12" font-weight="bold" font-size="14.00">Legend</text>
<polygon fill="#ffffb3" stroke="transparent" points="165,-10 165,-30 185,-30 185,-10 165,-10"/>
<text text-anchor="start" x="188.63" y="-15.4" font-family="Times-12" font-size="14.00"> &#160;Declarations</text>
<polygon fill="#8dd3c7" stroke="transparent" points="278,-10 278,-30 298,-30 298,-10 278,-10"/>
<text text-anchor="start" x="301.73" y="-15.4" font-family="Times-12" font-size="14.00"> &#160;Module</text>
<polygon fill="#80b1d3" stroke="transparent" points="364,-10 364,-30 384,-30 384,-10 364,-10"/>
<text text-anchor="start" x="387.78" y="-15.4" font-family="Times-12" font-size="14.00"> &#160;Bootstrap</text>
<polygon fill="#fdb462" stroke="transparent" points="461,-10 461,-30 481,-30 481,-10 461,-10"/>
<text text-anchor="start" x="484.67" y="-15.4" font-family="Times-12" font-size="14.00"> &#160;Providers</text>
<polygon fill="#fb8072" stroke="transparent" points="557,-10 557,-30 577,-30 577,-10 557,-10"/>
<text text-anchor="start" x="580.73" y="-15.4" font-family="Times-12" font-size="14.00"> &#160;Exports</text>
<g id="clust1" class="cluster">
<title>cluster_TabCustomCalenderModule</title>
<polygon fill="none" stroke="black" stroke-dasharray="1,5" points="8,-70 8,-260 790,-260 790,-70 8,-70"/>
</g>
<g id="clust4" class="cluster">
<title>cluster_TabCustomCalenderModule_imports</title>
<polygon fill="none" stroke="black" points="531,-143 531,-195 723,-195 723,-143 531,-143"/>
</g>
<g id="clust2" class="cluster">
<title>cluster_TabCustomCalenderModule_declarations</title>
<polygon fill="none" stroke="black" points="309,-143 309,-195 523,-195 523,-143 309,-143"/>
</g>
<g id="clust3" class="cluster">
<title>cluster_TabCustomCalenderModule_TabCustomCalenderComponent_providers</title>
<polygon fill="none" stroke="black" points="16,-78 16,-130 782,-130 782,-78 16,-78"/>
</g>
<!-- TabCustomCalenderComponent -->
<g id="node1" class="node">
<title>TabCustomCalenderComponent</title>
<polygon fill="#ffffb3" stroke="black" points="514.69,-187 317.31,-187 317.31,-151 514.69,-151 514.69,-187"/>
<text text-anchor="middle" x="416" y="-164.8" font-family="Times,serif" font-size="14.00">TabCustomCalenderComponent</text>
</g>
<!-- TabCustomCalenderModule -->
<g id="node2" class="node">
<title>TabCustomCalenderModule</title>
<polygon fill="#8dd3c7" stroke="black" points="608.91,-252 605.91,-256 584.91,-256 581.91,-252 433.09,-252 433.09,-216 608.91,-216 608.91,-252"/>
<text text-anchor="middle" x="521" y="-229.8" font-family="Times,serif" font-size="14.00">TabCustomCalenderModule</text>
</g>
<!-- TabCustomCalenderComponent&#45;&gt;TabCustomCalenderModule -->
<g id="edge1" class="edge">
<title>TabCustomCalenderComponent&#45;&gt;TabCustomCalenderModule</title>
<path fill="none" stroke="black" d="M473.95,-187.11C473.95,-187.11 473.95,-205.99 473.95,-205.99"/>
<polygon fill="black" stroke="black" points="470.45,-205.99 473.95,-215.99 477.45,-205.99 470.45,-205.99"/>
</g>
<!-- DayService -->
<g id="node3" class="node">
<title>DayService</title>
<ellipse fill="#fdb462" stroke="black" cx="718" cy="-104" rx="56.16" ry="18"/>
<text text-anchor="middle" x="718" y="-99.8" font-family="Times,serif" font-size="14.00">DayService</text>
</g>
<!-- DayService&#45;&gt;TabCustomCalenderComponent -->
<g id="edge2" class="edge">
<title>DayService&#45;&gt;TabCustomCalenderComponent</title>
<path fill="none" stroke="black" d="M688.7,-119.73C688.7,-128.23 688.7,-137 688.7,-137 688.7,-137 509.9,-137 509.9,-137 509.9,-137 509.9,-140.76 509.9,-140.76"/>
<polygon fill="black" stroke="black" points="506.4,-140.76 509.9,-150.76 513.4,-140.76 506.4,-140.76"/>
</g>
<!-- WeekService -->
<g id="node4" class="node">
<title>WeekService</title>
<ellipse fill="#fdb462" stroke="black" cx="581" cy="-104" rx="62.52" ry="18"/>
<text text-anchor="middle" x="581" y="-99.8" font-family="Times,serif" font-size="14.00">WeekService</text>
</g>
<!-- WeekService&#45;&gt;TabCustomCalenderComponent -->
<g id="edge3" class="edge">
<title>WeekService&#45;&gt;TabCustomCalenderComponent</title>
<path fill="none" stroke="black" d="M518.4,-104C510.54,-104 505.2,-104 505.2,-104 505.2,-104 505.2,-140.89 505.2,-140.89"/>
<polygon fill="black" stroke="black" points="501.7,-140.89 505.2,-150.89 508.7,-140.89 501.7,-140.89"/>
</g>
<!-- WorkWeekService -->
<g id="node5" class="node">
<title>WorkWeekService</title>
<ellipse fill="#fdb462" stroke="black" cx="416" cy="-104" rx="84.49" ry="18"/>
<text text-anchor="middle" x="416" y="-99.8" font-family="Times,serif" font-size="14.00">WorkWeekService</text>
</g>
<!-- WorkWeekService&#45;&gt;TabCustomCalenderComponent -->
<g id="edge4" class="edge">
<title>WorkWeekService&#45;&gt;TabCustomCalenderComponent</title>
<path fill="none" stroke="black" d="M416,-122.11C416,-122.11 416,-140.99 416,-140.99"/>
<polygon fill="black" stroke="black" points="412.5,-140.99 416,-150.99 419.5,-140.99 412.5,-140.99"/>
</g>
<!-- MonthService -->
<g id="node6" class="node">
<title>MonthService</title>
<ellipse fill="#fdb462" stroke="black" cx="248" cy="-104" rx="65.99" ry="18"/>
<text text-anchor="middle" x="248" y="-99.8" font-family="Times,serif" font-size="14.00">MonthService</text>
</g>
<!-- MonthService&#45;&gt;TabCustomCalenderComponent -->
<g id="edge5" class="edge">
<title>MonthService&#45;&gt;TabCustomCalenderComponent</title>
<path fill="none" stroke="black" d="M313.82,-104C320.25,-104 324.45,-104 324.45,-104 324.45,-104 324.45,-140.89 324.45,-140.89"/>
<polygon fill="black" stroke="black" points="320.95,-140.89 324.45,-150.89 327.95,-140.89 320.95,-140.89"/>
</g>
<!-- AgendaService -->
<g id="node7" class="node">
<title>AgendaService</title>
<ellipse fill="#fdb462" stroke="black" cx="94" cy="-104" rx="70.04" ry="18"/>
<text text-anchor="middle" x="94" y="-99.8" font-family="Times,serif" font-size="14.00">AgendaService</text>
</g>
<!-- AgendaService&#45;&gt;TabCustomCalenderComponent -->
<g id="edge6" class="edge">
<title>AgendaService&#45;&gt;TabCustomCalenderComponent</title>
<path fill="none" stroke="black" d="M94,-122.11C94,-141.34 94,-169 94,-169 94,-169 307.2,-169 307.2,-169"/>
<polygon fill="black" stroke="black" points="307.2,-172.5 317.2,-169 307.2,-165.5 307.2,-172.5"/>
</g>
<!-- UiTabFormRendererModule -->
<g id="node8" class="node">
<title>UiTabFormRendererModule</title>
<polygon fill="#8dd3c7" stroke="black" points="715.45,-187 712.45,-191 691.45,-191 688.45,-187 538.55,-187 538.55,-151 715.45,-151 715.45,-187"/>
<text text-anchor="middle" x="627" y="-164.8" font-family="Times,serif" font-size="14.00">UiTabFormRendererModule</text>
</g>
<!-- UiTabFormRendererModule&#45;&gt;TabCustomCalenderModule -->
<g id="edge7" class="edge">
<title>UiTabFormRendererModule&#45;&gt;TabCustomCalenderModule</title>
<path fill="none" stroke="black" d="M573.62,-187.11C573.62,-187.11 573.62,-205.99 573.62,-205.99"/>
<polygon fill="black" stroke="black" points="570.12,-205.99 573.62,-215.99 577.12,-205.99 570.12,-205.99"/>
</g>
</g>
</svg>
