<?xml version="1.0" encoding="UTF-8" standalone="no"?>
<!DOCTYPE svg PUBLIC "-//W3C//DTD SVG 1.1//EN"
 "http://www.w3.org/Graphics/SVG/1.1/DTD/svg11.dtd">
<!-- Generated by graphviz version 2.47.0 (20210316.0004)
 -->
<!-- Title: dependencies Pages: 1 -->
<svg width="504pt" height="284pt"
 viewBox="0.00 0.00 504.00 284.00" xmlns="http://www.w3.org/2000/svg" xmlns:xlink="http://www.w3.org/1999/xlink">
<g id="graph0" class="graph" transform="scale(1 1) rotate(0) translate(4 280)">
<title>dependencies</title>
<polygon fill="white" stroke="transparent" points="-4,4 -4,-280 500,-280 500,4 -4,4"/>
<text text-anchor="start" x="227.01" y="-42.4" font-family="Times-12" font-weight="bold" font-size="14.00">Legend</text>
<polygon fill="#ffffb3" stroke="transparent" points="14,-10 14,-30 34,-30 34,-10 14,-10"/>
<text text-anchor="start" x="37.63" y="-15.4" font-family="Times-12" font-size="14.00"> &#160;Declarations</text>
<polygon fill="#8dd3c7" stroke="transparent" points="127,-10 127,-30 147,-30 147,-10 127,-10"/>
<text text-anchor="start" x="150.73" y="-15.4" font-family="Times-12" font-size="14.00"> &#160;Module</text>
<polygon fill="#80b1d3" stroke="transparent" points="213,-10 213,-30 233,-30 233,-10 213,-10"/>
<text text-anchor="start" x="236.78" y="-15.4" font-family="Times-12" font-size="14.00"> &#160;Bootstrap</text>
<polygon fill="#fdb462" stroke="transparent" points="310,-10 310,-30 330,-30 330,-10 310,-10"/>
<text text-anchor="start" x="333.67" y="-15.4" font-family="Times-12" font-size="14.00"> &#160;Providers</text>
<polygon fill="#fb8072" stroke="transparent" points="406,-10 406,-30 426,-30 426,-10 406,-10"/>
<text text-anchor="start" x="429.73" y="-15.4" font-family="Times-12" font-size="14.00"> &#160;Exports</text>
<g id="clust1" class="cluster">
<title>cluster_UiTabWidgetModule</title>
<polygon fill="none" stroke="black" stroke-dasharray="1,5" points="35,-70 35,-268 461,-268 461,-70 35,-70"/>
</g>
<g id="clust6" class="cluster">
<title>cluster_UiTabWidgetModule_exports</title>
<polygon fill="none" stroke="black" points="186,-208 186,-260 350,-260 350,-208 186,-208"/>
</g>
<g id="clust5" class="cluster">
<title>cluster_UiTabWidgetModule_imports</title>
<polygon fill="none" stroke="black" points="339,-78 339,-130 453,-130 453,-78 339,-78"/>
</g>
<g id="clust2" class="cluster">
<title>cluster_UiTabWidgetModule_declarations</title>
<polygon fill="none" stroke="black" points="43,-78 43,-130 331,-130 331,-78 43,-78"/>
</g>
<!-- EscapeHtmlPipe -->
<g id="node1" class="node">
<title>EscapeHtmlPipe</title>
<polygon fill="#ffffb3" stroke="black" points="322.81,-122 213.19,-122 213.19,-86 322.81,-86 322.81,-122"/>
<text text-anchor="middle" x="268" y="-99.8" font-family="Times,serif" font-size="14.00">EscapeHtmlPipe</text>
</g>
<!-- UiTabWidgetModule -->
<g id="node3" class="node">
<title>UiTabWidgetModule</title>
<polygon fill="#8dd3c7" stroke="black" points="336.03,-187 333.03,-191 312.03,-191 309.03,-187 199.97,-187 199.97,-151 336.03,-151 336.03,-187"/>
<text text-anchor="middle" x="268" y="-164.8" font-family="Times,serif" font-size="14.00">UiTabWidgetModule</text>
</g>
<!-- EscapeHtmlPipe&#45;&gt;UiTabWidgetModule -->
<g id="edge1" class="edge">
<title>EscapeHtmlPipe&#45;&gt;UiTabWidgetModule</title>
<path fill="none" stroke="black" d="M268,-122.11C268,-122.11 268,-140.99 268,-140.99"/>
<polygon fill="black" stroke="black" points="264.5,-140.99 268,-150.99 271.5,-140.99 264.5,-140.99"/>
</g>
<!-- TabWidgetComponent -->
<g id="node2" class="node">
<title>TabWidgetComponent</title>
<polygon fill="#ffffb3" stroke="black" points="195.31,-122 50.69,-122 50.69,-86 195.31,-86 195.31,-122"/>
<text text-anchor="middle" x="123" y="-99.8" font-family="Times,serif" font-size="14.00">TabWidgetComponent</text>
</g>
<!-- TabWidgetComponent&#45;&gt;UiTabWidgetModule -->
<g id="edge2" class="edge">
<title>TabWidgetComponent&#45;&gt;UiTabWidgetModule</title>
<path fill="none" stroke="black" d="M195.28,-104C202.1,-104 206.54,-104 206.54,-104 206.54,-104 206.54,-140.89 206.54,-140.89"/>
<polygon fill="black" stroke="black" points="203.04,-140.89 206.54,-150.89 210.04,-140.89 203.04,-140.89"/>
</g>
<!-- TabWidgetComponent  -->
<g id="node5" class="node">
<title>TabWidgetComponent </title>
<polygon fill="#fb8072" stroke="black" points="341.81,-252 194.19,-252 194.19,-216 341.81,-216 341.81,-252"/>
<text text-anchor="middle" x="268" y="-229.8" font-family="Times,serif" font-size="14.00">TabWidgetComponent </text>
</g>
<!-- UiTabWidgetModule&#45;&gt;TabWidgetComponent  -->
<g id="edge4" class="edge">
<title>UiTabWidgetModule&#45;&gt;TabWidgetComponent </title>
<path fill="none" stroke="black" stroke-dasharray="5,2" d="M268,-187.11C268,-187.11 268,-205.99 268,-205.99"/>
<polygon fill="black" stroke="black" points="264.5,-205.99 268,-215.99 271.5,-205.99 264.5,-205.99"/>
</g>
<!-- SharedModule -->
<g id="node4" class="node">
<title>SharedModule</title>
<polygon fill="#8dd3c7" stroke="black" points="445.42,-122 442.42,-126 421.42,-126 418.42,-122 346.58,-122 346.58,-86 445.42,-86 445.42,-122"/>
<text text-anchor="middle" x="396" y="-99.8" font-family="Times,serif" font-size="14.00">SharedModule</text>
</g>
<!-- SharedModule&#45;&gt;UiTabWidgetModule -->
<g id="edge3" class="edge">
<title>SharedModule&#45;&gt;UiTabWidgetModule</title>
<path fill="none" stroke="black" d="M346.59,-104C336.79,-104 329.46,-104 329.46,-104 329.46,-104 329.46,-140.89 329.46,-140.89"/>
<polygon fill="black" stroke="black" points="325.96,-140.89 329.46,-150.89 332.96,-140.89 325.96,-140.89"/>
</g>
</g>
</svg>
