<?xml version="1.0" encoding="UTF-8" standalone="no"?>
<!DOCTYPE svg PUBLIC "-//W3C//DTD SVG 1.1//EN"
 "http://www.w3.org/Graphics/SVG/1.1/DTD/svg11.dtd">
<!-- Generated by graphviz version 2.47.0 (20210316.0004)
 -->
<!-- Title: dependencies Pages: 1 -->
<svg width="5762pt" height="211pt"
 viewBox="0.00 0.00 5762.00 211.00" xmlns="http://www.w3.org/2000/svg" xmlns:xlink="http://www.w3.org/1999/xlink">
<g id="graph0" class="graph" transform="scale(1 1) rotate(0) translate(4 207)">
<title>dependencies</title>
<polygon fill="white" stroke="transparent" points="-4,4 -4,-207 5758,-207 5758,4 -4,4"/>
<text text-anchor="start" x="2856.01" y="-42.4" font-family="Times-12" font-weight="bold" font-size="14.00">Legend</text>
<polygon fill="#ffffb3" stroke="transparent" points="2643,-10 2643,-30 2663,-30 2663,-10 2643,-10"/>
<text text-anchor="start" x="2666.63" y="-15.4" font-family="Times-12" font-size="14.00"> &#160;Declarations</text>
<polygon fill="#8dd3c7" stroke="transparent" points="2756,-10 2756,-30 2776,-30 2776,-10 2756,-10"/>
<text text-anchor="start" x="2779.73" y="-15.4" font-family="Times-12" font-size="14.00"> &#160;Module</text>
<polygon fill="#80b1d3" stroke="transparent" points="2842,-10 2842,-30 2862,-30 2862,-10 2842,-10"/>
<text text-anchor="start" x="2865.78" y="-15.4" font-family="Times-12" font-size="14.00"> &#160;Bootstrap</text>
<polygon fill="#fdb462" stroke="transparent" points="2939,-10 2939,-30 2959,-30 2959,-10 2939,-10"/>
<text text-anchor="start" x="2962.67" y="-15.4" font-family="Times-12" font-size="14.00"> &#160;Providers</text>
<polygon fill="#fb8072" stroke="transparent" points="3035,-10 3035,-30 3055,-30 3055,-10 3035,-10"/>
<text text-anchor="start" x="3058.73" y="-15.4" font-family="Times-12" font-size="14.00"> &#160;Exports</text>
<g id="clust1" class="cluster">
<title>cluster_HomeModule</title>
<polygon fill="none" stroke="black" stroke-dasharray="1,5" points="8,-70 8,-195 5746,-195 5746,-70 8,-70"/>
</g>
<g id="clust2" class="cluster">
<title>cluster_HomeModule_declarations</title>
<polygon fill="none" stroke="black" points="5606,-78 5606,-130 5738,-130 5738,-78 5606,-78"/>
</g>
<g id="clust4" class="cluster">
<title>cluster_HomeModule_imports</title>
<polygon fill="none" stroke="black" points="16,-78 16,-130 5598,-130 5598,-78 16,-78"/>
</g>
<!-- HomeComponent -->
<g id="node1" class="node">
<title>HomeComponent</title>
<polygon fill="#ffffb3" stroke="black" points="5729.55,-122 5614.45,-122 5614.45,-86 5729.55,-86 5729.55,-122"/>
<text text-anchor="middle" x="5672" y="-99.8" font-family="Times,serif" font-size="14.00">HomeComponent</text>
</g>
<!-- HomeModule -->
<g id="node2" class="node">
<title>HomeModule</title>
<polygon fill="#8dd3c7" stroke="black" points="2901.76,-187 2898.76,-191 2877.76,-191 2874.76,-187 2808.24,-187 2808.24,-151 2901.76,-151 2901.76,-187"/>
<text text-anchor="middle" x="2855" y="-164.8" font-family="Times,serif" font-size="14.00">HomeModule</text>
</g>
<!-- HomeComponent&#45;&gt;HomeModule -->
<g id="edge1" class="edge">
<title>HomeComponent&#45;&gt;HomeModule</title>
<path fill="none" stroke="black" d="M5672,-122.38C5672,-146.28 5672,-185 5672,-185 5672,-185 2911.83,-185 2911.83,-185"/>
<polygon fill="black" stroke="black" points="2911.83,-181.5 2901.83,-185 2911.83,-188.5 2911.83,-181.5"/>
</g>
<!-- StarModule -->
<g id="node3" class="node">
<title>StarModule</title>
<polygon fill="#8dd3c7" stroke="black" points="5590.1,-122 5587.1,-126 5566.1,-126 5563.1,-122 5507.9,-122 5507.9,-86 5590.1,-86 5590.1,-122"/>
<text text-anchor="middle" x="5549" y="-99.8" font-family="Times,serif" font-size="14.00">StarModule</text>
</g>
<!-- StarModule&#45;&gt;HomeModule -->
<g id="edge2" class="edge">
<title>StarModule&#45;&gt;HomeModule</title>
<path fill="none" stroke="black" d="M5549,-122.32C5549,-145.66 5549,-183 5549,-183 5549,-183 2912.04,-183 2912.04,-183"/>
<polygon fill="black" stroke="black" points="2912.04,-179.5 2902.04,-183 2912.04,-186.5 2912.04,-179.5"/>
</g>
<!-- TabBlueprintModule -->
<g id="node4" class="node">
<title>TabBlueprintModule</title>
<polygon fill="#8dd3c7" stroke="black" points="5490.2,-122 5487.2,-126 5466.2,-126 5463.2,-122 5355.8,-122 5355.8,-86 5490.2,-86 5490.2,-122"/>
<text text-anchor="middle" x="5423" y="-99.8" font-family="Times,serif" font-size="14.00">TabBlueprintModule</text>
</g>
<!-- TabBlueprintModule&#45;&gt;HomeModule -->
<g id="edge3" class="edge">
<title>TabBlueprintModule&#45;&gt;HomeModule</title>
<path fill="none" stroke="black" d="M5423,-122.25C5423,-145.02 5423,-181 5423,-181 5423,-181 2911.76,-181 2911.76,-181"/>
<polygon fill="black" stroke="black" points="2911.76,-177.5 2901.76,-181 2911.76,-184.5 2911.76,-177.5"/>
</g>
<!-- TabColorPickerModule -->
<g id="node5" class="node">
<title>TabColorPickerModule</title>
<polygon fill="#8dd3c7" stroke="black" points="5337.47,-122 5334.47,-126 5313.47,-126 5310.47,-122 5188.53,-122 5188.53,-86 5337.47,-86 5337.47,-122"/>
<text text-anchor="middle" x="5263" y="-99.8" font-family="Times,serif" font-size="14.00">TabColorPickerModule</text>
</g>
<!-- TabColorPickerModule&#45;&gt;HomeModule -->
<g id="edge4" class="edge">
<title>TabColorPickerModule&#45;&gt;HomeModule</title>
<path fill="none" stroke="black" d="M5263,-122.29C5263,-144.21 5263,-178 5263,-178 5263,-178 2912.02,-178 2912.02,-178"/>
<polygon fill="black" stroke="black" points="2912.02,-174.5 2902.02,-178 2912.02,-181.5 2912.02,-174.5"/>
</g>
<!-- TabCommentsModule -->
<g id="node6" class="node">
<title>TabCommentsModule</title>
<polygon fill="#8dd3c7" stroke="black" points="5170.98,-122 5167.98,-126 5146.98,-126 5143.98,-122 5029.02,-122 5029.02,-86 5170.98,-86 5170.98,-122"/>
<text text-anchor="middle" x="5100" y="-99.8" font-family="Times,serif" font-size="14.00">TabCommentsModule</text>
</g>
<!-- TabCommentsModule&#45;&gt;HomeModule -->
<g id="edge5" class="edge">
<title>TabCommentsModule&#45;&gt;HomeModule</title>
<path fill="none" stroke="black" d="M5100,-122.17C5100,-143.5 5100,-176 5100,-176 5100,-176 2911.89,-176 2911.89,-176"/>
<polygon fill="black" stroke="black" points="2911.89,-172.5 2901.89,-176 2911.89,-179.5 2911.89,-172.5"/>
</g>
<!-- TabCustomCalenderModule -->
<g id="node7" class="node">
<title>TabCustomCalenderModule</title>
<polygon fill="#8dd3c7" stroke="black" points="5010.91,-122 5007.91,-126 4986.91,-126 4983.91,-122 4835.09,-122 4835.09,-86 5010.91,-86 5010.91,-122"/>
<text text-anchor="middle" x="4923" y="-99.8" font-family="Times,serif" font-size="14.00">TabCustomCalenderModule</text>
</g>
<!-- TabCustomCalenderModule&#45;&gt;HomeModule -->
<g id="edge6" class="edge">
<title>TabCustomCalenderModule&#45;&gt;HomeModule</title>
<path fill="none" stroke="black" d="M4923,-122.03C4923,-142.77 4923,-174 4923,-174 4923,-174 2912.08,-174 2912.08,-174"/>
<polygon fill="black" stroke="black" points="2912.08,-170.5 2902.08,-174 2912.08,-177.5 2912.08,-170.5"/>
</g>
<!-- TabCustomImageuploadModule -->
<g id="node8" class="node">
<title>TabCustomImageuploadModule</title>
<polygon fill="#8dd3c7" stroke="black" points="4816.97,-122 4813.97,-126 4792.97,-126 4789.97,-122 4619.03,-122 4619.03,-86 4816.97,-86 4816.97,-122"/>
<text text-anchor="middle" x="4718" y="-99.8" font-family="Times,serif" font-size="14.00">TabCustomImageuploadModule</text>
</g>
<!-- TabCustomImageuploadModule&#45;&gt;HomeModule -->
<g id="edge7" class="edge">
<title>TabCustomImageuploadModule&#45;&gt;HomeModule</title>
<path fill="none" stroke="black" d="M4718,-122.22C4718,-142.37 4718,-172 4718,-172 4718,-172 2911.98,-172 2911.98,-172"/>
<polygon fill="black" stroke="black" points="2911.98,-168.5 2901.98,-172 2911.98,-175.5 2911.98,-168.5"/>
</g>
<!-- TabCustomPivotTableModule -->
<g id="node9" class="node">
<title>TabCustomPivotTableModule</title>
<polygon fill="#8dd3c7" stroke="black" points="4601.32,-122 4598.32,-126 4577.32,-126 4574.32,-122 4414.68,-122 4414.68,-86 4601.32,-86 4601.32,-122"/>
<text text-anchor="middle" x="4508" y="-99.8" font-family="Times,serif" font-size="14.00">TabCustomPivotTableModule</text>
</g>
<!-- TabCustomPivotTableModule&#45;&gt;HomeModule -->
<g id="edge8" class="edge">
<title>TabCustomPivotTableModule&#45;&gt;HomeModule</title>
<path fill="none" stroke="black" d="M4508,-122.11C4508,-141.34 4508,-169 4508,-169 4508,-169 2911.81,-169 2911.81,-169"/>
<polygon fill="black" stroke="black" points="2911.81,-165.5 2901.81,-169 2911.81,-172.5 2911.81,-165.5"/>
</g>
<!-- TabCustomPlacePickerMapModule -->
<g id="node10" class="node">
<title>TabCustomPlacePickerMapModule</title>
<polygon fill="#8dd3c7" stroke="black" points="4397.12,-122 4394.12,-126 4373.12,-126 4370.12,-122 4180.88,-122 4180.88,-86 4397.12,-86 4397.12,-122"/>
<text text-anchor="middle" x="4289" y="-99.8" font-family="Times,serif" font-size="14.00">TabCustomPlacePickerMapModule</text>
</g>
<!-- TabCustomPlacePickerMapModule&#45;&gt;HomeModule -->
<g id="edge9" class="edge">
<title>TabCustomPlacePickerMapModule&#45;&gt;HomeModule</title>
<path fill="none" stroke="black" d="M4289,-122.22C4289,-140.83 4289,-167 4289,-167 4289,-167 2911.9,-167 2911.9,-167"/>
<polygon fill="black" stroke="black" points="2911.9,-163.5 2901.9,-167 2911.9,-170.5 2911.9,-163.5"/>
</g>
<!-- TabCustomRichtextHtmlEditorModule -->
<g id="node11" class="node">
<title>TabCustomRichtextHtmlEditorModule</title>
<polygon fill="#8dd3c7" stroke="black" points="4163.09,-122 4160.09,-126 4139.09,-126 4136.09,-122 3926.91,-122 3926.91,-86 4163.09,-86 4163.09,-122"/>
<text text-anchor="middle" x="4045" y="-99.8" font-family="Times,serif" font-size="14.00">TabCustomRichtextHtmlEditorModule</text>
</g>
<!-- TabCustomRichtextHtmlEditorModule&#45;&gt;HomeModule -->
<g id="edge10" class="edge">
<title>TabCustomRichtextHtmlEditorModule&#45;&gt;HomeModule</title>
<path fill="none" stroke="black" d="M4045,-122.3C4045,-140.27 4045,-165 4045,-165 4045,-165 2912.02,-165 2912.02,-165"/>
<polygon fill="black" stroke="black" points="2912.02,-161.5 2902.02,-165 2912.02,-168.5 2912.02,-161.5"/>
</g>
<!-- TabCustomTrackMapModule -->
<g id="node12" class="node">
<title>TabCustomTrackMapModule</title>
<polygon fill="#8dd3c7" stroke="black" points="3908.68,-122 3905.68,-126 3884.68,-126 3881.68,-122 3725.32,-122 3725.32,-86 3908.68,-86 3908.68,-122"/>
<text text-anchor="middle" x="3817" y="-99.8" font-family="Times,serif" font-size="14.00">TabCustomTrackMapModule</text>
</g>
<!-- TabCustomTrackMapModule&#45;&gt;HomeModule -->
<g id="edge11" class="edge">
<title>TabCustomTrackMapModule&#45;&gt;HomeModule</title>
<path fill="none" stroke="black" d="M3817,-122.02C3817,-139.37 3817,-163 3817,-163 3817,-163 2912.05,-163 2912.05,-163"/>
<polygon fill="black" stroke="black" points="2912.05,-159.5 2902.05,-163 2912.05,-166.5 2912.05,-159.5"/>
</g>
<!-- TabHistoryModule -->
<g id="node13" class="node">
<title>TabHistoryModule</title>
<polygon fill="#8dd3c7" stroke="black" points="3707.81,-122 3704.81,-126 3683.81,-126 3680.81,-122 3584.19,-122 3584.19,-86 3707.81,-86 3707.81,-122"/>
<text text-anchor="middle" x="3646" y="-99.8" font-family="Times,serif" font-size="14.00">TabHistoryModule</text>
</g>
<!-- TabHistoryModule&#45;&gt;HomeModule -->
<g id="edge12" class="edge">
<title>TabHistoryModule&#45;&gt;HomeModule</title>
<path fill="none" stroke="black" d="M3646,-122.03C3646,-138.4 3646,-160 3646,-160 3646,-160 2911.82,-160 2911.82,-160"/>
<polygon fill="black" stroke="black" points="2911.82,-156.5 2901.82,-160 2911.82,-163.5 2911.82,-156.5"/>
</g>
<!-- TabTransitionPreviewModule -->
<g id="node14" class="node">
<title>TabTransitionPreviewModule</title>
<polygon fill="#8dd3c7" stroke="black" points="3566.23,-122 3563.23,-126 3542.23,-126 3539.23,-122 3381.77,-122 3381.77,-86 3566.23,-86 3566.23,-122"/>
<text text-anchor="middle" x="3474" y="-99.8" font-family="Times,serif" font-size="14.00">TabTransitionPreviewModule</text>
</g>
<!-- TabTransitionPreviewModule&#45;&gt;HomeModule -->
<g id="edge13" class="edge">
<title>TabTransitionPreviewModule&#45;&gt;HomeModule</title>
<path fill="none" stroke="black" d="M3474,-122.28C3474,-137.95 3474,-158 3474,-158 3474,-158 2911.78,-158 2911.78,-158"/>
<polygon fill="black" stroke="black" points="2911.78,-154.5 2901.78,-158 2911.78,-161.5 2911.78,-154.5"/>
</g>
<!-- UiChartModule -->
<g id="node15" class="node">
<title>UiChartModule</title>
<polygon fill="#8dd3c7" stroke="black" points="3363.15,-122 3360.15,-126 3339.15,-126 3336.15,-122 3258.85,-122 3258.85,-86 3363.15,-86 3363.15,-122"/>
<text text-anchor="middle" x="3311" y="-99.8" font-family="Times,serif" font-size="14.00">UiChartModule</text>
</g>
<!-- UiChartModule&#45;&gt;HomeModule -->
<g id="edge14" class="edge">
<title>UiChartModule&#45;&gt;HomeModule</title>
<path fill="none" stroke="black" d="M3311,-122.19C3311,-137.18 3311,-156 3311,-156 3311,-156 2912.08,-156 2912.08,-156"/>
<polygon fill="black" stroke="black" points="2912.08,-152.5 2902.08,-156 2912.08,-159.5 2912.08,-152.5"/>
</g>
<!-- UiDateRangePickerModule -->
<g id="node16" class="node">
<title>UiDateRangePickerModule</title>
<polygon fill="#8dd3c7" stroke="black" points="3240.5,-122 3237.5,-126 3216.5,-126 3213.5,-122 3069.5,-122 3069.5,-86 3240.5,-86 3240.5,-122"/>
<text text-anchor="middle" x="3155" y="-99.8" font-family="Times,serif" font-size="14.00">UiDateRangePickerModule</text>
</g>
<!-- UiDateRangePickerModule&#45;&gt;HomeModule -->
<g id="edge15" class="edge">
<title>UiDateRangePickerModule&#45;&gt;HomeModule</title>
<path fill="none" stroke="black" d="M3155,-122.05C3155,-136.37 3155,-154 3155,-154 3155,-154 2911.88,-154 2911.88,-154"/>
<polygon fill="black" stroke="black" points="2911.88,-150.5 2901.88,-154 2911.87,-157.5 2911.88,-150.5"/>
</g>
<!-- UiNewTabQueryBuilderModule -->
<g id="node17" class="node">
<title>UiNewTabQueryBuilderModule</title>
<polygon fill="#8dd3c7" stroke="black" points="3051.22,-122 3048.22,-126 3027.22,-126 3024.22,-122 2852.78,-122 2852.78,-86 3051.22,-86 3051.22,-122"/>
<text text-anchor="middle" x="2952" y="-99.8" font-family="Times,serif" font-size="14.00">UiNewTabQueryBuilderModule</text>
</g>
<!-- UiNewTabQueryBuilderModule&#45;&gt;HomeModule -->
<g id="edge16" class="edge">
<title>UiNewTabQueryBuilderModule&#45;&gt;HomeModule</title>
<path fill="none" stroke="black" d="M2877.26,-122.11C2877.26,-122.11 2877.26,-140.99 2877.26,-140.99"/>
<polygon fill="black" stroke="black" points="2873.76,-140.99 2877.26,-150.99 2880.76,-140.99 2873.76,-140.99"/>
</g>
<!-- UiTabBasicGridModule -->
<g id="node18" class="node">
<title>UiTabBasicGridModule</title>
<polygon fill="#8dd3c7" stroke="black" points="2835.07,-122 2832.07,-126 2811.07,-126 2808.07,-122 2682.93,-122 2682.93,-86 2835.07,-86 2835.07,-122"/>
<text text-anchor="middle" x="2759" y="-99.8" font-family="Times,serif" font-size="14.00">UiTabBasicGridModule</text>
</g>
<!-- UiTabBasicGridModule&#45;&gt;HomeModule -->
<g id="edge17" class="edge">
<title>UiTabBasicGridModule&#45;&gt;HomeModule</title>
<path fill="none" stroke="black" d="M2821.58,-122.11C2821.58,-122.11 2821.58,-140.99 2821.58,-140.99"/>
<polygon fill="black" stroke="black" points="2818.08,-140.99 2821.58,-150.99 2825.08,-140.99 2818.08,-140.99"/>
</g>
<!-- UiTabChipsModule -->
<g id="node19" class="node">
<title>UiTabChipsModule</title>
<polygon fill="#8dd3c7" stroke="black" points="2664.99,-122 2661.99,-126 2640.99,-126 2637.99,-122 2537.01,-122 2537.01,-86 2664.99,-86 2664.99,-122"/>
<text text-anchor="middle" x="2601" y="-99.8" font-family="Times,serif" font-size="14.00">UiTabChipsModule</text>
</g>
<!-- UiTabChipsModule&#45;&gt;HomeModule -->
<g id="edge18" class="edge">
<title>UiTabChipsModule&#45;&gt;HomeModule</title>
<path fill="none" stroke="black" d="M2601,-122.05C2601,-136.37 2601,-154 2601,-154 2601,-154 2798.12,-154 2798.12,-154"/>
<polygon fill="black" stroke="black" points="2798.12,-157.5 2808.12,-154 2798.12,-150.5 2798.12,-157.5"/>
</g>
<!-- UiTabCodeEditorModule -->
<g id="node20" class="node">
<title>UiTabCodeEditorModule</title>
<polygon fill="#8dd3c7" stroke="black" points="2518.86,-122 2515.86,-126 2494.86,-126 2491.86,-122 2359.14,-122 2359.14,-86 2518.86,-86 2518.86,-122"/>
<text text-anchor="middle" x="2439" y="-99.8" font-family="Times,serif" font-size="14.00">UiTabCodeEditorModule</text>
</g>
<!-- UiTabCodeEditorModule&#45;&gt;HomeModule -->
<g id="edge19" class="edge">
<title>UiTabCodeEditorModule&#45;&gt;HomeModule</title>
<path fill="none" stroke="black" d="M2439,-122.19C2439,-137.18 2439,-156 2439,-156 2439,-156 2798.09,-156 2798.09,-156"/>
<polygon fill="black" stroke="black" points="2798.09,-159.5 2808.09,-156 2798.09,-152.5 2798.09,-159.5"/>
</g>
<!-- UiTabCustomFormBuilderModule -->
<g id="node21" class="node">
<title>UiTabCustomFormBuilderModule</title>
<polygon fill="#8dd3c7" stroke="black" points="2340.7,-122 2337.7,-126 2316.7,-126 2313.7,-122 2129.3,-122 2129.3,-86 2340.7,-86 2340.7,-122"/>
<text text-anchor="middle" x="2235" y="-99.8" font-family="Times,serif" font-size="14.00">UiTabCustomFormBuilderModule</text>
</g>
<!-- UiTabCustomFormBuilderModule&#45;&gt;HomeModule -->
<g id="edge20" class="edge">
<title>UiTabCustomFormBuilderModule&#45;&gt;HomeModule</title>
<path fill="none" stroke="black" d="M2235,-122.28C2235,-137.95 2235,-158 2235,-158 2235,-158 2798.15,-158 2798.15,-158"/>
<polygon fill="black" stroke="black" points="2798.15,-161.5 2808.15,-158 2798.15,-154.5 2798.15,-161.5"/>
</g>
<!-- UiTabCustomGanttChartModule -->
<g id="node22" class="node">
<title>UiTabCustomGanttChartModule</title>
<polygon fill="#8dd3c7" stroke="black" points="2111.58,-122 2108.58,-126 2087.58,-126 2084.58,-122 1910.42,-122 1910.42,-86 2111.58,-86 2111.58,-122"/>
<text text-anchor="middle" x="2011" y="-99.8" font-family="Times,serif" font-size="14.00">UiTabCustomGanttChartModule</text>
</g>
<!-- UiTabCustomGanttChartModule&#45;&gt;HomeModule -->
<g id="edge21" class="edge">
<title>UiTabCustomGanttChartModule&#45;&gt;HomeModule</title>
<path fill="none" stroke="black" d="M2011,-122.03C2011,-138.4 2011,-160 2011,-160 2011,-160 2798.12,-160 2798.12,-160"/>
<polygon fill="black" stroke="black" points="2798.12,-163.5 2808.12,-160 2798.12,-156.5 2798.12,-163.5"/>
</g>
<!-- UiTabDropdownTreeModule -->
<g id="node23" class="node">
<title>UiTabDropdownTreeModule</title>
<polygon fill="#8dd3c7" stroke="black" points="1892.33,-122 1889.33,-126 1868.33,-126 1865.33,-122 1711.67,-122 1711.67,-86 1892.33,-86 1892.33,-122"/>
<text text-anchor="middle" x="1802" y="-99.8" font-family="Times,serif" font-size="14.00">UiTabDropdownTreeModule</text>
</g>
<!-- UiTabDropdownTreeModule&#45;&gt;HomeModule -->
<g id="edge22" class="edge">
<title>UiTabDropdownTreeModule&#45;&gt;HomeModule</title>
<path fill="none" stroke="black" d="M1802,-122.02C1802,-139.37 1802,-163 1802,-163 1802,-163 2798.05,-163 2798.05,-163"/>
<polygon fill="black" stroke="black" points="2798.05,-166.5 2808.05,-163 2798.05,-159.5 2798.05,-166.5"/>
</g>
<!-- UiTabFilePreviewModule -->
<g id="node24" class="node">
<title>UiTabFilePreviewModule</title>
<polygon fill="#8dd3c7" stroke="black" points="1693.46,-122 1690.46,-126 1669.46,-126 1666.46,-122 1530.54,-122 1530.54,-86 1693.46,-86 1693.46,-122"/>
<text text-anchor="middle" x="1612" y="-99.8" font-family="Times,serif" font-size="14.00">UiTabFilePreviewModule</text>
</g>
<!-- UiTabFilePreviewModule&#45;&gt;HomeModule -->
<g id="edge23" class="edge">
<title>UiTabFilePreviewModule&#45;&gt;HomeModule</title>
<path fill="none" stroke="black" d="M1612,-122.3C1612,-140.27 1612,-165 1612,-165 1612,-165 2798.17,-165 2798.17,-165"/>
<polygon fill="black" stroke="black" points="2798.17,-168.5 2808.17,-165 2798.17,-161.5 2798.17,-168.5"/>
</g>
<!-- UiTabFormBuilderModule -->
<g id="node25" class="node">
<title>UiTabFormBuilderModule</title>
<polygon fill="#8dd3c7" stroke="black" points="1512.64,-122 1509.64,-126 1488.64,-126 1485.64,-122 1345.36,-122 1345.36,-86 1512.64,-86 1512.64,-122"/>
<text text-anchor="middle" x="1429" y="-99.8" font-family="Times,serif" font-size="14.00">UiTabFormBuilderModule</text>
</g>
<!-- UiTabFormBuilderModule&#45;&gt;HomeModule -->
<g id="edge24" class="edge">
<title>UiTabFormBuilderModule&#45;&gt;HomeModule</title>
<path fill="none" stroke="black" d="M1429,-122.22C1429,-140.83 1429,-167 1429,-167 1429,-167 2797.96,-167 2797.96,-167"/>
<polygon fill="black" stroke="black" points="2797.96,-170.5 2807.96,-167 2797.96,-163.5 2797.96,-170.5"/>
</g>
<!-- UiTabFormRendererModule -->
<g id="node26" class="node">
<title>UiTabFormRendererModule</title>
<polygon fill="#8dd3c7" stroke="black" points="1327.45,-122 1324.45,-126 1303.45,-126 1300.45,-122 1150.55,-122 1150.55,-86 1327.45,-86 1327.45,-122"/>
<text text-anchor="middle" x="1239" y="-99.8" font-family="Times,serif" font-size="14.00">UiTabFormRendererModule</text>
</g>
<!-- UiTabFormRendererModule&#45;&gt;HomeModule -->
<g id="edge25" class="edge">
<title>UiTabFormRendererModule&#45;&gt;HomeModule</title>
<path fill="none" stroke="black" d="M1239,-122.11C1239,-141.34 1239,-169 1239,-169 1239,-169 2797.95,-169 2797.95,-169"/>
<polygon fill="black" stroke="black" points="2797.95,-172.5 2807.95,-169 2797.95,-165.5 2797.95,-172.5"/>
</g>
<!-- UiTabIframeModule -->
<g id="node27" class="node">
<title>UiTabIframeModule</title>
<polygon fill="#8dd3c7" stroke="black" points="1132.12,-122 1129.12,-126 1108.12,-126 1105.12,-122 999.88,-122 999.88,-86 1132.12,-86 1132.12,-122"/>
<text text-anchor="middle" x="1066" y="-99.8" font-family="Times,serif" font-size="14.00">UiTabIframeModule</text>
</g>
<!-- UiTabIframeModule&#45;&gt;HomeModule -->
<g id="edge26" class="edge">
<title>UiTabIframeModule&#45;&gt;HomeModule</title>
<path fill="none" stroke="black" d="M1066,-122.22C1066,-142.37 1066,-172 1066,-172 1066,-172 2798.07,-172 2798.07,-172"/>
<polygon fill="black" stroke="black" points="2798.07,-175.5 2808.07,-172 2798.07,-168.5 2798.07,-175.5"/>
</g>
<!-- UiTabPdfViewerModule -->
<g id="node28" class="node">
<title>UiTabPdfViewerModule</title>
<polygon fill="#8dd3c7" stroke="black" points="981.95,-122 978.95,-126 957.95,-126 954.95,-122 826.05,-122 826.05,-86 981.95,-86 981.95,-122"/>
<text text-anchor="middle" x="904" y="-99.8" font-family="Times,serif" font-size="14.00">UiTabPdfViewerModule</text>
</g>
<!-- UiTabPdfViewerModule&#45;&gt;HomeModule -->
<g id="edge27" class="edge">
<title>UiTabPdfViewerModule&#45;&gt;HomeModule</title>
<path fill="none" stroke="black" d="M904,-122.03C904,-142.77 904,-174 904,-174 904,-174 2798.22,-174 2798.22,-174"/>
<polygon fill="black" stroke="black" points="2798.22,-177.5 2808.22,-174 2798.22,-170.5 2798.22,-177.5"/>
</g>
<!-- UiTabQueryBuilderModule -->
<g id="node29" class="node">
<title>UiTabQueryBuilderModule</title>
<polygon fill="#8dd3c7" stroke="black" points="808.29,-122 805.29,-126 784.29,-126 781.29,-122 635.71,-122 635.71,-86 808.29,-86 808.29,-122"/>
<text text-anchor="middle" x="722" y="-99.8" font-family="Times,serif" font-size="14.00">UiTabQueryBuilderModule</text>
</g>
<!-- UiTabQueryBuilderModule&#45;&gt;HomeModule -->
<g id="edge28" class="edge">
<title>UiTabQueryBuilderModule&#45;&gt;HomeModule</title>
<path fill="none" stroke="black" d="M722,-122.17C722,-143.5 722,-176 722,-176 722,-176 2798.21,-176 2798.21,-176"/>
<polygon fill="black" stroke="black" points="2798.21,-179.5 2808.21,-176 2798.21,-172.5 2798.21,-179.5"/>
</g>
<!-- UiTabTextBoxModule -->
<g id="node30" class="node">
<title>UiTabTextBoxModule</title>
<polygon fill="#8dd3c7" stroke="black" points="618.31,-122 615.31,-126 594.31,-126 591.31,-122 473.69,-122 473.69,-86 618.31,-86 618.31,-122"/>
<text text-anchor="middle" x="546" y="-99.8" font-family="Times,serif" font-size="14.00">UiTabTextBoxModule</text>
</g>
<!-- UiTabTextBoxModule&#45;&gt;HomeModule -->
<g id="edge29" class="edge">
<title>UiTabTextBoxModule&#45;&gt;HomeModule</title>
<path fill="none" stroke="black" d="M546,-122.29C546,-144.21 546,-178 546,-178 546,-178 2798.09,-178 2798.09,-178"/>
<polygon fill="black" stroke="black" points="2798.09,-181.5 2808.09,-178 2798.09,-174.5 2798.09,-181.5"/>
</g>
<!-- UiTabTreeViewModule -->
<g id="node31" class="node">
<title>UiTabTreeViewModule</title>
<polygon fill="#8dd3c7" stroke="black" points="455.78,-122 452.78,-126 431.78,-126 428.78,-122 304.22,-122 304.22,-86 455.78,-86 455.78,-122"/>
<text text-anchor="middle" x="380" y="-99.8" font-family="Times,serif" font-size="14.00">UiTabTreeViewModule</text>
</g>
<!-- UiTabTreeViewModule&#45;&gt;HomeModule -->
<g id="edge30" class="edge">
<title>UiTabTreeViewModule&#45;&gt;HomeModule</title>
<path fill="none" stroke="black" d="M380,-122.25C380,-145.02 380,-181 380,-181 380,-181 2798.04,-181 2798.04,-181"/>
<polygon fill="black" stroke="black" points="2798.04,-184.5 2808.04,-181 2798.04,-177.5 2798.04,-184.5"/>
</g>
<!-- UiTabWidgetModule -->
<g id="node32" class="node">
<title>UiTabWidgetModule</title>
<polygon fill="#8dd3c7" stroke="black" points="286.03,-122 283.03,-126 262.03,-126 259.03,-122 149.97,-122 149.97,-86 286.03,-86 286.03,-122"/>
<text text-anchor="middle" x="218" y="-99.8" font-family="Times,serif" font-size="14.00">UiTabWidgetModule</text>
</g>
<!-- UiTabWidgetModule&#45;&gt;HomeModule -->
<g id="edge31" class="edge">
<title>UiTabWidgetModule&#45;&gt;HomeModule</title>
<path fill="none" stroke="black" d="M218,-122.32C218,-145.66 218,-183 218,-183 218,-183 2798.11,-183 2798.11,-183"/>
<polygon fill="black" stroke="black" points="2798.11,-186.5 2808.11,-183 2798.11,-179.5 2798.11,-186.5"/>
</g>
<!-- UiTimerModule -->
<g id="node33" class="node">
<title>UiTimerModule</title>
<polygon fill="#8dd3c7" stroke="black" points="131.76,-122 128.76,-126 107.76,-126 104.76,-122 24.24,-122 24.24,-86 131.76,-86 131.76,-122"/>
<text text-anchor="middle" x="78" y="-99.8" font-family="Times,serif" font-size="14.00">UiTimerModule</text>
</g>
<!-- UiTimerModule&#45;&gt;HomeModule -->
<g id="edge32" class="edge">
<title>UiTimerModule&#45;&gt;HomeModule</title>
<path fill="none" stroke="black" d="M78,-122.38C78,-146.28 78,-185 78,-185 78,-185 2797.97,-185 2797.97,-185"/>
<polygon fill="black" stroke="black" points="2797.97,-188.5 2807.97,-185 2797.97,-181.5 2797.97,-188.5"/>
</g>
</g>
</svg>
