<?xml version="1.0" encoding="UTF-8" standalone="no"?>
<!DOCTYPE svg PUBLIC "-//W3C//DTD SVG 1.1//EN"
 "http://www.w3.org/Graphics/SVG/1.1/DTD/svg11.dtd">
<!-- Generated by graphviz version 2.47.0 (20210316.0004)
 -->
<!-- Title: dependencies Pages: 1 -->
<svg width="2439pt" height="349pt"
 viewBox="0.00 0.00 2439.00 349.00" xmlns="http://www.w3.org/2000/svg" xmlns:xlink="http://www.w3.org/1999/xlink">
<g id="graph0" class="graph" transform="scale(1 1) rotate(0) translate(4 345)">
<title>dependencies</title>
<polygon fill="white" stroke="transparent" points="-4,4 -4,-345 2435,-345 2435,4 -4,4"/>
<text text-anchor="start" x="1194.51" y="-42.4" font-family="Times-12" font-weight="bold" font-size="14.00">Legend</text>
<polygon fill="#ffffb3" stroke="transparent" points="981.5,-10 981.5,-30 1001.5,-30 1001.5,-10 981.5,-10"/>
<text text-anchor="start" x="1005.13" y="-15.4" font-family="Times-12" font-size="14.00"> &#160;Declarations</text>
<polygon fill="#8dd3c7" stroke="transparent" points="1094.5,-10 1094.5,-30 1114.5,-30 1114.5,-10 1094.5,-10"/>
<text text-anchor="start" x="1118.23" y="-15.4" font-family="Times-12" font-size="14.00"> &#160;Module</text>
<polygon fill="#80b1d3" stroke="transparent" points="1180.5,-10 1180.5,-30 1200.5,-30 1200.5,-10 1180.5,-10"/>
<text text-anchor="start" x="1204.28" y="-15.4" font-family="Times-12" font-size="14.00"> &#160;Bootstrap</text>
<polygon fill="#fdb462" stroke="transparent" points="1277.5,-10 1277.5,-30 1297.5,-30 1297.5,-10 1277.5,-10"/>
<text text-anchor="start" x="1301.17" y="-15.4" font-family="Times-12" font-size="14.00"> &#160;Providers</text>
<polygon fill="#fb8072" stroke="transparent" points="1373.5,-10 1373.5,-30 1393.5,-30 1393.5,-10 1373.5,-10"/>
<text text-anchor="start" x="1397.23" y="-15.4" font-family="Times-12" font-size="14.00"> &#160;Exports</text>
<g id="clust1" class="cluster">
<title>cluster_TabCustomPivotTableModule</title>
<polygon fill="none" stroke="black" stroke-dasharray="1,5" points="8,-70 8,-333 2423,-333 2423,-70 8,-70"/>
</g>
<g id="clust3" class="cluster">
<title>cluster_TabCustomPivotTableModule_TabCustomPivotTableComponent_providers</title>
<polygon fill="none" stroke="black" points="16,-78 16,-195 2415,-195 2415,-78 16,-78"/>
</g>
<g id="clust6" class="cluster">
<title>cluster_TabCustomPivotTableModule_bootstrap</title>
<polygon fill="none" stroke="black" points="1041,-273 1041,-325 1269,-325 1269,-273 1041,-273"/>
</g>
<!-- TabCustomPivotTableComponent -->
<g id="node1" class="node">
<title>TabCustomPivotTableComponent</title>
<polygon fill="#ffffb3" stroke="black" points="1259.1,-187 1050.9,-187 1050.9,-151 1259.1,-151 1259.1,-187"/>
<text text-anchor="middle" x="1155" y="-164.8" font-family="Times,serif" font-size="14.00">TabCustomPivotTableComponent</text>
</g>
<!-- TabCustomPivotTableModule -->
<g id="node2" class="node">
<title>TabCustomPivotTableModule</title>
<polygon fill="#8dd3c7" stroke="black" points="1248.32,-252 1245.32,-256 1224.32,-256 1221.32,-252 1061.68,-252 1061.68,-216 1248.32,-216 1248.32,-252"/>
<text text-anchor="middle" x="1155" y="-229.8" font-family="Times,serif" font-size="14.00">TabCustomPivotTableModule</text>
</g>
<!-- TabCustomPivotTableComponent&#45;&gt;TabCustomPivotTableModule -->
<g id="edge1" class="edge">
<title>TabCustomPivotTableComponent&#45;&gt;TabCustomPivotTableModule</title>
<path fill="none" stroke="black" d="M1155,-187.11C1155,-187.11 1155,-205.99 1155,-205.99"/>
<polygon fill="black" stroke="black" points="1151.5,-205.99 1155,-215.99 1158.5,-205.99 1151.5,-205.99"/>
</g>
<!-- TabCustomPivotTableComponent  -->
<g id="node15" class="node">
<title>TabCustomPivotTableComponent </title>
<polygon fill="#fb8072" stroke="black" points="1260.6,-317 1049.4,-317 1049.4,-281 1260.6,-281 1260.6,-317"/>
<text text-anchor="middle" x="1155" y="-294.8" font-family="Times,serif" font-size="14.00">TabCustomPivotTableComponent </text>
</g>
<!-- TabCustomPivotTableModule&#45;&gt;TabCustomPivotTableComponent  -->
<g id="edge14" class="edge">
<title>TabCustomPivotTableModule&#45;&gt;TabCustomPivotTableComponent </title>
<path fill="none" stroke="black" stroke-dasharray="5,2" d="M1123.95,-252.11C1123.95,-252.11 1123.95,-270.99 1123.95,-270.99"/>
<polygon fill="black" stroke="black" points="1120.45,-270.99 1123.95,-280.99 1127.45,-270.99 1120.45,-270.99"/>
</g>
<!-- TabCustomPivotTableModule&#45;&gt;TabCustomPivotTableComponent  -->
<g id="edge15" class="edge">
<title>TabCustomPivotTableModule&#45;&gt;TabCustomPivotTableComponent </title>
<path fill="none" stroke="black" stroke-dasharray="1,5" d="M1186.05,-252.11C1186.05,-252.11 1186.05,-270.99 1186.05,-270.99"/>
<polygon fill="black" stroke="black" points="1182.55,-270.99 1186.05,-280.99 1189.55,-270.99 1182.55,-270.99"/>
</g>
<!-- CalculatedFieldService -->
<g id="node3" class="node">
<title>CalculatedFieldService</title>
<ellipse fill="#fdb462" stroke="black" cx="2306" cy="-104" rx="101.28" ry="18"/>
<text text-anchor="middle" x="2306" y="-99.8" font-family="Times,serif" font-size="14.00">CalculatedFieldService</text>
</g>
<!-- CalculatedFieldService&#45;&gt;TabCustomPivotTableComponent -->
<g id="edge2" class="edge">
<title>CalculatedFieldService&#45;&gt;TabCustomPivotTableComponent</title>
<path fill="none" stroke="black" d="M2306,-122.25C2306,-145.02 2306,-181 2306,-181 2306,-181 1269.17,-181 1269.17,-181"/>
<polygon fill="black" stroke="black" points="1269.17,-177.5 1259.17,-181 1269.17,-184.5 1269.17,-177.5"/>
</g>
<!-- ToolbarService -->
<g id="node4" class="node">
<title>ToolbarService</title>
<ellipse fill="#fdb462" stroke="black" cx="2116" cy="-104" rx="70.62" ry="18"/>
<text text-anchor="middle" x="2116" y="-99.8" font-family="Times,serif" font-size="14.00">ToolbarService</text>
</g>
<!-- ToolbarService&#45;&gt;TabCustomPivotTableComponent -->
<g id="edge3" class="edge">
<title>ToolbarService&#45;&gt;TabCustomPivotTableComponent</title>
<path fill="none" stroke="black" d="M2116,-122.28C2116,-143.32 2116,-175 2116,-175 2116,-175 1269.21,-175 1269.21,-175"/>
<polygon fill="black" stroke="black" points="1269.21,-171.5 1259.21,-175 1269.21,-178.5 1269.21,-171.5"/>
</g>
<!-- ConditionalFormattingService -->
<g id="node5" class="node">
<title>ConditionalFormattingService</title>
<ellipse fill="#fdb462" stroke="black" cx="1899" cy="-104" rx="128.53" ry="18"/>
<text text-anchor="middle" x="1899" y="-99.8" font-family="Times,serif" font-size="14.00">ConditionalFormattingService</text>
</g>
<!-- ConditionalFormattingService&#45;&gt;TabCustomPivotTableComponent -->
<g id="edge4" class="edge">
<title>ConditionalFormattingService&#45;&gt;TabCustomPivotTableComponent</title>
<path fill="none" stroke="black" d="M1899,-122.11C1899,-141.34 1899,-169 1899,-169 1899,-169 1269.23,-169 1269.23,-169"/>
<polygon fill="black" stroke="black" points="1269.23,-165.5 1259.23,-169 1269.23,-172.5 1269.23,-165.5"/>
</g>
<!-- FieldListService -->
<g id="node6" class="node">
<title>FieldListService</title>
<ellipse fill="#fdb462" stroke="black" cx="1678" cy="-104" rx="74.73" ry="18"/>
<text text-anchor="middle" x="1678" y="-99.8" font-family="Times,serif" font-size="14.00">FieldListService</text>
</g>
<!-- FieldListService&#45;&gt;TabCustomPivotTableComponent -->
<g id="edge5" class="edge">
<title>FieldListService&#45;&gt;TabCustomPivotTableComponent</title>
<path fill="none" stroke="black" d="M1678,-122.02C1678,-139.37 1678,-163 1678,-163 1678,-163 1269.27,-163 1269.27,-163"/>
<polygon fill="black" stroke="black" points="1269.27,-159.5 1259.27,-163 1269.27,-166.5 1269.27,-159.5"/>
</g>
<!-- NumberFormattingService -->
<g id="node7" class="node">
<title>NumberFormattingService</title>
<ellipse fill="#fdb462" stroke="black" cx="1471" cy="-104" rx="114.6" ry="18"/>
<text text-anchor="middle" x="1471" y="-99.8" font-family="Times,serif" font-size="14.00">NumberFormattingService</text>
</g>
<!-- NumberFormattingService&#45;&gt;TabCustomPivotTableComponent -->
<g id="edge6" class="edge">
<title>NumberFormattingService&#45;&gt;TabCustomPivotTableComponent</title>
<path fill="none" stroke="black" d="M1471,-122.24C1471,-137.57 1471,-157 1471,-157 1471,-157 1269.35,-157 1269.35,-157"/>
<polygon fill="black" stroke="black" points="1269.35,-153.5 1259.35,-157 1269.35,-160.5 1269.35,-153.5"/>
</g>
<!-- GroupingBarService -->
<g id="node8" class="node">
<title>GroupingBarService</title>
<ellipse fill="#fdb462" stroke="black" cx="1248" cy="-104" rx="90.89" ry="18"/>
<text text-anchor="middle" x="1248" y="-99.8" font-family="Times,serif" font-size="14.00">GroupingBarService</text>
</g>
<!-- GroupingBarService&#45;&gt;TabCustomPivotTableComponent -->
<g id="edge7" class="edge">
<title>GroupingBarService&#45;&gt;TabCustomPivotTableComponent</title>
<path fill="none" stroke="black" d="M1208.05,-120.4C1208.05,-120.4 1208.05,-140.54 1208.05,-140.54"/>
<polygon fill="black" stroke="black" points="1204.55,-140.54 1208.05,-150.54 1211.55,-140.54 1204.55,-140.54"/>
</g>
<!-- GroupingService -->
<g id="node9" class="node">
<title>GroupingService</title>
<ellipse fill="#fdb462" stroke="black" cx="1062" cy="-104" rx="77.01" ry="18"/>
<text text-anchor="middle" x="1062" y="-99.8" font-family="Times,serif" font-size="14.00">GroupingService</text>
</g>
<!-- GroupingService&#45;&gt;TabCustomPivotTableComponent -->
<g id="edge8" class="edge">
<title>GroupingService&#45;&gt;TabCustomPivotTableComponent</title>
<path fill="none" stroke="black" d="M1094.98,-120.4C1094.98,-120.4 1094.98,-140.54 1094.98,-140.54"/>
<polygon fill="black" stroke="black" points="1091.48,-140.54 1094.98,-150.54 1098.48,-140.54 1091.48,-140.54"/>
</g>
<!-- VirtualScrollService -->
<g id="node10" class="node">
<title>VirtualScrollService</title>
<ellipse fill="#fdb462" stroke="black" cx="877" cy="-104" rx="90.32" ry="18"/>
<text text-anchor="middle" x="877" y="-99.8" font-family="Times,serif" font-size="14.00">VirtualScrollService</text>
</g>
<!-- VirtualScrollService&#45;&gt;TabCustomPivotTableComponent -->
<g id="edge9" class="edge">
<title>VirtualScrollService&#45;&gt;TabCustomPivotTableComponent</title>
<path fill="none" stroke="black" d="M877,-122.24C877,-137.57 877,-157 877,-157 877,-157 1040.69,-157 1040.69,-157"/>
<polygon fill="black" stroke="black" points="1040.69,-160.5 1050.69,-157 1040.69,-153.5 1040.69,-160.5"/>
</g>
<!-- DrillThroughService -->
<g id="node11" class="node">
<title>DrillThroughService</title>
<ellipse fill="#fdb462" stroke="black" cx="677" cy="-104" rx="91.47" ry="18"/>
<text text-anchor="middle" x="677" y="-99.8" font-family="Times,serif" font-size="14.00">DrillThroughService</text>
</g>
<!-- DrillThroughService&#45;&gt;TabCustomPivotTableComponent -->
<g id="edge10" class="edge">
<title>DrillThroughService&#45;&gt;TabCustomPivotTableComponent</title>
<path fill="none" stroke="black" d="M677,-122.02C677,-139.37 677,-163 677,-163 677,-163 1040.69,-163 1040.69,-163"/>
<polygon fill="black" stroke="black" points="1040.69,-166.5 1050.69,-163 1040.69,-159.5 1040.69,-166.5"/>
</g>
<!-- PDFExportService -->
<g id="node12" class="node">
<title>PDFExportService</title>
<ellipse fill="#fdb462" stroke="black" cx="484" cy="-104" rx="83.97" ry="18"/>
<text text-anchor="middle" x="484" y="-99.8" font-family="Times,serif" font-size="14.00">PDFExportService</text>
</g>
<!-- PDFExportService&#45;&gt;TabCustomPivotTableComponent -->
<g id="edge11" class="edge">
<title>PDFExportService&#45;&gt;TabCustomPivotTableComponent</title>
<path fill="none" stroke="black" d="M484,-122.11C484,-141.34 484,-169 484,-169 484,-169 1040.89,-169 1040.89,-169"/>
<polygon fill="black" stroke="black" points="1040.89,-172.5 1050.89,-169 1040.89,-165.5 1040.89,-172.5"/>
</g>
<!-- ExcelExportService -->
<g id="node13" class="node">
<title>ExcelExportService</title>
<ellipse fill="#fdb462" stroke="black" cx="294" cy="-104" rx="88.02" ry="18"/>
<text text-anchor="middle" x="294" y="-99.8" font-family="Times,serif" font-size="14.00">ExcelExportService</text>
</g>
<!-- ExcelExportService&#45;&gt;TabCustomPivotTableComponent -->
<g id="edge12" class="edge">
<title>ExcelExportService&#45;&gt;TabCustomPivotTableComponent</title>
<path fill="none" stroke="black" d="M294,-122.28C294,-143.32 294,-175 294,-175 294,-175 1040.71,-175 1040.71,-175"/>
<polygon fill="black" stroke="black" points="1040.71,-178.5 1050.71,-175 1040.71,-171.5 1040.71,-178.5"/>
</g>
<!-- PivotChartService -->
<g id="node14" class="node">
<title>PivotChartService</title>
<ellipse fill="#fdb462" stroke="black" cx="106" cy="-104" rx="81.68" ry="18"/>
<text text-anchor="middle" x="106" y="-99.8" font-family="Times,serif" font-size="14.00">PivotChartService</text>
</g>
<!-- PivotChartService&#45;&gt;TabCustomPivotTableComponent -->
<g id="edge13" class="edge">
<title>PivotChartService&#45;&gt;TabCustomPivotTableComponent</title>
<path fill="none" stroke="black" d="M106,-122.25C106,-145.02 106,-181 106,-181 106,-181 1040.58,-181 1040.58,-181"/>
<polygon fill="black" stroke="black" points="1040.58,-184.5 1050.58,-181 1040.58,-177.5 1040.58,-184.5"/>
</g>
</g>
</svg>
