<?xml version="1.0" encoding="UTF-8" standalone="no"?>
<!DOCTYPE svg PUBLIC "-//W3C//DTD SVG 1.1//EN"
 "http://www.w3.org/Graphics/SVG/1.1/DTD/svg11.dtd">
<!-- Generated by graphviz version 2.47.0 (20210316.0004)
 -->
<!-- Title: dependencies Pages: 1 -->
<svg width="1620pt" height="284pt"
 viewBox="0.00 0.00 1620.00 284.00" xmlns="http://www.w3.org/2000/svg" xmlns:xlink="http://www.w3.org/1999/xlink">
<g id="graph0" class="graph" transform="scale(1 1) rotate(0) translate(4 280)">
<title>dependencies</title>
<polygon fill="white" stroke="transparent" points="-4,4 -4,-280 1616,-280 1616,4 -4,4"/>
<text text-anchor="start" x="785.01" y="-42.4" font-family="Times-12" font-weight="bold" font-size="14.00">Legend</text>
<polygon fill="#ffffb3" stroke="transparent" points="572,-10 572,-30 592,-30 592,-10 572,-10"/>
<text text-anchor="start" x="595.63" y="-15.4" font-family="Times-12" font-size="14.00"> &#160;Declarations</text>
<polygon fill="#8dd3c7" stroke="transparent" points="685,-10 685,-30 705,-30 705,-10 685,-10"/>
<text text-anchor="start" x="708.73" y="-15.4" font-family="Times-12" font-size="14.00"> &#160;Module</text>
<polygon fill="#80b1d3" stroke="transparent" points="771,-10 771,-30 791,-30 791,-10 771,-10"/>
<text text-anchor="start" x="794.78" y="-15.4" font-family="Times-12" font-size="14.00"> &#160;Bootstrap</text>
<polygon fill="#fdb462" stroke="transparent" points="868,-10 868,-30 888,-30 888,-10 868,-10"/>
<text text-anchor="start" x="891.67" y="-15.4" font-family="Times-12" font-size="14.00"> &#160;Providers</text>
<polygon fill="#fb8072" stroke="transparent" points="964,-10 964,-30 984,-30 984,-10 964,-10"/>
<text text-anchor="start" x="987.73" y="-15.4" font-family="Times-12" font-size="14.00"> &#160;Exports</text>
<g id="clust1" class="cluster">
<title>cluster_CompactLayoutModule</title>
<polygon fill="none" stroke="black" stroke-dasharray="1,5" points="8,-70 8,-268 1604,-268 1604,-70 8,-70"/>
</g>
<g id="clust5" class="cluster">
<title>cluster_CompactLayoutModule_exports</title>
<polygon fill="none" stroke="black" points="601,-208 601,-260 793,-260 793,-208 601,-208"/>
</g>
<g id="clust2" class="cluster">
<title>cluster_CompactLayoutModule_declarations</title>
<polygon fill="none" stroke="black" points="1408,-78 1408,-130 1596,-130 1596,-78 1408,-78"/>
</g>
<g id="clust4" class="cluster">
<title>cluster_CompactLayoutModule_imports</title>
<polygon fill="none" stroke="black" points="16,-78 16,-130 1400,-130 1400,-78 16,-78"/>
</g>
<!-- CompactLayoutComponent -->
<g id="node1" class="node">
<title>CompactLayoutComponent</title>
<polygon fill="#ffffb3" stroke="black" points="1587.54,-122 1416.46,-122 1416.46,-86 1587.54,-86 1587.54,-122"/>
<text text-anchor="middle" x="1502" y="-99.8" font-family="Times,serif" font-size="14.00">CompactLayoutComponent</text>
</g>
<!-- CompactLayoutModule -->
<g id="node2" class="node">
<title>CompactLayoutModule</title>
<polygon fill="#8dd3c7" stroke="black" points="771.75,-187 768.75,-191 747.75,-191 744.75,-187 622.25,-187 622.25,-151 771.75,-151 771.75,-187"/>
<text text-anchor="middle" x="697" y="-164.8" font-family="Times,serif" font-size="14.00">CompactLayoutModule</text>
</g>
<!-- CompactLayoutComponent&#45;&gt;CompactLayoutModule -->
<g id="edge1" class="edge">
<title>CompactLayoutComponent&#45;&gt;CompactLayoutModule</title>
<path fill="none" stroke="black" d="M1502,-122.25C1502,-145.02 1502,-181 1502,-181 1502,-181 782.01,-181 782.01,-181"/>
<polygon fill="black" stroke="black" points="782.01,-177.5 772.01,-181 782.01,-184.5 782.01,-177.5"/>
</g>
<!-- CompactLayoutComponent  -->
<g id="node13" class="node">
<title>CompactLayoutComponent </title>
<polygon fill="#fb8072" stroke="black" points="784.54,-252 609.46,-252 609.46,-216 784.54,-216 784.54,-252"/>
<text text-anchor="middle" x="697" y="-229.8" font-family="Times,serif" font-size="14.00">CompactLayoutComponent </text>
</g>
<!-- CompactLayoutModule&#45;&gt;CompactLayoutComponent  -->
<g id="edge12" class="edge">
<title>CompactLayoutModule&#45;&gt;CompactLayoutComponent </title>
<path fill="none" stroke="black" stroke-dasharray="5,2" d="M697,-187.11C697,-187.11 697,-205.99 697,-205.99"/>
<polygon fill="black" stroke="black" points="693.5,-205.99 697,-215.99 700.5,-205.99 693.5,-205.99"/>
</g>
<!-- FuseFullscreenModule -->
<g id="node3" class="node">
<title>FuseFullscreenModule</title>
<polygon fill="#8dd3c7" stroke="black" points="1392.3,-122 1389.3,-126 1368.3,-126 1365.3,-122 1247.7,-122 1247.7,-86 1392.3,-86 1392.3,-122"/>
<text text-anchor="middle" x="1320" y="-99.8" font-family="Times,serif" font-size="14.00">FuseFullscreenModule</text>
</g>
<!-- FuseFullscreenModule&#45;&gt;CompactLayoutModule -->
<g id="edge2" class="edge">
<title>FuseFullscreenModule&#45;&gt;CompactLayoutModule</title>
<path fill="none" stroke="black" d="M1320,-122.28C1320,-143.32 1320,-175 1320,-175 1320,-175 781.84,-175 781.84,-175"/>
<polygon fill="black" stroke="black" points="781.84,-171.5 771.84,-175 781.84,-178.5 781.84,-171.5"/>
</g>
<!-- FuseLoadingBarModule -->
<g id="node4" class="node">
<title>FuseLoadingBarModule</title>
<polygon fill="#8dd3c7" stroke="black" points="1229.36,-122 1226.36,-126 1205.36,-126 1202.36,-122 1076.64,-122 1076.64,-86 1229.36,-86 1229.36,-122"/>
<text text-anchor="middle" x="1153" y="-99.8" font-family="Times,serif" font-size="14.00">FuseLoadingBarModule</text>
</g>
<!-- FuseLoadingBarModule&#45;&gt;CompactLayoutModule -->
<g id="edge3" class="edge">
<title>FuseLoadingBarModule&#45;&gt;CompactLayoutModule</title>
<path fill="none" stroke="black" d="M1153,-122.11C1153,-141.34 1153,-169 1153,-169 1153,-169 781.79,-169 781.79,-169"/>
<polygon fill="black" stroke="black" points="781.79,-165.5 771.79,-169 781.79,-172.5 781.79,-165.5"/>
</g>
<!-- FuseNavigationModule -->
<g id="node5" class="node">
<title>FuseNavigationModule</title>
<polygon fill="#8dd3c7" stroke="black" points="1058.2,-122 1055.2,-126 1034.2,-126 1031.2,-122 909.8,-122 909.8,-86 1058.2,-86 1058.2,-122"/>
<text text-anchor="middle" x="984" y="-99.8" font-family="Times,serif" font-size="14.00">FuseNavigationModule</text>
</g>
<!-- FuseNavigationModule&#45;&gt;CompactLayoutModule -->
<g id="edge4" class="edge">
<title>FuseNavigationModule&#45;&gt;CompactLayoutModule</title>
<path fill="none" stroke="black" d="M984,-122.02C984,-139.37 984,-163 984,-163 984,-163 782.03,-163 782.03,-163"/>
<polygon fill="black" stroke="black" points="782.03,-159.5 772.03,-163 782.03,-166.5 782.03,-159.5"/>
</g>
<!-- LanguagesModule -->
<g id="node6" class="node">
<title>LanguagesModule</title>
<polygon fill="#8dd3c7" stroke="black" points="892.19,-122 889.19,-126 868.19,-126 865.19,-122 771.81,-122 771.81,-86 892.19,-86 892.19,-122"/>
<text text-anchor="middle" x="832" y="-99.8" font-family="Times,serif" font-size="14.00">LanguagesModule</text>
</g>
<!-- LanguagesModule&#45;&gt;CompactLayoutModule -->
<g id="edge5" class="edge">
<title>LanguagesModule&#45;&gt;CompactLayoutModule</title>
<path fill="none" stroke="black" d="M778.21,-122.24C778.21,-137.57 778.21,-157 778.21,-157 778.21,-157 777.57,-157 777.57,-157"/>
<polygon fill="black" stroke="black" points="781.84,-153.5 771.84,-157 781.84,-160.5 781.84,-153.5"/>
</g>
<!-- MessagesModule -->
<g id="node7" class="node">
<title>MessagesModule</title>
<polygon fill="#8dd3c7" stroke="black" points="753.97,-122 750.97,-126 729.97,-126 726.97,-122 640.03,-122 640.03,-86 753.97,-86 753.97,-122"/>
<text text-anchor="middle" x="697" y="-99.8" font-family="Times,serif" font-size="14.00">MessagesModule</text>
</g>
<!-- MessagesModule&#45;&gt;CompactLayoutModule -->
<g id="edge6" class="edge">
<title>MessagesModule&#45;&gt;CompactLayoutModule</title>
<path fill="none" stroke="black" d="M697,-122.11C697,-122.11 697,-140.99 697,-140.99"/>
<polygon fill="black" stroke="black" points="693.5,-140.99 697,-150.99 700.5,-140.99 693.5,-140.99"/>
</g>
<!-- NotificationsModule -->
<g id="node8" class="node">
<title>NotificationsModule</title>
<polygon fill="#8dd3c7" stroke="black" points="622.14,-122 619.14,-126 598.14,-126 595.14,-122 489.86,-122 489.86,-86 622.14,-86 622.14,-122"/>
<text text-anchor="middle" x="556" y="-99.8" font-family="Times,serif" font-size="14.00">NotificationsModule</text>
</g>
<!-- NotificationsModule&#45;&gt;CompactLayoutModule -->
<g id="edge7" class="edge">
<title>NotificationsModule&#45;&gt;CompactLayoutModule</title>
<path fill="none" stroke="black" d="M615.8,-122.25C615.8,-145.02 615.8,-181 615.8,-181 615.8,-181 616.44,-181 616.44,-181"/>
<polygon fill="black" stroke="black" points="612.17,-184.5 622.17,-181 612.17,-177.5 612.17,-184.5"/>
</g>
<!-- SearchModule -->
<g id="node9" class="node">
<title>SearchModule</title>
<polygon fill="#8dd3c7" stroke="black" points="471.64,-122 468.64,-126 447.64,-126 444.64,-122 374.36,-122 374.36,-86 471.64,-86 471.64,-122"/>
<text text-anchor="middle" x="423" y="-99.8" font-family="Times,serif" font-size="14.00">SearchModule</text>
</g>
<!-- SearchModule&#45;&gt;CompactLayoutModule -->
<g id="edge8" class="edge">
<title>SearchModule&#45;&gt;CompactLayoutModule</title>
<path fill="none" stroke="black" d="M423,-122.24C423,-137.57 423,-157 423,-157 423,-157 612.13,-157 612.13,-157"/>
<polygon fill="black" stroke="black" points="612.13,-160.5 622.13,-157 612.13,-153.5 612.13,-160.5"/>
</g>
<!-- SharedModule -->
<g id="node10" class="node">
<title>SharedModule</title>
<polygon fill="#8dd3c7" stroke="black" points="356.42,-122 353.42,-126 332.42,-126 329.42,-122 257.58,-122 257.58,-86 356.42,-86 356.42,-122"/>
<text text-anchor="middle" x="307" y="-99.8" font-family="Times,serif" font-size="14.00">SharedModule</text>
</g>
<!-- SharedModule&#45;&gt;CompactLayoutModule -->
<g id="edge9" class="edge">
<title>SharedModule&#45;&gt;CompactLayoutModule</title>
<path fill="none" stroke="black" d="M307,-122.02C307,-139.37 307,-163 307,-163 307,-163 611.8,-163 611.8,-163"/>
<polygon fill="black" stroke="black" points="611.8,-166.5 621.8,-163 611.8,-159.5 611.8,-166.5"/>
</g>
<!-- ShortcutsModule -->
<g id="node11" class="node">
<title>ShortcutsModule</title>
<polygon fill="#8dd3c7" stroke="black" points="240.43,-122 237.43,-126 216.43,-126 213.43,-122 127.57,-122 127.57,-86 240.43,-86 240.43,-122"/>
<text text-anchor="middle" x="184" y="-99.8" font-family="Times,serif" font-size="14.00">ShortcutsModule</text>
</g>
<!-- ShortcutsModule&#45;&gt;CompactLayoutModule -->
<g id="edge10" class="edge">
<title>ShortcutsModule&#45;&gt;CompactLayoutModule</title>
<path fill="none" stroke="black" d="M184,-122.11C184,-141.34 184,-169 184,-169 184,-169 612.13,-169 612.13,-169"/>
<polygon fill="black" stroke="black" points="612.13,-172.5 622.13,-169 612.13,-165.5 612.13,-172.5"/>
</g>
<!-- UserModule -->
<g id="node12" class="node">
<title>UserModule</title>
<polygon fill="#8dd3c7" stroke="black" points="109.98,-122 106.98,-126 85.98,-126 82.98,-122 24.02,-122 24.02,-86 109.98,-86 109.98,-122"/>
<text text-anchor="middle" x="67" y="-99.8" font-family="Times,serif" font-size="14.00">UserModule</text>
</g>
<!-- UserModule&#45;&gt;CompactLayoutModule -->
<g id="edge11" class="edge">
<title>UserModule&#45;&gt;CompactLayoutModule</title>
<path fill="none" stroke="black" d="M67,-122.28C67,-143.32 67,-175 67,-175 67,-175 611.95,-175 611.95,-175"/>
<polygon fill="black" stroke="black" points="611.95,-178.5 621.95,-175 611.95,-171.5 611.95,-178.5"/>
</g>
</g>
</svg>
