<?xml version="1.0" encoding="UTF-8" standalone="no"?>
<!DOCTYPE svg PUBLIC "-//W3C//DTD SVG 1.1//EN"
 "http://www.w3.org/Graphics/SVG/1.1/DTD/svg11.dtd">
<!-- Generated by graphviz version 2.47.0 (20210316.0004)
 -->
<!-- Title: dependencies Pages: 1 -->
<svg width="594pt" height="211pt"
 viewBox="0.00 0.00 594.00 211.00" xmlns="http://www.w3.org/2000/svg" xmlns:xlink="http://www.w3.org/1999/xlink">
<g id="graph0" class="graph" transform="scale(1 1) rotate(0) translate(4 207)">
<title>dependencies</title>
<polygon fill="white" stroke="transparent" points="-4,4 -4,-207 590,-207 590,4 -4,4"/>
<text text-anchor="start" x="272.01" y="-42.4" font-family="Times-12" font-weight="bold" font-size="14.00">Legend</text>
<polygon fill="#ffffb3" stroke="transparent" points="59,-10 59,-30 79,-30 79,-10 59,-10"/>
<text text-anchor="start" x="82.63" y="-15.4" font-family="Times-12" font-size="14.00"> &#160;Declarations</text>
<polygon fill="#8dd3c7" stroke="transparent" points="172,-10 172,-30 192,-30 192,-10 172,-10"/>
<text text-anchor="start" x="195.73" y="-15.4" font-family="Times-12" font-size="14.00"> &#160;Module</text>
<polygon fill="#80b1d3" stroke="transparent" points="258,-10 258,-30 278,-30 278,-10 258,-10"/>
<text text-anchor="start" x="281.78" y="-15.4" font-family="Times-12" font-size="14.00"> &#160;Bootstrap</text>
<polygon fill="#fdb462" stroke="transparent" points="355,-10 355,-30 375,-30 375,-10 355,-10"/>
<text text-anchor="start" x="378.67" y="-15.4" font-family="Times-12" font-size="14.00"> &#160;Providers</text>
<polygon fill="#fb8072" stroke="transparent" points="451,-10 451,-30 471,-30 471,-10 451,-10"/>
<text text-anchor="start" x="474.73" y="-15.4" font-family="Times-12" font-size="14.00"> &#160;Exports</text>
<g id="clust1" class="cluster">
<title>cluster_AuthSignUpModule</title>
<polygon fill="none" stroke="black" stroke-dasharray="1,5" points="8,-70 8,-195 578,-195 578,-70 8,-70"/>
</g>
<g id="clust4" class="cluster">
<title>cluster_AuthSignUpModule_imports</title>
<polygon fill="none" stroke="black" points="192,-78 192,-130 570,-130 570,-78 192,-78"/>
</g>
<g id="clust2" class="cluster">
<title>cluster_AuthSignUpModule_declarations</title>
<polygon fill="none" stroke="black" points="16,-78 16,-130 184,-130 184,-78 16,-78"/>
</g>
<!-- AuthSignUpComponent -->
<g id="node1" class="node">
<title>AuthSignUpComponent</title>
<polygon fill="#ffffb3" stroke="black" points="176.11,-122 23.89,-122 23.89,-86 176.11,-86 176.11,-122"/>
<text text-anchor="middle" x="100" y="-99.8" font-family="Times,serif" font-size="14.00">AuthSignUpComponent</text>
</g>
<!-- AuthSignUpModule -->
<g id="node2" class="node">
<title>AuthSignUpModule</title>
<polygon fill="#8dd3c7" stroke="black" points="376.33,-187 373.33,-191 352.33,-191 349.33,-187 245.67,-187 245.67,-151 376.33,-151 376.33,-187"/>
<text text-anchor="middle" x="311" y="-164.8" font-family="Times,serif" font-size="14.00">AuthSignUpModule</text>
</g>
<!-- AuthSignUpComponent&#45;&gt;AuthSignUpModule -->
<g id="edge1" class="edge">
<title>AuthSignUpComponent&#45;&gt;AuthSignUpModule</title>
<path fill="none" stroke="black" d="M100,-122.11C100,-141.34 100,-169 100,-169 100,-169 235.68,-169 235.68,-169"/>
<polygon fill="black" stroke="black" points="235.68,-172.5 245.68,-169 235.68,-165.5 235.68,-172.5"/>
</g>
<!-- FuseAlertModule -->
<g id="node3" class="node">
<title>FuseAlertModule</title>
<polygon fill="#8dd3c7" stroke="black" points="562.25,-122 559.25,-126 538.25,-126 535.25,-122 447.75,-122 447.75,-86 562.25,-86 562.25,-122"/>
<text text-anchor="middle" x="505" y="-99.8" font-family="Times,serif" font-size="14.00">FuseAlertModule</text>
</g>
<!-- FuseAlertModule&#45;&gt;AuthSignUpModule -->
<g id="edge2" class="edge">
<title>FuseAlertModule&#45;&gt;AuthSignUpModule</title>
<path fill="none" stroke="black" d="M505,-122.11C505,-141.34 505,-169 505,-169 505,-169 386.41,-169 386.41,-169"/>
<polygon fill="black" stroke="black" points="386.41,-165.5 376.41,-169 386.41,-172.5 386.41,-165.5"/>
</g>
<!-- FuseCardModule -->
<g id="node4" class="node">
<title>FuseCardModule</title>
<polygon fill="#8dd3c7" stroke="black" points="429.7,-122 426.7,-126 405.7,-126 402.7,-122 316.3,-122 316.3,-86 429.7,-86 429.7,-122"/>
<text text-anchor="middle" x="373" y="-99.8" font-family="Times,serif" font-size="14.00">FuseCardModule</text>
</g>
<!-- FuseCardModule&#45;&gt;AuthSignUpModule -->
<g id="edge3" class="edge">
<title>FuseCardModule&#45;&gt;AuthSignUpModule</title>
<path fill="none" stroke="black" d="M346.28,-122.11C346.28,-122.11 346.28,-140.99 346.28,-140.99"/>
<polygon fill="black" stroke="black" points="342.78,-140.99 346.28,-150.99 349.78,-140.99 342.78,-140.99"/>
</g>
<!-- SharedModule -->
<g id="node5" class="node">
<title>SharedModule</title>
<polygon fill="#8dd3c7" stroke="black" points="298.42,-122 295.42,-126 274.42,-126 271.42,-122 199.58,-122 199.58,-86 298.42,-86 298.42,-122"/>
<text text-anchor="middle" x="249" y="-99.8" font-family="Times,serif" font-size="14.00">SharedModule</text>
</g>
<!-- SharedModule&#45;&gt;AuthSignUpModule -->
<g id="edge4" class="edge">
<title>SharedModule&#45;&gt;AuthSignUpModule</title>
<path fill="none" stroke="black" d="M272.02,-122.11C272.02,-122.11 272.02,-140.99 272.02,-140.99"/>
<polygon fill="black" stroke="black" points="268.52,-140.99 272.02,-150.99 275.52,-140.99 268.52,-140.99"/>
</g>
</g>
</svg>
