<?xml version="1.0" encoding="UTF-8" standalone="no"?>
<!DOCTYPE svg PUBLIC "-//W3C//DTD SVG 1.1//EN"
 "http://www.w3.org/Graphics/SVG/1.1/DTD/svg11.dtd">
<!-- Generated by graphviz version 2.47.0 (20210316.0004)
 -->
<!-- Title: dependencies Pages: 1 -->
<svg width="1596pt" height="284pt"
 viewBox="0.00 0.00 1596.00 284.00" xmlns="http://www.w3.org/2000/svg" xmlns:xlink="http://www.w3.org/1999/xlink">
<g id="graph0" class="graph" transform="scale(1 1) rotate(0) translate(4 280)">
<title>dependencies</title>
<polygon fill="white" stroke="transparent" points="-4,4 -4,-280 1592,-280 1592,4 -4,4"/>
<text text-anchor="start" x="773.01" y="-42.4" font-family="Times-12" font-weight="bold" font-size="14.00">Legend</text>
<polygon fill="#ffffb3" stroke="transparent" points="560,-10 560,-30 580,-30 580,-10 560,-10"/>
<text text-anchor="start" x="583.63" y="-15.4" font-family="Times-12" font-size="14.00"> &#160;Declarations</text>
<polygon fill="#8dd3c7" stroke="transparent" points="673,-10 673,-30 693,-30 693,-10 673,-10"/>
<text text-anchor="start" x="696.73" y="-15.4" font-family="Times-12" font-size="14.00"> &#160;Module</text>
<polygon fill="#80b1d3" stroke="transparent" points="759,-10 759,-30 779,-30 779,-10 759,-10"/>
<text text-anchor="start" x="782.78" y="-15.4" font-family="Times-12" font-size="14.00"> &#160;Bootstrap</text>
<polygon fill="#fdb462" stroke="transparent" points="856,-10 856,-30 876,-30 876,-10 856,-10"/>
<text text-anchor="start" x="879.67" y="-15.4" font-family="Times-12" font-size="14.00"> &#160;Providers</text>
<polygon fill="#fb8072" stroke="transparent" points="952,-10 952,-30 972,-30 972,-10 952,-10"/>
<text text-anchor="start" x="975.73" y="-15.4" font-family="Times-12" font-size="14.00"> &#160;Exports</text>
<g id="clust1" class="cluster">
<title>cluster_ThinLayoutModule</title>
<polygon fill="none" stroke="black" stroke-dasharray="1,5" points="8,-70 8,-268 1580,-268 1580,-70 8,-70"/>
</g>
<g id="clust5" class="cluster">
<title>cluster_ThinLayoutModule_exports</title>
<polygon fill="none" stroke="black" points="645,-208 645,-260 811,-260 811,-208 645,-208"/>
</g>
<g id="clust4" class="cluster">
<title>cluster_ThinLayoutModule_imports</title>
<polygon fill="none" stroke="black" points="188,-78 188,-130 1572,-130 1572,-78 188,-78"/>
</g>
<g id="clust2" class="cluster">
<title>cluster_ThinLayoutModule_declarations</title>
<polygon fill="none" stroke="black" points="16,-78 16,-130 180,-130 180,-78 16,-78"/>
</g>
<!-- ThinLayoutComponent -->
<g id="node1" class="node">
<title>ThinLayoutComponent</title>
<polygon fill="#ffffb3" stroke="black" points="171.93,-122 24.07,-122 24.07,-86 171.93,-86 171.93,-122"/>
<text text-anchor="middle" x="98" y="-99.8" font-family="Times,serif" font-size="14.00">ThinLayoutComponent</text>
</g>
<!-- ThinLayoutModule -->
<g id="node2" class="node">
<title>ThinLayoutModule</title>
<polygon fill="#8dd3c7" stroke="black" points="790.65,-187 787.65,-191 766.65,-191 763.65,-187 665.35,-187 665.35,-151 790.65,-151 790.65,-187"/>
<text text-anchor="middle" x="728" y="-164.8" font-family="Times,serif" font-size="14.00">ThinLayoutModule</text>
</g>
<!-- ThinLayoutComponent&#45;&gt;ThinLayoutModule -->
<g id="edge1" class="edge">
<title>ThinLayoutComponent&#45;&gt;ThinLayoutModule</title>
<path fill="none" stroke="black" d="M98,-122.25C98,-145.02 98,-181 98,-181 98,-181 655.29,-181 655.29,-181"/>
<polygon fill="black" stroke="black" points="655.29,-184.5 665.29,-181 655.29,-177.5 655.29,-184.5"/>
</g>
<!-- ThinLayoutComponent  -->
<g id="node13" class="node">
<title>ThinLayoutComponent </title>
<polygon fill="#fb8072" stroke="black" points="803.43,-252 652.57,-252 652.57,-216 803.43,-216 803.43,-252"/>
<text text-anchor="middle" x="728" y="-229.8" font-family="Times,serif" font-size="14.00">ThinLayoutComponent </text>
</g>
<!-- ThinLayoutModule&#45;&gt;ThinLayoutComponent  -->
<g id="edge12" class="edge">
<title>ThinLayoutModule&#45;&gt;ThinLayoutComponent </title>
<path fill="none" stroke="black" stroke-dasharray="5,2" d="M728,-187.11C728,-187.11 728,-205.99 728,-205.99"/>
<polygon fill="black" stroke="black" points="724.5,-205.99 728,-215.99 731.5,-205.99 724.5,-205.99"/>
</g>
<!-- FuseFullscreenModule -->
<g id="node3" class="node">
<title>FuseFullscreenModule</title>
<polygon fill="#8dd3c7" stroke="black" points="1564.3,-122 1561.3,-126 1540.3,-126 1537.3,-122 1419.7,-122 1419.7,-86 1564.3,-86 1564.3,-122"/>
<text text-anchor="middle" x="1492" y="-99.8" font-family="Times,serif" font-size="14.00">FuseFullscreenModule</text>
</g>
<!-- FuseFullscreenModule&#45;&gt;ThinLayoutModule -->
<g id="edge2" class="edge">
<title>FuseFullscreenModule&#45;&gt;ThinLayoutModule</title>
<path fill="none" stroke="black" d="M1492,-122.25C1492,-145.02 1492,-181 1492,-181 1492,-181 800.85,-181 800.85,-181"/>
<polygon fill="black" stroke="black" points="800.85,-177.5 790.85,-181 800.85,-184.5 800.85,-177.5"/>
</g>
<!-- FuseLoadingBarModule -->
<g id="node4" class="node">
<title>FuseLoadingBarModule</title>
<polygon fill="#8dd3c7" stroke="black" points="1401.36,-122 1398.36,-126 1377.36,-126 1374.36,-122 1248.64,-122 1248.64,-86 1401.36,-86 1401.36,-122"/>
<text text-anchor="middle" x="1325" y="-99.8" font-family="Times,serif" font-size="14.00">FuseLoadingBarModule</text>
</g>
<!-- FuseLoadingBarModule&#45;&gt;ThinLayoutModule -->
<g id="edge3" class="edge">
<title>FuseLoadingBarModule&#45;&gt;ThinLayoutModule</title>
<path fill="none" stroke="black" d="M1325,-122.28C1325,-143.32 1325,-175 1325,-175 1325,-175 800.76,-175 800.76,-175"/>
<polygon fill="black" stroke="black" points="800.76,-171.5 790.76,-175 800.76,-178.5 800.76,-171.5"/>
</g>
<!-- FuseNavigationModule -->
<g id="node5" class="node">
<title>FuseNavigationModule</title>
<polygon fill="#8dd3c7" stroke="black" points="1230.2,-122 1227.2,-126 1206.2,-126 1203.2,-122 1081.8,-122 1081.8,-86 1230.2,-86 1230.2,-122"/>
<text text-anchor="middle" x="1156" y="-99.8" font-family="Times,serif" font-size="14.00">FuseNavigationModule</text>
</g>
<!-- FuseNavigationModule&#45;&gt;ThinLayoutModule -->
<g id="edge4" class="edge">
<title>FuseNavigationModule&#45;&gt;ThinLayoutModule</title>
<path fill="none" stroke="black" d="M1156,-122.11C1156,-141.34 1156,-169 1156,-169 1156,-169 800.69,-169 800.69,-169"/>
<polygon fill="black" stroke="black" points="800.69,-165.5 790.69,-169 800.69,-172.5 800.69,-165.5"/>
</g>
<!-- LanguagesModule -->
<g id="node6" class="node">
<title>LanguagesModule</title>
<polygon fill="#8dd3c7" stroke="black" points="1064.19,-122 1061.19,-126 1040.19,-126 1037.19,-122 943.81,-122 943.81,-86 1064.19,-86 1064.19,-122"/>
<text text-anchor="middle" x="1004" y="-99.8" font-family="Times,serif" font-size="14.00">LanguagesModule</text>
</g>
<!-- LanguagesModule&#45;&gt;ThinLayoutModule -->
<g id="edge5" class="edge">
<title>LanguagesModule&#45;&gt;ThinLayoutModule</title>
<path fill="none" stroke="black" d="M1004,-122.02C1004,-139.37 1004,-163 1004,-163 1004,-163 800.97,-163 800.97,-163"/>
<polygon fill="black" stroke="black" points="800.97,-159.5 790.97,-163 800.97,-166.5 800.97,-159.5"/>
</g>
<!-- MessagesModule -->
<g id="node7" class="node">
<title>MessagesModule</title>
<polygon fill="#8dd3c7" stroke="black" points="925.97,-122 922.97,-126 901.97,-126 898.97,-122 812.03,-122 812.03,-86 925.97,-86 925.97,-122"/>
<text text-anchor="middle" x="869" y="-99.8" font-family="Times,serif" font-size="14.00">MessagesModule</text>
</g>
<!-- MessagesModule&#45;&gt;ThinLayoutModule -->
<g id="edge6" class="edge">
<title>MessagesModule&#45;&gt;ThinLayoutModule</title>
<path fill="none" stroke="black" d="M869,-122.24C869,-137.57 869,-157 869,-157 869,-157 800.67,-157 800.67,-157"/>
<polygon fill="black" stroke="black" points="800.67,-153.5 790.67,-157 800.67,-160.5 800.67,-153.5"/>
</g>
<!-- NotificationsModule -->
<g id="node8" class="node">
<title>NotificationsModule</title>
<polygon fill="#8dd3c7" stroke="black" points="794.14,-122 791.14,-126 770.14,-126 767.14,-122 661.86,-122 661.86,-86 794.14,-86 794.14,-122"/>
<text text-anchor="middle" x="728" y="-99.8" font-family="Times,serif" font-size="14.00">NotificationsModule</text>
</g>
<!-- NotificationsModule&#45;&gt;ThinLayoutModule -->
<g id="edge7" class="edge">
<title>NotificationsModule&#45;&gt;ThinLayoutModule</title>
<path fill="none" stroke="black" d="M728,-122.11C728,-122.11 728,-140.99 728,-140.99"/>
<polygon fill="black" stroke="black" points="724.5,-140.99 728,-150.99 731.5,-140.99 724.5,-140.99"/>
</g>
<!-- SearchModule -->
<g id="node9" class="node">
<title>SearchModule</title>
<polygon fill="#8dd3c7" stroke="black" points="643.64,-122 640.64,-126 619.64,-126 616.64,-122 546.36,-122 546.36,-86 643.64,-86 643.64,-122"/>
<text text-anchor="middle" x="595" y="-99.8" font-family="Times,serif" font-size="14.00">SearchModule</text>
</g>
<!-- SearchModule&#45;&gt;ThinLayoutModule -->
<g id="edge8" class="edge">
<title>SearchModule&#45;&gt;ThinLayoutModule</title>
<path fill="none" stroke="black" d="M595,-122.24C595,-137.57 595,-157 595,-157 595,-157 655.01,-157 655.01,-157"/>
<polygon fill="black" stroke="black" points="655.01,-160.5 665.01,-157 655.01,-153.5 655.01,-160.5"/>
</g>
<!-- SharedModule -->
<g id="node10" class="node">
<title>SharedModule</title>
<polygon fill="#8dd3c7" stroke="black" points="528.42,-122 525.42,-126 504.42,-126 501.42,-122 429.58,-122 429.58,-86 528.42,-86 528.42,-122"/>
<text text-anchor="middle" x="479" y="-99.8" font-family="Times,serif" font-size="14.00">SharedModule</text>
</g>
<!-- SharedModule&#45;&gt;ThinLayoutModule -->
<g id="edge9" class="edge">
<title>SharedModule&#45;&gt;ThinLayoutModule</title>
<path fill="none" stroke="black" d="M479,-122.02C479,-139.37 479,-163 479,-163 479,-163 655.17,-163 655.17,-163"/>
<polygon fill="black" stroke="black" points="655.17,-166.5 665.17,-163 655.17,-159.5 655.17,-166.5"/>
</g>
<!-- ShortcutsModule -->
<g id="node11" class="node">
<title>ShortcutsModule</title>
<polygon fill="#8dd3c7" stroke="black" points="412.43,-122 409.43,-126 388.43,-126 385.43,-122 299.57,-122 299.57,-86 412.43,-86 412.43,-122"/>
<text text-anchor="middle" x="356" y="-99.8" font-family="Times,serif" font-size="14.00">ShortcutsModule</text>
</g>
<!-- ShortcutsModule&#45;&gt;ThinLayoutModule -->
<g id="edge10" class="edge">
<title>ShortcutsModule&#45;&gt;ThinLayoutModule</title>
<path fill="none" stroke="black" d="M356,-122.11C356,-141.34 356,-169 356,-169 356,-169 655.32,-169 655.32,-169"/>
<polygon fill="black" stroke="black" points="655.32,-172.5 665.32,-169 655.32,-165.5 655.32,-172.5"/>
</g>
<!-- UserModule -->
<g id="node12" class="node">
<title>UserModule</title>
<polygon fill="#8dd3c7" stroke="black" points="281.98,-122 278.98,-126 257.98,-126 254.98,-122 196.02,-122 196.02,-86 281.98,-86 281.98,-122"/>
<text text-anchor="middle" x="239" y="-99.8" font-family="Times,serif" font-size="14.00">UserModule</text>
</g>
<!-- UserModule&#45;&gt;ThinLayoutModule -->
<g id="edge11" class="edge">
<title>UserModule&#45;&gt;ThinLayoutModule</title>
<path fill="none" stroke="black" d="M239,-122.28C239,-143.32 239,-175 239,-175 239,-175 655.07,-175 655.07,-175"/>
<polygon fill="black" stroke="black" points="655.07,-178.5 665.07,-175 655.07,-171.5 655.07,-178.5"/>
</g>
</g>
</svg>
