<?xml version="1.0" encoding="UTF-8" standalone="no"?>
<!DOCTYPE svg PUBLIC "-//W3C//DTD SVG 1.1//EN"
 "http://www.w3.org/Graphics/SVG/1.1/DTD/svg11.dtd">
<!-- Generated by graphviz version 2.47.0 (20210316.0004)
 -->
<!-- Title: dependencies Pages: 1 -->
<svg width="504pt" height="284pt"
 viewBox="0.00 0.00 504.00 284.00" xmlns="http://www.w3.org/2000/svg" xmlns:xlink="http://www.w3.org/1999/xlink">
<g id="graph0" class="graph" transform="scale(1 1) rotate(0) translate(4 280)">
<title>dependencies</title>
<polygon fill="white" stroke="transparent" points="-4,4 -4,-280 500,-280 500,4 -4,4"/>
<text text-anchor="start" x="227.01" y="-42.4" font-family="Times-12" font-weight="bold" font-size="14.00">Legend</text>
<polygon fill="#ffffb3" stroke="transparent" points="14,-10 14,-30 34,-30 34,-10 14,-10"/>
<text text-anchor="start" x="37.63" y="-15.4" font-family="Times-12" font-size="14.00"> &#160;Declarations</text>
<polygon fill="#8dd3c7" stroke="transparent" points="127,-10 127,-30 147,-30 147,-10 127,-10"/>
<text text-anchor="start" x="150.73" y="-15.4" font-family="Times-12" font-size="14.00"> &#160;Module</text>
<polygon fill="#80b1d3" stroke="transparent" points="213,-10 213,-30 233,-30 233,-10 213,-10"/>
<text text-anchor="start" x="236.78" y="-15.4" font-family="Times-12" font-size="14.00"> &#160;Bootstrap</text>
<polygon fill="#fdb462" stroke="transparent" points="310,-10 310,-30 330,-30 330,-10 310,-10"/>
<text text-anchor="start" x="333.67" y="-15.4" font-family="Times-12" font-size="14.00"> &#160;Providers</text>
<polygon fill="#fb8072" stroke="transparent" points="406,-10 406,-30 426,-30 426,-10 406,-10"/>
<text text-anchor="start" x="429.73" y="-15.4" font-family="Times-12" font-size="14.00"> &#160;Exports</text>
<g id="clust1" class="cluster">
<title>cluster_UiTabPdfViewerModule</title>
<polygon fill="none" stroke="black" stroke-dasharray="1,5" points="55,-70 55,-268 441,-268 441,-70 55,-70"/>
</g>
<g id="clust2" class="cluster">
<title>cluster_UiTabPdfViewerModule_declarations</title>
<polygon fill="none" stroke="black" points="253,-78 253,-130 433,-130 433,-78 253,-78"/>
</g>
<g id="clust7" class="cluster">
<title>cluster_UiTabPdfViewerModule_providers</title>
<polygon fill="none" stroke="black" points="63,-78 63,-130 245,-130 245,-78 63,-78"/>
</g>
<g id="clust5" class="cluster">
<title>cluster_UiTabPdfViewerModule_exports</title>
<polygon fill="none" stroke="black" points="156,-208 156,-260 340,-260 340,-208 156,-208"/>
</g>
<!-- TabPdfViewerComponent -->
<g id="node1" class="node">
<title>TabPdfViewerComponent</title>
<polygon fill="#ffffb3" stroke="black" points="424.74,-122 261.26,-122 261.26,-86 424.74,-86 424.74,-122"/>
<text text-anchor="middle" x="343" y="-99.8" font-family="Times,serif" font-size="14.00">TabPdfViewerComponent</text>
</g>
<!-- UiTabPdfViewerModule -->
<g id="node2" class="node">
<title>UiTabPdfViewerModule</title>
<polygon fill="#8dd3c7" stroke="black" points="325.95,-187 322.95,-191 301.95,-191 298.95,-187 170.05,-187 170.05,-151 325.95,-151 325.95,-187"/>
<text text-anchor="middle" x="248" y="-164.8" font-family="Times,serif" font-size="14.00">UiTabPdfViewerModule</text>
</g>
<!-- TabPdfViewerComponent&#45;&gt;UiTabPdfViewerModule -->
<g id="edge1" class="edge">
<title>TabPdfViewerComponent&#45;&gt;UiTabPdfViewerModule</title>
<path fill="none" stroke="black" d="M293.55,-122.11C293.55,-122.11 293.55,-140.99 293.55,-140.99"/>
<polygon fill="black" stroke="black" points="290.05,-140.99 293.55,-150.99 297.05,-140.99 290.05,-140.99"/>
</g>
<!-- TabPdfViewerComponent  -->
<g id="node3" class="node">
<title>TabPdfViewerComponent </title>
<polygon fill="#fb8072" stroke="black" points="331.74,-252 164.26,-252 164.26,-216 331.74,-216 331.74,-252"/>
<text text-anchor="middle" x="248" y="-229.8" font-family="Times,serif" font-size="14.00">TabPdfViewerComponent </text>
</g>
<!-- UiTabPdfViewerModule&#45;&gt;TabPdfViewerComponent  -->
<g id="edge2" class="edge">
<title>UiTabPdfViewerModule&#45;&gt;TabPdfViewerComponent </title>
<path fill="none" stroke="black" stroke-dasharray="5,2" d="M248,-187.11C248,-187.11 248,-205.99 248,-205.99"/>
<polygon fill="black" stroke="black" points="244.5,-205.99 248,-215.99 251.5,-205.99 244.5,-205.99"/>
</g>
<!-- NavigationService -->
<g id="node4" class="node">
<title>NavigationService</title>
<ellipse fill="#fdb462" stroke="black" cx="154" cy="-104" rx="82.8" ry="18"/>
<text text-anchor="middle" x="154" y="-99.8" font-family="Times,serif" font-size="14.00">NavigationService</text>
</g>
<!-- NavigationService&#45;&gt;UiTabPdfViewerModule -->
<g id="edge3" class="edge">
<title>NavigationService&#45;&gt;UiTabPdfViewerModule</title>
<path fill="none" stroke="black" d="M203.46,-118.75C203.46,-118.75 203.46,-140.59 203.46,-140.59"/>
<polygon fill="black" stroke="black" points="199.96,-140.59 203.46,-150.59 206.96,-140.59 199.96,-140.59"/>
</g>
</g>
</svg>
