<?xml version="1.0" encoding="UTF-8" standalone="no"?>
<!DOCTYPE svg PUBLIC "-//W3C//DTD SVG 1.1//EN"
 "http://www.w3.org/Graphics/SVG/1.1/DTD/svg11.dtd">
<!-- Generated by graphviz version 2.47.0 (20210316.0004)
 -->
<!-- Title: dependencies Pages: 1 -->
<svg width="652pt" height="284pt"
 viewBox="0.00 0.00 652.00 284.00" xmlns="http://www.w3.org/2000/svg" xmlns:xlink="http://www.w3.org/1999/xlink">
<g id="graph0" class="graph" transform="scale(1 1) rotate(0) translate(4 280)">
<title>dependencies</title>
<polygon fill="white" stroke="transparent" points="-4,4 -4,-280 648,-280 648,4 -4,4"/>
<text text-anchor="start" x="301.01" y="-42.4" font-family="Times-12" font-weight="bold" font-size="14.00">Legend</text>
<polygon fill="#ffffb3" stroke="transparent" points="88,-10 88,-30 108,-30 108,-10 88,-10"/>
<text text-anchor="start" x="111.63" y="-15.4" font-family="Times-12" font-size="14.00"> &#160;Declarations</text>
<polygon fill="#8dd3c7" stroke="transparent" points="201,-10 201,-30 221,-30 221,-10 201,-10"/>
<text text-anchor="start" x="224.73" y="-15.4" font-family="Times-12" font-size="14.00"> &#160;Module</text>
<polygon fill="#80b1d3" stroke="transparent" points="287,-10 287,-30 307,-30 307,-10 287,-10"/>
<text text-anchor="start" x="310.78" y="-15.4" font-family="Times-12" font-size="14.00"> &#160;Bootstrap</text>
<polygon fill="#fdb462" stroke="transparent" points="384,-10 384,-30 404,-30 404,-10 384,-10"/>
<text text-anchor="start" x="407.67" y="-15.4" font-family="Times-12" font-size="14.00"> &#160;Providers</text>
<polygon fill="#fb8072" stroke="transparent" points="480,-10 480,-30 500,-30 500,-10 480,-10"/>
<text text-anchor="start" x="503.73" y="-15.4" font-family="Times-12" font-size="14.00"> &#160;Exports</text>
<g id="clust1" class="cluster">
<title>cluster_UiTabFormRendererModule</title>
<polygon fill="none" stroke="black" stroke-dasharray="1,5" points="8,-70 8,-268 636,-268 636,-70 8,-70"/>
</g>
<g id="clust7" class="cluster">
<title>cluster_UiTabFormRendererModule_exports</title>
<polygon fill="none" stroke="black" points="97,-208 97,-260 547,-260 547,-208 97,-208"/>
</g>
<g id="clust2" class="cluster">
<title>cluster_UiTabFormRendererModule_declarations</title>
<polygon fill="none" stroke="black" points="16,-78 16,-130 628,-130 628,-78 16,-78"/>
</g>
<!-- TabChildScreenRendererComponent -->
<g id="node1" class="node">
<title>TabChildScreenRendererComponent</title>
<polygon fill="#ffffb3" stroke="black" points="619.61,-122 396.39,-122 396.39,-86 619.61,-86 619.61,-122"/>
<text text-anchor="middle" x="508" y="-99.8" font-family="Times,serif" font-size="14.00">TabChildScreenRendererComponent</text>
</g>
<!-- UiTabFormRendererModule -->
<g id="node4" class="node">
<title>UiTabFormRendererModule</title>
<polygon fill="#8dd3c7" stroke="black" points="374.45,-187 371.45,-191 350.45,-191 347.45,-187 197.55,-187 197.55,-151 374.45,-151 374.45,-187"/>
<text text-anchor="middle" x="286" y="-164.8" font-family="Times,serif" font-size="14.00">UiTabFormRendererModule</text>
</g>
<!-- TabChildScreenRendererComponent&#45;&gt;UiTabFormRendererModule -->
<g id="edge1" class="edge">
<title>TabChildScreenRendererComponent&#45;&gt;UiTabFormRendererModule</title>
<path fill="none" stroke="black" d="M467.38,-122.11C467.38,-141.34 467.38,-169 467.38,-169 467.38,-169 384.56,-169 384.56,-169"/>
<polygon fill="black" stroke="black" points="384.56,-165.5 374.56,-169 384.56,-172.5 384.56,-165.5"/>
</g>
<!-- TabFormRendererComponent -->
<g id="node2" class="node">
<title>TabFormRendererComponent</title>
<polygon fill="#ffffb3" stroke="black" points="378.24,-122 193.76,-122 193.76,-86 378.24,-86 378.24,-122"/>
<text text-anchor="middle" x="286" y="-99.8" font-family="Times,serif" font-size="14.00">TabFormRendererComponent</text>
</g>
<!-- TabFormRendererComponent&#45;&gt;UiTabFormRendererModule -->
<g id="edge2" class="edge">
<title>TabFormRendererComponent&#45;&gt;UiTabFormRendererModule</title>
<path fill="none" stroke="black" d="M286,-122.11C286,-122.11 286,-140.99 286,-140.99"/>
<polygon fill="black" stroke="black" points="282.5,-140.99 286,-150.99 289.5,-140.99 282.5,-140.99"/>
</g>
<!-- TabSkeletonComponent -->
<g id="node3" class="node">
<title>TabSkeletonComponent</title>
<polygon fill="#ffffb3" stroke="black" points="176.09,-122 23.91,-122 23.91,-86 176.09,-86 176.09,-122"/>
<text text-anchor="middle" x="100" y="-99.8" font-family="Times,serif" font-size="14.00">TabSkeletonComponent</text>
</g>
<!-- TabSkeletonComponent&#45;&gt;UiTabFormRendererModule -->
<g id="edge3" class="edge">
<title>TabSkeletonComponent&#45;&gt;UiTabFormRendererModule</title>
<path fill="none" stroke="black" d="M140.46,-122.11C140.46,-141.34 140.46,-169 140.46,-169 140.46,-169 187.15,-169 187.15,-169"/>
<polygon fill="black" stroke="black" points="187.15,-172.5 197.15,-169 187.15,-165.5 187.15,-172.5"/>
</g>
<!-- TabChildScreenRendererComponent  -->
<g id="node5" class="node">
<title>TabChildScreenRendererComponent </title>
<polygon fill="#fb8072" stroke="black" points="538.61,-252 311.39,-252 311.39,-216 538.61,-216 538.61,-252"/>
<text text-anchor="middle" x="425" y="-229.8" font-family="Times,serif" font-size="14.00">TabChildScreenRendererComponent </text>
</g>
<!-- UiTabFormRendererModule&#45;&gt;TabChildScreenRendererComponent  -->
<g id="edge4" class="edge">
<title>UiTabFormRendererModule&#45;&gt;TabChildScreenRendererComponent </title>
<path fill="none" stroke="black" stroke-dasharray="5,2" d="M342.96,-187.11C342.96,-187.11 342.96,-205.99 342.96,-205.99"/>
<polygon fill="black" stroke="black" points="339.46,-205.99 342.96,-215.99 346.46,-205.99 339.46,-205.99"/>
</g>
<!-- TabFormRendererComponent  -->
<g id="node6" class="node">
<title>TabFormRendererComponent </title>
<polygon fill="#fb8072" stroke="black" points="293.24,-252 104.76,-252 104.76,-216 293.24,-216 293.24,-252"/>
<text text-anchor="middle" x="199" y="-229.8" font-family="Times,serif" font-size="14.00">TabFormRendererComponent </text>
</g>
<!-- UiTabFormRendererModule&#45;&gt;TabFormRendererComponent  -->
<g id="edge5" class="edge">
<title>UiTabFormRendererModule&#45;&gt;TabFormRendererComponent </title>
<path fill="none" stroke="black" stroke-dasharray="5,2" d="M245.32,-187.11C245.32,-187.11 245.32,-205.99 245.32,-205.99"/>
<polygon fill="black" stroke="black" points="241.82,-205.99 245.32,-215.99 248.82,-205.99 241.82,-205.99"/>
</g>
</g>
</svg>
