<?xml version="1.0" encoding="UTF-8" standalone="no"?>
<!DOCTYPE svg PUBLIC "-//W3C//DTD SVG 1.1//EN"
 "http://www.w3.org/Graphics/SVG/1.1/DTD/svg11.dtd">
<!-- Generated by graphviz version 2.47.0 (20210316.0004)
 -->
<!-- Title: dependencies Pages: 1 -->
<svg width="600pt" height="284pt"
 viewBox="0.00 0.00 600.00 284.00" xmlns="http://www.w3.org/2000/svg" xmlns:xlink="http://www.w3.org/1999/xlink">
<g id="graph0" class="graph" transform="scale(1 1) rotate(0) translate(4 280)">
<title>dependencies</title>
<polygon fill="white" stroke="transparent" points="-4,4 -4,-280 596,-280 596,4 -4,4"/>
<text text-anchor="start" x="275.01" y="-42.4" font-family="Times-12" font-weight="bold" font-size="14.00">Legend</text>
<polygon fill="#ffffb3" stroke="transparent" points="62,-10 62,-30 82,-30 82,-10 62,-10"/>
<text text-anchor="start" x="85.63" y="-15.4" font-family="Times-12" font-size="14.00"> &#160;Declarations</text>
<polygon fill="#8dd3c7" stroke="transparent" points="175,-10 175,-30 195,-30 195,-10 175,-10"/>
<text text-anchor="start" x="198.73" y="-15.4" font-family="Times-12" font-size="14.00"> &#160;Module</text>
<polygon fill="#80b1d3" stroke="transparent" points="261,-10 261,-30 281,-30 281,-10 261,-10"/>
<text text-anchor="start" x="284.78" y="-15.4" font-family="Times-12" font-size="14.00"> &#160;Bootstrap</text>
<polygon fill="#fdb462" stroke="transparent" points="358,-10 358,-30 378,-30 378,-10 358,-10"/>
<text text-anchor="start" x="381.67" y="-15.4" font-family="Times-12" font-size="14.00"> &#160;Providers</text>
<polygon fill="#fb8072" stroke="transparent" points="454,-10 454,-30 474,-30 474,-10 454,-10"/>
<text text-anchor="start" x="477.73" y="-15.4" font-family="Times-12" font-size="14.00"> &#160;Exports</text>
<g id="clust1" class="cluster">
<title>cluster_TabDynamicSidebarModule</title>
<polygon fill="none" stroke="black" stroke-dasharray="1,5" points="8,-70 8,-268 584,-268 584,-70 8,-70"/>
</g>
<g id="clust5" class="cluster">
<title>cluster_TabDynamicSidebarModule_exports</title>
<polygon fill="none" stroke="black" points="174,-208 174,-260 390,-260 390,-208 174,-208"/>
</g>
<g id="clust2" class="cluster">
<title>cluster_TabDynamicSidebarModule_declarations</title>
<polygon fill="none" stroke="black" points="362,-78 362,-130 576,-130 576,-78 362,-78"/>
</g>
<g id="clust4" class="cluster">
<title>cluster_TabDynamicSidebarModule_imports</title>
<polygon fill="none" stroke="black" points="16,-78 16,-130 354,-130 354,-78 16,-78"/>
</g>
<!-- TabDynamicSidebarComponent -->
<g id="node1" class="node">
<title>TabDynamicSidebarComponent</title>
<polygon fill="#ffffb3" stroke="black" points="567.68,-122 370.32,-122 370.32,-86 567.68,-86 567.68,-122"/>
<text text-anchor="middle" x="469" y="-99.8" font-family="Times,serif" font-size="14.00">TabDynamicSidebarComponent</text>
</g>
<!-- TabDynamicSidebarModule -->
<g id="node2" class="node">
<title>TabDynamicSidebarModule</title>
<polygon fill="#8dd3c7" stroke="black" points="369.9,-187 366.9,-191 345.9,-191 342.9,-187 194.1,-187 194.1,-151 369.9,-151 369.9,-187"/>
<text text-anchor="middle" x="282" y="-164.8" font-family="Times,serif" font-size="14.00">TabDynamicSidebarModule</text>
</g>
<!-- TabDynamicSidebarComponent&#45;&gt;TabDynamicSidebarModule -->
<g id="edge1" class="edge">
<title>TabDynamicSidebarComponent&#45;&gt;TabDynamicSidebarModule</title>
<path fill="none" stroke="black" d="M376.38,-122.11C376.38,-141.34 376.38,-169 376.38,-169 376.38,-169 375.73,-169 375.73,-169"/>
<polygon fill="black" stroke="black" points="379.89,-165.5 369.89,-169 379.89,-172.5 379.89,-165.5"/>
</g>
<!-- TabDynamicSidebarComponent  -->
<g id="node5" class="node">
<title>TabDynamicSidebarComponent </title>
<polygon fill="#fb8072" stroke="black" points="382.18,-252 181.82,-252 181.82,-216 382.18,-216 382.18,-252"/>
<text text-anchor="middle" x="282" y="-229.8" font-family="Times,serif" font-size="14.00">TabDynamicSidebarComponent </text>
</g>
<!-- TabDynamicSidebarModule&#45;&gt;TabDynamicSidebarComponent  -->
<g id="edge4" class="edge">
<title>TabDynamicSidebarModule&#45;&gt;TabDynamicSidebarComponent </title>
<path fill="none" stroke="black" stroke-dasharray="5,2" d="M282,-187.11C282,-187.11 282,-205.99 282,-205.99"/>
<polygon fill="black" stroke="black" points="278.5,-205.99 282,-215.99 285.5,-205.99 278.5,-205.99"/>
</g>
<!-- FuseDrawerModule -->
<g id="node3" class="node">
<title>FuseDrawerModule</title>
<polygon fill="#8dd3c7" stroke="black" points="345.96,-122 342.96,-126 321.96,-126 318.96,-122 218.04,-122 218.04,-86 345.96,-86 345.96,-122"/>
<text text-anchor="middle" x="282" y="-99.8" font-family="Times,serif" font-size="14.00">FuseDrawerModule</text>
</g>
<!-- FuseDrawerModule&#45;&gt;TabDynamicSidebarModule -->
<g id="edge2" class="edge">
<title>FuseDrawerModule&#45;&gt;TabDynamicSidebarModule</title>
<path fill="none" stroke="black" d="M282,-122.11C282,-122.11 282,-140.99 282,-140.99"/>
<polygon fill="black" stroke="black" points="278.5,-140.99 282,-150.99 285.5,-140.99 278.5,-140.99"/>
</g>
<!-- UiTabFormRendererModule -->
<g id="node4" class="node">
<title>UiTabFormRendererModule</title>
<polygon fill="#8dd3c7" stroke="black" points="200.45,-122 197.45,-126 176.45,-126 173.45,-122 23.55,-122 23.55,-86 200.45,-86 200.45,-122"/>
<text text-anchor="middle" x="112" y="-99.8" font-family="Times,serif" font-size="14.00">UiTabFormRendererModule</text>
</g>
<!-- UiTabFormRendererModule&#45;&gt;TabDynamicSidebarModule -->
<g id="edge3" class="edge">
<title>UiTabFormRendererModule&#45;&gt;TabDynamicSidebarModule</title>
<path fill="none" stroke="black" d="M187.98,-122.11C187.98,-141.34 187.98,-169 187.98,-169 187.98,-169 188.6,-169 188.6,-169"/>
<polygon fill="black" stroke="black" points="184.15,-172.5 194.15,-169 184.15,-165.5 184.15,-172.5"/>
</g>
</g>
</svg>
