<?xml version="1.0" encoding="UTF-8" standalone="no"?>
<!DOCTYPE svg PUBLIC "-//W3C//DTD SVG 1.1//EN"
 "http://www.w3.org/Graphics/SVG/1.1/DTD/svg11.dtd">
<!-- Generated by graphviz version 2.47.0 (20210316.0004)
 -->
<!-- Title: dependencies Pages: 1 -->
<svg width="1622pt" height="284pt"
 viewBox="0.00 0.00 1622.00 284.00" xmlns="http://www.w3.org/2000/svg" xmlns:xlink="http://www.w3.org/1999/xlink">
<g id="graph0" class="graph" transform="scale(1 1) rotate(0) translate(4 280)">
<title>dependencies</title>
<polygon fill="white" stroke="transparent" points="-4,4 -4,-280 1618,-280 1618,4 -4,4"/>
<text text-anchor="start" x="786.01" y="-42.4" font-family="Times-12" font-weight="bold" font-size="14.00">Legend</text>
<polygon fill="#ffffb3" stroke="transparent" points="573,-10 573,-30 593,-30 593,-10 573,-10"/>
<text text-anchor="start" x="596.63" y="-15.4" font-family="Times-12" font-size="14.00"> &#160;Declarations</text>
<polygon fill="#8dd3c7" stroke="transparent" points="686,-10 686,-30 706,-30 706,-10 686,-10"/>
<text text-anchor="start" x="709.73" y="-15.4" font-family="Times-12" font-size="14.00"> &#160;Module</text>
<polygon fill="#80b1d3" stroke="transparent" points="772,-10 772,-30 792,-30 792,-10 772,-10"/>
<text text-anchor="start" x="795.78" y="-15.4" font-family="Times-12" font-size="14.00"> &#160;Bootstrap</text>
<polygon fill="#fdb462" stroke="transparent" points="869,-10 869,-30 889,-30 889,-10 869,-10"/>
<text text-anchor="start" x="892.67" y="-15.4" font-family="Times-12" font-size="14.00"> &#160;Providers</text>
<polygon fill="#fb8072" stroke="transparent" points="965,-10 965,-30 985,-30 985,-10 965,-10"/>
<text text-anchor="start" x="988.73" y="-15.4" font-family="Times-12" font-size="14.00"> &#160;Exports</text>
<g id="clust1" class="cluster">
<title>cluster_FuturisticLayoutModule</title>
<polygon fill="none" stroke="black" stroke-dasharray="1,5" points="8,-70 8,-268 1606,-268 1606,-70 8,-70"/>
</g>
<g id="clust4" class="cluster">
<title>cluster_FuturisticLayoutModule_imports</title>
<polygon fill="none" stroke="black" points="214,-78 214,-130 1598,-130 1598,-78 214,-78"/>
</g>
<g id="clust2" class="cluster">
<title>cluster_FuturisticLayoutModule_declarations</title>
<polygon fill="none" stroke="black" points="16,-78 16,-130 206,-130 206,-78 16,-78"/>
</g>
<g id="clust5" class="cluster">
<title>cluster_FuturisticLayoutModule_exports</title>
<polygon fill="none" stroke="black" points="657,-208 657,-260 851,-260 851,-208 657,-208"/>
</g>
<!-- FuturisticLayoutComponent -->
<g id="node1" class="node">
<title>FuturisticLayoutComponent</title>
<polygon fill="#ffffb3" stroke="black" points="198.16,-122 23.84,-122 23.84,-86 198.16,-86 198.16,-122"/>
<text text-anchor="middle" x="111" y="-99.8" font-family="Times,serif" font-size="14.00">FuturisticLayoutComponent</text>
</g>
<!-- FuturisticLayoutModule -->
<g id="node2" class="node">
<title>FuturisticLayoutModule</title>
<polygon fill="#8dd3c7" stroke="black" points="830.37,-187 827.37,-191 806.37,-191 803.37,-187 677.63,-187 677.63,-151 830.37,-151 830.37,-187"/>
<text text-anchor="middle" x="754" y="-164.8" font-family="Times,serif" font-size="14.00">FuturisticLayoutModule</text>
</g>
<!-- FuturisticLayoutComponent&#45;&gt;FuturisticLayoutModule -->
<g id="edge1" class="edge">
<title>FuturisticLayoutComponent&#45;&gt;FuturisticLayoutModule</title>
<path fill="none" stroke="black" d="M111,-122.01C111,-144.49 111,-180 111,-180 111,-180 667.4,-180 667.4,-180"/>
<polygon fill="black" stroke="black" points="667.4,-183.5 677.4,-180 667.4,-176.5 667.4,-183.5"/>
</g>
<!-- FuturisticLayoutComponent  -->
<g id="node13" class="node">
<title>FuturisticLayoutComponent </title>
<polygon fill="#fb8072" stroke="black" points="843.16,-252 664.84,-252 664.84,-216 843.16,-216 843.16,-252"/>
<text text-anchor="middle" x="754" y="-229.8" font-family="Times,serif" font-size="14.00">FuturisticLayoutComponent </text>
</g>
<!-- FuturisticLayoutModule&#45;&gt;FuturisticLayoutComponent  -->
<g id="edge12" class="edge">
<title>FuturisticLayoutModule&#45;&gt;FuturisticLayoutComponent </title>
<path fill="none" stroke="black" stroke-dasharray="5,2" d="M754,-187.11C754,-187.11 754,-205.99 754,-205.99"/>
<polygon fill="black" stroke="black" points="750.5,-205.99 754,-215.99 757.5,-205.99 750.5,-205.99"/>
</g>
<!-- FuseFullscreenModule -->
<g id="node3" class="node">
<title>FuseFullscreenModule</title>
<polygon fill="#8dd3c7" stroke="black" points="1590.3,-122 1587.3,-126 1566.3,-126 1563.3,-122 1445.7,-122 1445.7,-86 1590.3,-86 1590.3,-122"/>
<text text-anchor="middle" x="1518" y="-99.8" font-family="Times,serif" font-size="14.00">FuseFullscreenModule</text>
</g>
<!-- FuseFullscreenModule&#45;&gt;FuturisticLayoutModule -->
<g id="edge2" class="edge">
<title>FuseFullscreenModule&#45;&gt;FuturisticLayoutModule</title>
<path fill="none" stroke="black" d="M1518,-122.01C1518,-144.49 1518,-180 1518,-180 1518,-180 840.4,-180 840.4,-180"/>
<polygon fill="black" stroke="black" points="840.4,-176.5 830.4,-180 840.4,-183.5 840.4,-176.5"/>
</g>
<!-- FuseLoadingBarModule -->
<g id="node4" class="node">
<title>FuseLoadingBarModule</title>
<polygon fill="#8dd3c7" stroke="black" points="1427.36,-122 1424.36,-126 1403.36,-126 1400.36,-122 1274.64,-122 1274.64,-86 1427.36,-86 1427.36,-122"/>
<text text-anchor="middle" x="1351" y="-99.8" font-family="Times,serif" font-size="14.00">FuseLoadingBarModule</text>
</g>
<!-- FuseLoadingBarModule&#45;&gt;FuturisticLayoutModule -->
<g id="edge3" class="edge">
<title>FuseLoadingBarModule&#45;&gt;FuturisticLayoutModule</title>
<path fill="none" stroke="black" d="M1351,-122.13C1351,-142.57 1351,-173 1351,-173 1351,-173 840.52,-173 840.52,-173"/>
<polygon fill="black" stroke="black" points="840.52,-169.5 830.52,-173 840.52,-176.5 840.52,-169.5"/>
</g>
<!-- FuseNavigationModule -->
<g id="node5" class="node">
<title>FuseNavigationModule</title>
<polygon fill="#8dd3c7" stroke="black" points="1256.2,-122 1253.2,-126 1232.2,-126 1229.2,-122 1107.8,-122 1107.8,-86 1256.2,-86 1256.2,-122"/>
<text text-anchor="middle" x="1182" y="-99.8" font-family="Times,serif" font-size="14.00">FuseNavigationModule</text>
</g>
<!-- FuseNavigationModule&#45;&gt;FuturisticLayoutModule -->
<g id="edge4" class="edge">
<title>FuseNavigationModule&#45;&gt;FuturisticLayoutModule</title>
<path fill="none" stroke="black" d="M1182,-122.27C1182,-140.56 1182,-166 1182,-166 1182,-166 840.52,-166 840.52,-166"/>
<polygon fill="black" stroke="black" points="840.52,-162.5 830.52,-166 840.52,-169.5 840.52,-162.5"/>
</g>
<!-- LanguagesModule -->
<g id="node6" class="node">
<title>LanguagesModule</title>
<polygon fill="#8dd3c7" stroke="black" points="1090.19,-122 1087.19,-126 1066.19,-126 1063.19,-122 969.81,-122 969.81,-86 1090.19,-86 1090.19,-122"/>
<text text-anchor="middle" x="1030" y="-99.8" font-family="Times,serif" font-size="14.00">LanguagesModule</text>
</g>
<!-- LanguagesModule&#45;&gt;FuturisticLayoutModule -->
<g id="edge5" class="edge">
<title>LanguagesModule&#45;&gt;FuturisticLayoutModule</title>
<path fill="none" stroke="black" d="M1030,-122.01C1030,-138.05 1030,-159 1030,-159 1030,-159 840.51,-159 840.51,-159"/>
<polygon fill="black" stroke="black" points="840.51,-155.5 830.51,-159 840.51,-162.5 840.51,-155.5"/>
</g>
<!-- MessagesModule -->
<g id="node7" class="node">
<title>MessagesModule</title>
<polygon fill="#8dd3c7" stroke="black" points="951.97,-122 948.97,-126 927.97,-126 924.97,-122 838.03,-122 838.03,-86 951.97,-86 951.97,-122"/>
<text text-anchor="middle" x="895" y="-99.8" font-family="Times,serif" font-size="14.00">MessagesModule</text>
</g>
<!-- MessagesModule&#45;&gt;FuturisticLayoutModule -->
<g id="edge6" class="edge">
<title>MessagesModule&#45;&gt;FuturisticLayoutModule</title>
<path fill="none" stroke="black" d="M837.83,-104C830.44,-104 825.38,-104 825.38,-104 825.38,-104 825.38,-140.89 825.38,-140.89"/>
<polygon fill="black" stroke="black" points="821.88,-140.89 825.38,-150.89 828.88,-140.89 821.88,-140.89"/>
</g>
<!-- NotificationsModule -->
<g id="node8" class="node">
<title>NotificationsModule</title>
<polygon fill="#8dd3c7" stroke="black" points="820.14,-122 817.14,-126 796.14,-126 793.14,-122 687.86,-122 687.86,-86 820.14,-86 820.14,-122"/>
<text text-anchor="middle" x="754" y="-99.8" font-family="Times,serif" font-size="14.00">NotificationsModule</text>
</g>
<!-- NotificationsModule&#45;&gt;FuturisticLayoutModule -->
<g id="edge7" class="edge">
<title>NotificationsModule&#45;&gt;FuturisticLayoutModule</title>
<path fill="none" stroke="black" d="M754,-122.11C754,-122.11 754,-140.99 754,-140.99"/>
<polygon fill="black" stroke="black" points="750.5,-140.99 754,-150.99 757.5,-140.99 750.5,-140.99"/>
</g>
<!-- SearchModule -->
<g id="node9" class="node">
<title>SearchModule</title>
<polygon fill="#8dd3c7" stroke="black" points="669.64,-122 666.64,-126 645.64,-126 642.64,-122 572.36,-122 572.36,-86 669.64,-86 669.64,-122"/>
<text text-anchor="middle" x="621" y="-99.8" font-family="Times,serif" font-size="14.00">SearchModule</text>
</g>
<!-- SearchModule&#45;&gt;FuturisticLayoutModule -->
<g id="edge8" class="edge">
<title>SearchModule&#45;&gt;FuturisticLayoutModule</title>
<path fill="none" stroke="black" d="M669.85,-104C677.33,-104 682.62,-104 682.62,-104 682.62,-104 682.62,-140.89 682.62,-140.89"/>
<polygon fill="black" stroke="black" points="679.12,-140.89 682.62,-150.89 686.12,-140.89 679.12,-140.89"/>
</g>
<!-- SharedModule -->
<g id="node10" class="node">
<title>SharedModule</title>
<polygon fill="#8dd3c7" stroke="black" points="554.42,-122 551.42,-126 530.42,-126 527.42,-122 455.58,-122 455.58,-86 554.42,-86 554.42,-122"/>
<text text-anchor="middle" x="505" y="-99.8" font-family="Times,serif" font-size="14.00">SharedModule</text>
</g>
<!-- SharedModule&#45;&gt;FuturisticLayoutModule -->
<g id="edge9" class="edge">
<title>SharedModule&#45;&gt;FuturisticLayoutModule</title>
<path fill="none" stroke="black" d="M505,-122.01C505,-138.05 505,-159 505,-159 505,-159 667.6,-159 667.6,-159"/>
<polygon fill="black" stroke="black" points="667.6,-162.5 677.6,-159 667.6,-155.5 667.6,-162.5"/>
</g>
<!-- ShortcutsModule -->
<g id="node11" class="node">
<title>ShortcutsModule</title>
<polygon fill="#8dd3c7" stroke="black" points="438.43,-122 435.43,-126 414.43,-126 411.43,-122 325.57,-122 325.57,-86 438.43,-86 438.43,-122"/>
<text text-anchor="middle" x="382" y="-99.8" font-family="Times,serif" font-size="14.00">ShortcutsModule</text>
</g>
<!-- ShortcutsModule&#45;&gt;FuturisticLayoutModule -->
<g id="edge10" class="edge">
<title>ShortcutsModule&#45;&gt;FuturisticLayoutModule</title>
<path fill="none" stroke="black" d="M382,-122.27C382,-140.56 382,-166 382,-166 382,-166 667.37,-166 667.37,-166"/>
<polygon fill="black" stroke="black" points="667.37,-169.5 677.37,-166 667.37,-162.5 667.37,-169.5"/>
</g>
<!-- UserModule -->
<g id="node12" class="node">
<title>UserModule</title>
<polygon fill="#8dd3c7" stroke="black" points="307.98,-122 304.98,-126 283.98,-126 280.98,-122 222.02,-122 222.02,-86 307.98,-86 307.98,-122"/>
<text text-anchor="middle" x="265" y="-99.8" font-family="Times,serif" font-size="14.00">UserModule</text>
</g>
<!-- UserModule&#45;&gt;FuturisticLayoutModule -->
<g id="edge11" class="edge">
<title>UserModule&#45;&gt;FuturisticLayoutModule</title>
<path fill="none" stroke="black" d="M265,-122.13C265,-142.57 265,-173 265,-173 265,-173 667.59,-173 667.59,-173"/>
<polygon fill="black" stroke="black" points="667.59,-176.5 677.59,-173 667.59,-169.5 667.59,-176.5"/>
</g>
</g>
</svg>
