<?xml version="1.0" encoding="UTF-8" standalone="no"?>
<!DOCTYPE svg PUBLIC "-//W3C//DTD SVG 1.1//EN"
 "http://www.w3.org/Graphics/SVG/1.1/DTD/svg11.dtd">
<!-- Generated by graphviz version 2.47.0 (20210316.0004)
 -->
<!-- Title: dependencies Pages: 1 -->
<svg width="504pt" height="211pt"
 viewBox="0.00 0.00 504.00 211.00" xmlns="http://www.w3.org/2000/svg" xmlns:xlink="http://www.w3.org/1999/xlink">
<g id="graph0" class="graph" transform="scale(1 1) rotate(0) translate(4 207)">
<title>dependencies</title>
<polygon fill="white" stroke="transparent" points="-4,4 -4,-207 500,-207 500,4 -4,4"/>
<text text-anchor="start" x="227.01" y="-42.4" font-family="Times-12" font-weight="bold" font-size="14.00">Legend</text>
<polygon fill="#ffffb3" stroke="transparent" points="14,-10 14,-30 34,-30 34,-10 14,-10"/>
<text text-anchor="start" x="37.63" y="-15.4" font-family="Times-12" font-size="14.00"> &#160;Declarations</text>
<polygon fill="#8dd3c7" stroke="transparent" points="127,-10 127,-30 147,-30 147,-10 127,-10"/>
<text text-anchor="start" x="150.73" y="-15.4" font-family="Times-12" font-size="14.00"> &#160;Module</text>
<polygon fill="#80b1d3" stroke="transparent" points="213,-10 213,-30 233,-30 233,-10 213,-10"/>
<text text-anchor="start" x="236.78" y="-15.4" font-family="Times-12" font-size="14.00"> &#160;Bootstrap</text>
<polygon fill="#fdb462" stroke="transparent" points="310,-10 310,-30 330,-30 330,-10 310,-10"/>
<text text-anchor="start" x="333.67" y="-15.4" font-family="Times-12" font-size="14.00"> &#160;Providers</text>
<polygon fill="#fb8072" stroke="transparent" points="406,-10 406,-30 426,-30 426,-10 406,-10"/>
<text text-anchor="start" x="429.73" y="-15.4" font-family="Times-12" font-size="14.00"> &#160;Exports</text>
<g id="clust1" class="cluster">
<title>cluster_AuthSignOutModule</title>
<polygon fill="none" stroke="black" stroke-dasharray="1,5" points="27,-70 27,-195 469,-195 469,-70 27,-70"/>
</g>
<g id="clust4" class="cluster">
<title>cluster_AuthSignOutModule_imports</title>
<polygon fill="none" stroke="black" points="215,-78 215,-130 461,-130 461,-78 215,-78"/>
</g>
<g id="clust2" class="cluster">
<title>cluster_AuthSignOutModule_declarations</title>
<polygon fill="none" stroke="black" points="35,-78 35,-130 207,-130 207,-78 35,-78"/>
</g>
<!-- AuthSignOutComponent -->
<g id="node1" class="node">
<title>AuthSignOutComponent</title>
<polygon fill="#ffffb3" stroke="black" points="199,-122 43,-122 43,-86 199,-86 199,-122"/>
<text text-anchor="middle" x="121" y="-99.8" font-family="Times,serif" font-size="14.00">AuthSignOutComponent</text>
</g>
<!-- AuthSignOutModule -->
<g id="node2" class="node">
<title>AuthSignOutModule</title>
<polygon fill="#8dd3c7" stroke="black" points="339.22,-187 336.22,-191 315.22,-191 312.22,-187 204.78,-187 204.78,-151 339.22,-151 339.22,-187"/>
<text text-anchor="middle" x="272" y="-164.8" font-family="Times,serif" font-size="14.00">AuthSignOutModule</text>
</g>
<!-- AuthSignOutComponent&#45;&gt;AuthSignOutModule -->
<g id="edge1" class="edge">
<title>AuthSignOutComponent&#45;&gt;AuthSignOutModule</title>
<path fill="none" stroke="black" d="M199.33,-104C208.04,-104 213.84,-104 213.84,-104 213.84,-104 213.84,-140.89 213.84,-140.89"/>
<polygon fill="black" stroke="black" points="210.34,-140.89 213.84,-150.89 217.34,-140.89 210.34,-140.89"/>
</g>
<!-- FuseCardModule -->
<g id="node3" class="node">
<title>FuseCardModule</title>
<polygon fill="#8dd3c7" stroke="black" points="452.7,-122 449.7,-126 428.7,-126 425.7,-122 339.3,-122 339.3,-86 452.7,-86 452.7,-122"/>
<text text-anchor="middle" x="396" y="-99.8" font-family="Times,serif" font-size="14.00">FuseCardModule</text>
</g>
<!-- FuseCardModule&#45;&gt;AuthSignOutModule -->
<g id="edge2" class="edge">
<title>FuseCardModule&#45;&gt;AuthSignOutModule</title>
<path fill="none" stroke="black" d="M339.31,-104C333.78,-104 330.16,-104 330.16,-104 330.16,-104 330.16,-140.89 330.16,-140.89"/>
<polygon fill="black" stroke="black" points="326.66,-140.89 330.16,-150.89 333.66,-140.89 326.66,-140.89"/>
</g>
<!-- SharedModule -->
<g id="node4" class="node">
<title>SharedModule</title>
<polygon fill="#8dd3c7" stroke="black" points="321.42,-122 318.42,-126 297.42,-126 294.42,-122 222.58,-122 222.58,-86 321.42,-86 321.42,-122"/>
<text text-anchor="middle" x="272" y="-99.8" font-family="Times,serif" font-size="14.00">SharedModule</text>
</g>
<!-- SharedModule&#45;&gt;AuthSignOutModule -->
<g id="edge3" class="edge">
<title>SharedModule&#45;&gt;AuthSignOutModule</title>
<path fill="none" stroke="black" d="M272,-122.11C272,-122.11 272,-140.99 272,-140.99"/>
<polygon fill="black" stroke="black" points="268.5,-140.99 272,-150.99 275.5,-140.99 268.5,-140.99"/>
</g>
</g>
</svg>
