<?xml version="1.0" encoding="UTF-8" standalone="no"?>
<!DOCTYPE svg PUBLIC "-//W3C//DTD SVG 1.1//EN"
 "http://www.w3.org/Graphics/SVG/1.1/DTD/svg11.dtd">
<!-- Generated by graphviz version 2.47.0 (20210316.0004)
 -->
<!-- Title: dependencies Pages: 1 -->
<svg width="504pt" height="284pt"
 viewBox="0.00 0.00 504.00 284.00" xmlns="http://www.w3.org/2000/svg" xmlns:xlink="http://www.w3.org/1999/xlink">
<g id="graph0" class="graph" transform="scale(1 1) rotate(0) translate(4 280)">
<title>dependencies</title>
<polygon fill="white" stroke="transparent" points="-4,4 -4,-280 500,-280 500,4 -4,4"/>
<text text-anchor="start" x="227.01" y="-42.4" font-family="Times-12" font-weight="bold" font-size="14.00">Legend</text>
<polygon fill="#ffffb3" stroke="transparent" points="14,-10 14,-30 34,-30 34,-10 14,-10"/>
<text text-anchor="start" x="37.63" y="-15.4" font-family="Times-12" font-size="14.00"> &#160;Declarations</text>
<polygon fill="#8dd3c7" stroke="transparent" points="127,-10 127,-30 147,-30 147,-10 127,-10"/>
<text text-anchor="start" x="150.73" y="-15.4" font-family="Times-12" font-size="14.00"> &#160;Module</text>
<polygon fill="#80b1d3" stroke="transparent" points="213,-10 213,-30 233,-30 233,-10 213,-10"/>
<text text-anchor="start" x="236.78" y="-15.4" font-family="Times-12" font-size="14.00"> &#160;Bootstrap</text>
<polygon fill="#fdb462" stroke="transparent" points="310,-10 310,-30 330,-30 330,-10 310,-10"/>
<text text-anchor="start" x="333.67" y="-15.4" font-family="Times-12" font-size="14.00"> &#160;Providers</text>
<polygon fill="#fb8072" stroke="transparent" points="406,-10 406,-30 426,-30 426,-10 406,-10"/>
<text text-anchor="start" x="429.73" y="-15.4" font-family="Times-12" font-size="14.00"> &#160;Exports</text>
<g id="clust1" class="cluster">
<title>cluster_UiTabTextBoxModule</title>
<polygon fill="none" stroke="black" stroke-dasharray="1,5" points="154,-70 154,-268 342,-268 342,-70 154,-70"/>
</g>
<g id="clust2" class="cluster">
<title>cluster_UiTabTextBoxModule_declarations</title>
<polygon fill="none" stroke="black" points="164,-78 164,-130 332,-130 332,-78 164,-78"/>
</g>
<g id="clust5" class="cluster">
<title>cluster_UiTabTextBoxModule_exports</title>
<polygon fill="none" stroke="black" points="162,-208 162,-260 334,-260 334,-208 162,-208"/>
</g>
<!-- TabTextBoxComponent -->
<g id="node1" class="node">
<title>TabTextBoxComponent</title>
<polygon fill="#ffffb3" stroke="black" points="324.09,-122 171.91,-122 171.91,-86 324.09,-86 324.09,-122"/>
<text text-anchor="middle" x="248" y="-99.8" font-family="Times,serif" font-size="14.00">TabTextBoxComponent</text>
</g>
<!-- UiTabTextBoxModule -->
<g id="node2" class="node">
<title>UiTabTextBoxModule</title>
<polygon fill="#8dd3c7" stroke="black" points="320.31,-187 317.31,-191 296.31,-191 293.31,-187 175.69,-187 175.69,-151 320.31,-151 320.31,-187"/>
<text text-anchor="middle" x="248" y="-164.8" font-family="Times,serif" font-size="14.00">UiTabTextBoxModule</text>
</g>
<!-- TabTextBoxComponent&#45;&gt;UiTabTextBoxModule -->
<g id="edge1" class="edge">
<title>TabTextBoxComponent&#45;&gt;UiTabTextBoxModule</title>
<path fill="none" stroke="black" d="M248,-122.11C248,-122.11 248,-140.99 248,-140.99"/>
<polygon fill="black" stroke="black" points="244.5,-140.99 248,-150.99 251.5,-140.99 244.5,-140.99"/>
</g>
<!-- TabTextBoxComponent  -->
<g id="node3" class="node">
<title>TabTextBoxComponent </title>
<polygon fill="#fb8072" stroke="black" points="325.59,-252 170.41,-252 170.41,-216 325.59,-216 325.59,-252"/>
<text text-anchor="middle" x="248" y="-229.8" font-family="Times,serif" font-size="14.00">TabTextBoxComponent </text>
</g>
<!-- UiTabTextBoxModule&#45;&gt;TabTextBoxComponent  -->
<g id="edge2" class="edge">
<title>UiTabTextBoxModule&#45;&gt;TabTextBoxComponent </title>
<path fill="none" stroke="black" stroke-dasharray="5,2" d="M248,-187.11C248,-187.11 248,-205.99 248,-205.99"/>
<polygon fill="black" stroke="black" points="244.5,-205.99 248,-215.99 251.5,-205.99 244.5,-205.99"/>
</g>
</g>
</svg>
