<?xml version="1.0" encoding="UTF-8" standalone="no"?>
<!DOCTYPE svg PUBLIC "-//W3C//DTD SVG 1.1//EN"
 "http://www.w3.org/Graphics/SVG/1.1/DTD/svg11.dtd">
<!-- Generated by graphviz version 2.47.0 (20210316.0004)
 -->
<!-- Title: dependencies Pages: 1 -->
<svg width="950pt" height="396pt"
 viewBox="0.00 0.00 950.00 395.59" xmlns="http://www.w3.org/2000/svg" xmlns:xlink="http://www.w3.org/1999/xlink">
<g id="graph0" class="graph" transform="scale(1 1) rotate(0) translate(4 391.59)">
<title>dependencies</title>
<polygon fill="white" stroke="transparent" points="-4,4 -4,-391.59 946,-391.59 946,4 -4,4"/>
<text text-anchor="start" x="450.01" y="-42.4" font-family="Times-12" font-weight="bold" font-size="14.00">Legend</text>
<polygon fill="#ffffb3" stroke="transparent" points="237,-10 237,-30 257,-30 257,-10 237,-10"/>
<text text-anchor="start" x="260.63" y="-15.4" font-family="Times-12" font-size="14.00"> &#160;Declarations</text>
<polygon fill="#8dd3c7" stroke="transparent" points="350,-10 350,-30 370,-30 370,-10 350,-10"/>
<text text-anchor="start" x="373.73" y="-15.4" font-family="Times-12" font-size="14.00"> &#160;Module</text>
<polygon fill="#80b1d3" stroke="transparent" points="436,-10 436,-30 456,-30 456,-10 436,-10"/>
<text text-anchor="start" x="459.78" y="-15.4" font-family="Times-12" font-size="14.00"> &#160;Bootstrap</text>
<polygon fill="#fdb462" stroke="transparent" points="533,-10 533,-30 553,-30 553,-10 533,-10"/>
<text text-anchor="start" x="556.67" y="-15.4" font-family="Times-12" font-size="14.00"> &#160;Providers</text>
<polygon fill="#fb8072" stroke="transparent" points="629,-10 629,-30 649,-30 649,-10 629,-10"/>
<text text-anchor="start" x="652.73" y="-15.4" font-family="Times-12" font-size="14.00"> &#160;Exports</text>
<g id="clust1" class="cluster">
<title>cluster_SearchModule</title>
<polygon fill="none" stroke="black" stroke-dasharray="1,5" points="8,-70 8,-379.59 934,-379.59 934,-70 8,-70"/>
</g>
<g id="clust2" class="cluster">
<title>cluster_SearchModule_declarations</title>
<polygon fill="none" stroke="black" points="630,-189.59 630,-241.59 926,-241.59 926,-189.59 630,-189.59"/>
</g>
<g id="clust6" class="cluster">
<title>cluster_SearchModule_exports</title>
<polygon fill="none" stroke="black" points="306,-319.59 306,-371.59 608,-371.59 608,-319.59 306,-319.59"/>
</g>
<g id="clust3" class="cluster">
<title>cluster_SearchModule_SearchComponent_providers</title>
<polygon fill="none" stroke="black" points="106,-78 106,-176.59 926,-176.59 926,-78 106,-78"/>
</g>
<g id="clust5" class="cluster">
<title>cluster_SearchModule_imports</title>
<polygon fill="none" stroke="black" points="16,-189.59 16,-241.59 622,-241.59 622,-189.59 16,-189.59"/>
</g>
<!-- SearchComponent -->
<g id="node1" class="node">
<title>SearchComponent</title>
<polygon fill="#ffffb3" stroke="black" points="917.92,-233.59 798.08,-233.59 798.08,-197.59 917.92,-197.59 917.92,-233.59"/>
<text text-anchor="middle" x="858" y="-211.39" font-family="Times,serif" font-size="14.00">SearchComponent</text>
</g>
<!-- SearchModule -->
<g id="node3" class="node">
<title>SearchModule</title>
<polygon fill="#8dd3c7" stroke="black" points="511.64,-298.59 508.64,-302.59 487.64,-302.59 484.64,-298.59 414.36,-298.59 414.36,-262.59 511.64,-262.59 511.64,-298.59"/>
<text text-anchor="middle" x="463" y="-276.39" font-family="Times,serif" font-size="14.00">SearchModule</text>
</g>
<!-- SearchComponent&#45;&gt;SearchModule -->
<g id="edge1" class="edge">
<title>SearchComponent&#45;&gt;SearchModule</title>
<path fill="none" stroke="black" d="M858,-233.87C858,-254.91 858,-286.59 858,-286.59 858,-286.59 521.83,-286.59 521.83,-286.59"/>
<polygon fill="black" stroke="black" points="521.83,-283.09 511.83,-286.59 521.83,-290.09 521.83,-283.09"/>
</g>
<!-- ViewMoreComponent -->
<g id="node2" class="node">
<title>ViewMoreComponent</title>
<polygon fill="#ffffb3" stroke="black" points="779.97,-233.59 638.03,-233.59 638.03,-197.59 779.97,-197.59 779.97,-233.59"/>
<text text-anchor="middle" x="709" y="-211.39" font-family="Times,serif" font-size="14.00">ViewMoreComponent</text>
</g>
<!-- ViewMoreComponent&#45;&gt;SearchModule -->
<g id="edge3" class="edge">
<title>ViewMoreComponent&#45;&gt;SearchModule</title>
<path fill="none" stroke="black" d="M709,-233.61C709,-250.96 709,-274.59 709,-274.59 709,-274.59 521.9,-274.59 521.9,-274.59"/>
<polygon fill="black" stroke="black" points="521.9,-271.09 511.9,-274.59 521.9,-278.09 521.9,-271.09"/>
</g>
<!-- SearchComponent  -->
<g id="node9" class="node">
<title>SearchComponent </title>
<polygon fill="#fb8072" stroke="black" points="600.42,-363.59 477.58,-363.59 477.58,-327.59 600.42,-327.59 600.42,-363.59"/>
<text text-anchor="middle" x="539" y="-341.39" font-family="Times,serif" font-size="14.00">SearchComponent </text>
</g>
<!-- SearchModule&#45;&gt;SearchComponent  -->
<g id="edge8" class="edge">
<title>SearchModule&#45;&gt;SearchComponent </title>
<path fill="none" stroke="black" stroke-dasharray="5,2" d="M494.68,-298.7C494.68,-298.7 494.68,-317.58 494.68,-317.58"/>
<polygon fill="black" stroke="black" points="491.18,-317.58 494.68,-327.58 498.18,-317.58 491.18,-317.58"/>
</g>
<!-- ViewMoreComponent  -->
<g id="node10" class="node">
<title>ViewMoreComponent </title>
<polygon fill="#fb8072" stroke="black" points="459.97,-363.59 314.03,-363.59 314.03,-327.59 459.97,-327.59 459.97,-363.59"/>
<text text-anchor="middle" x="387" y="-341.39" font-family="Times,serif" font-size="14.00">ViewMoreComponent </text>
</g>
<!-- SearchModule&#45;&gt;ViewMoreComponent  -->
<g id="edge9" class="edge">
<title>SearchModule&#45;&gt;ViewMoreComponent </title>
<path fill="none" stroke="black" stroke-dasharray="5,2" d="M436.96,-298.7C436.96,-298.7 436.96,-317.58 436.96,-317.58"/>
<polygon fill="black" stroke="black" points="433.46,-317.58 436.96,-327.58 440.46,-317.58 433.46,-317.58"/>
</g>
<!-- {
 &#160;&#160;&#160;provide: MAT_AUTOCOMPLETE_DEFAULT_OPTIONS, useValue: { overlayPanelClass: &#160;},
} -->
<g id="node4" class="node">
<title>{
 &#160;&#160;&#160;provide: MAT_AUTOCOMPLETE_DEFAULT_OPTIONS, useValue: { overlayPanelClass: &#160;},
}</title>
<ellipse fill="#fdb462" stroke="black" cx="516" cy="-127.3" rx="402.31" ry="41.09"/>
<text text-anchor="middle" x="516" y="-139.9" font-family="Times,serif" font-size="14.00">{</text>
<text text-anchor="middle" x="516" y="-123.1" font-family="Times,serif" font-size="14.00"> &#160;&#160;&#160;provide: MAT_AUTOCOMPLETE_DEFAULT_OPTIONS, useValue: { overlayPanelClass: &#160;},</text>
<text text-anchor="middle" x="516" y="-106.3" font-family="Times,serif" font-size="14.00">}</text>
</g>
<!-- {
 &#160;&#160;&#160;provide: MAT_AUTOCOMPLETE_DEFAULT_OPTIONS, useValue: { overlayPanelClass: &#160;},
}&#45;&gt;SearchComponent -->
<g id="edge2" class="edge">
<title>{
 &#160;&#160;&#160;provide: MAT_AUTOCOMPLETE_DEFAULT_OPTIONS, useValue: { overlayPanelClass: &#160;},
}&#45;&gt;SearchComponent</title>
<path fill="none" stroke="black" d="M858,-149.12C858,-149.12 858,-187.58 858,-187.58"/>
<polygon fill="black" stroke="black" points="854.5,-187.58 858,-197.58 861.5,-187.58 854.5,-187.58"/>
</g>
<!-- FuseHighlightModule -->
<g id="node5" class="node">
<title>FuseHighlightModule</title>
<polygon fill="#8dd3c7" stroke="black" points="613.66,-233.59 610.66,-237.59 589.66,-237.59 586.66,-233.59 474.34,-233.59 474.34,-197.59 613.66,-197.59 613.66,-233.59"/>
<text text-anchor="middle" x="544" y="-211.39" font-family="Times,serif" font-size="14.00">FuseHighlightModule</text>
</g>
<!-- FuseHighlightModule&#45;&gt;SearchModule -->
<g id="edge4" class="edge">
<title>FuseHighlightModule&#45;&gt;SearchModule</title>
<path fill="none" stroke="black" d="M492.99,-233.7C492.99,-233.7 492.99,-252.58 492.99,-252.58"/>
<polygon fill="black" stroke="black" points="489.49,-252.58 492.99,-262.58 496.49,-252.58 489.49,-252.58"/>
</g>
<!-- FuseNavigationModule -->
<g id="node6" class="node">
<title>FuseNavigationModule</title>
<polygon fill="#8dd3c7" stroke="black" points="456.2,-233.59 453.2,-237.59 432.2,-237.59 429.2,-233.59 307.8,-233.59 307.8,-197.59 456.2,-197.59 456.2,-233.59"/>
<text text-anchor="middle" x="382" y="-211.39" font-family="Times,serif" font-size="14.00">FuseNavigationModule</text>
</g>
<!-- FuseNavigationModule&#45;&gt;SearchModule -->
<g id="edge5" class="edge">
<title>FuseNavigationModule&#45;&gt;SearchModule</title>
<path fill="none" stroke="black" d="M435.14,-233.7C435.14,-233.7 435.14,-252.58 435.14,-252.58"/>
<polygon fill="black" stroke="black" points="431.64,-252.58 435.14,-262.58 438.64,-252.58 431.64,-252.58"/>
</g>
<!-- FuseScrollResetModule -->
<g id="node7" class="node">
<title>FuseScrollResetModule</title>
<polygon fill="#8dd3c7" stroke="black" points="290.03,-233.59 287.03,-237.59 266.03,-237.59 263.03,-233.59 139.97,-233.59 139.97,-197.59 290.03,-197.59 290.03,-233.59"/>
<text text-anchor="middle" x="215" y="-211.39" font-family="Times,serif" font-size="14.00">FuseScrollResetModule</text>
</g>
<!-- FuseScrollResetModule&#45;&gt;SearchModule -->
<g id="edge6" class="edge">
<title>FuseScrollResetModule&#45;&gt;SearchModule</title>
<path fill="none" stroke="black" d="M215,-233.61C215,-250.96 215,-274.59 215,-274.59 215,-274.59 404.3,-274.59 404.3,-274.59"/>
<polygon fill="black" stroke="black" points="404.3,-278.09 414.3,-274.59 404.3,-271.09 404.3,-278.09"/>
</g>
<!-- SharedModule -->
<g id="node8" class="node">
<title>SharedModule</title>
<polygon fill="#8dd3c7" stroke="black" points="122.42,-233.59 119.42,-237.59 98.42,-237.59 95.42,-233.59 23.58,-233.59 23.58,-197.59 122.42,-197.59 122.42,-233.59"/>
<text text-anchor="middle" x="73" y="-211.39" font-family="Times,serif" font-size="14.00">SharedModule</text>
</g>
<!-- SharedModule&#45;&gt;SearchModule -->
<g id="edge7" class="edge">
<title>SharedModule&#45;&gt;SearchModule</title>
<path fill="none" stroke="black" d="M73,-233.87C73,-254.91 73,-286.59 73,-286.59 73,-286.59 404,-286.59 404,-286.59"/>
<polygon fill="black" stroke="black" points="404,-290.09 414,-286.59 404,-283.09 404,-290.09"/>
</g>
</g>
</svg>
