<?xml version="1.0" encoding="UTF-8" standalone="no"?>
<!DOCTYPE svg PUBLIC "-//W3C//DTD SVG 1.1//EN"
 "http://www.w3.org/Graphics/SVG/1.1/DTD/svg11.dtd">
<!-- Generated by graphviz version 2.47.0 (20210316.0004)
 -->
<!-- Title: dependencies Pages: 1 -->
<svg width="1289pt" height="284pt"
 viewBox="0.00 0.00 1289.00 284.00" xmlns="http://www.w3.org/2000/svg" xmlns:xlink="http://www.w3.org/1999/xlink">
<g id="graph0" class="graph" transform="scale(1 1) rotate(0) translate(4 280)">
<title>dependencies</title>
<polygon fill="white" stroke="transparent" points="-4,4 -4,-280 1285,-280 1285,4 -4,4"/>
<text text-anchor="start" x="619.51" y="-42.4" font-family="Times-12" font-weight="bold" font-size="14.00">Legend</text>
<polygon fill="#ffffb3" stroke="transparent" points="406.5,-10 406.5,-30 426.5,-30 426.5,-10 406.5,-10"/>
<text text-anchor="start" x="430.13" y="-15.4" font-family="Times-12" font-size="14.00"> &#160;Declarations</text>
<polygon fill="#8dd3c7" stroke="transparent" points="519.5,-10 519.5,-30 539.5,-30 539.5,-10 519.5,-10"/>
<text text-anchor="start" x="543.23" y="-15.4" font-family="Times-12" font-size="14.00"> &#160;Module</text>
<polygon fill="#80b1d3" stroke="transparent" points="605.5,-10 605.5,-30 625.5,-30 625.5,-10 605.5,-10"/>
<text text-anchor="start" x="629.28" y="-15.4" font-family="Times-12" font-size="14.00"> &#160;Bootstrap</text>
<polygon fill="#fdb462" stroke="transparent" points="702.5,-10 702.5,-30 722.5,-30 722.5,-10 702.5,-10"/>
<text text-anchor="start" x="726.17" y="-15.4" font-family="Times-12" font-size="14.00"> &#160;Providers</text>
<polygon fill="#fb8072" stroke="transparent" points="798.5,-10 798.5,-30 818.5,-30 818.5,-10 798.5,-10"/>
<text text-anchor="start" x="822.23" y="-15.4" font-family="Times-12" font-size="14.00"> &#160;Exports</text>
<g id="clust1" class="cluster">
<title>cluster_AppModule</title>
<polygon fill="none" stroke="black" stroke-dasharray="1,5" points="8,-70 8,-268 1273,-268 1273,-70 8,-70"/>
</g>
<g id="clust8" class="cluster">
<title>cluster_AppModule_providers</title>
<polygon fill="none" stroke="black" points="1033,-78 1033,-130 1265,-130 1265,-78 1033,-78"/>
</g>
<g id="clust2" class="cluster">
<title>cluster_AppModule_declarations</title>
<polygon fill="none" stroke="black" points="765,-78 765,-130 1025,-130 1025,-78 765,-78"/>
</g>
<g id="clust5" class="cluster">
<title>cluster_AppModule_imports</title>
<polygon fill="none" stroke="black" points="16,-78 16,-130 757,-130 757,-78 16,-78"/>
</g>
<g id="clust7" class="cluster">
<title>cluster_AppModule_bootstrap</title>
<polygon fill="none" stroke="black" points="445,-208 445,-260 712,-260 712,-208 445,-208"/>
</g>
<!-- AppComponent -->
<g id="node1" class="node">
<title>AppComponent</title>
<polygon fill="#ffffb3" stroke="black" points="1016.94,-122 911.06,-122 911.06,-86 1016.94,-86 1016.94,-122"/>
<text text-anchor="middle" x="964" y="-99.8" font-family="Times,serif" font-size="14.00">AppComponent</text>
</g>
<!-- AppModule -->
<g id="node3" class="node">
<title>AppModule</title>
<polygon fill="#8dd3c7" stroke="black" points="623.66,-187 620.66,-191 599.66,-191 596.66,-187 540.34,-187 540.34,-151 623.66,-151 623.66,-187"/>
<text text-anchor="middle" x="582" y="-164.8" font-family="Times,serif" font-size="14.00">AppModule</text>
</g>
<!-- AppComponent&#45;&gt;AppModule -->
<g id="edge1" class="edge">
<title>AppComponent&#45;&gt;AppModule</title>
<path fill="none" stroke="black" d="M964,-122.13C964,-142.57 964,-173 964,-173 964,-173 633.97,-173 633.97,-173"/>
<polygon fill="black" stroke="black" points="633.97,-169.5 623.97,-173 633.97,-176.5 633.97,-169.5"/>
</g>
<!-- LoaderComponent -->
<g id="node2" class="node">
<title>LoaderComponent</title>
<polygon fill="#ffffb3" stroke="black" points="893.47,-122 772.53,-122 772.53,-86 893.47,-86 893.47,-122"/>
<text text-anchor="middle" x="833" y="-99.8" font-family="Times,serif" font-size="14.00">LoaderComponent</text>
</g>
<!-- LoaderComponent&#45;&gt;AppModule -->
<g id="edge2" class="edge">
<title>LoaderComponent&#45;&gt;AppModule</title>
<path fill="none" stroke="black" d="M833,-122.27C833,-140.56 833,-166 833,-166 833,-166 633.73,-166 633.73,-166"/>
<polygon fill="black" stroke="black" points="633.73,-162.5 623.73,-166 633.73,-169.5 633.73,-162.5"/>
</g>
<!-- AppComponent  -->
<g id="node10" class="node">
<title>AppComponent </title>
<polygon fill="#80b1d3" stroke="black" points="704.44,-252 595.56,-252 595.56,-216 704.44,-216 704.44,-252"/>
<text text-anchor="middle" x="650" y="-229.8" font-family="Times,serif" font-size="14.00">AppComponent </text>
</g>
<!-- AppModule&#45;&gt;AppComponent  -->
<g id="edge9" class="edge">
<title>AppModule&#45;&gt;AppComponent </title>
<path fill="none" stroke="black" stroke-dasharray="1,5" d="M609.68,-187.11C609.68,-187.11 609.68,-205.99 609.68,-205.99"/>
<polygon fill="black" stroke="black" points="606.18,-205.99 609.68,-215.99 613.18,-205.99 606.18,-205.99"/>
</g>
<!-- LoaderComponent  -->
<g id="node11" class="node">
<title>LoaderComponent </title>
<polygon fill="#80b1d3" stroke="black" points="577.48,-252 452.52,-252 452.52,-216 577.48,-216 577.48,-252"/>
<text text-anchor="middle" x="515" y="-229.8" font-family="Times,serif" font-size="14.00">LoaderComponent </text>
</g>
<!-- AppModule&#45;&gt;LoaderComponent  -->
<g id="edge10" class="edge">
<title>AppModule&#45;&gt;LoaderComponent </title>
<path fill="none" stroke="black" stroke-dasharray="1,5" d="M558.7,-187.11C558.7,-187.11 558.7,-205.99 558.7,-205.99"/>
<polygon fill="black" stroke="black" points="555.2,-205.99 558.7,-215.99 562.2,-205.99 555.2,-205.99"/>
</g>
<!-- CoreModule -->
<g id="node4" class="node">
<title>CoreModule</title>
<polygon fill="#8dd3c7" stroke="black" points="749.26,-122 746.26,-126 725.26,-126 722.26,-122 662.74,-122 662.74,-86 749.26,-86 749.26,-122"/>
<text text-anchor="middle" x="706" y="-99.8" font-family="Times,serif" font-size="14.00">CoreModule</text>
</g>
<!-- CoreModule&#45;&gt;AppModule -->
<g id="edge3" class="edge">
<title>CoreModule&#45;&gt;AppModule</title>
<path fill="none" stroke="black" d="M683.54,-122.01C683.54,-138.05 683.54,-159 683.54,-159 683.54,-159 633.89,-159 633.89,-159"/>
<polygon fill="black" stroke="black" points="633.89,-155.5 623.89,-159 633.89,-162.5 633.89,-155.5"/>
</g>
<!-- FuseConfigModule -->
<g id="node5" class="node">
<title>FuseConfigModule</title>
<polygon fill="#8dd3c7" stroke="black" points="644.38,-122 641.38,-126 620.38,-126 617.38,-122 519.62,-122 519.62,-86 644.38,-86 644.38,-122"/>
<text text-anchor="middle" x="582" y="-99.8" font-family="Times,serif" font-size="14.00">FuseConfigModule</text>
</g>
<!-- FuseConfigModule&#45;&gt;AppModule -->
<g id="edge4" class="edge">
<title>FuseConfigModule&#45;&gt;AppModule</title>
<path fill="none" stroke="black" d="M582,-122.11C582,-122.11 582,-140.99 582,-140.99"/>
<polygon fill="black" stroke="black" points="578.5,-140.99 582,-150.99 585.5,-140.99 578.5,-140.99"/>
</g>
<!-- FuseMockApiModule -->
<g id="node6" class="node">
<title>FuseMockApiModule</title>
<polygon fill="#8dd3c7" stroke="black" points="501.65,-122 498.65,-126 477.65,-126 474.65,-122 362.35,-122 362.35,-86 501.65,-86 501.65,-122"/>
<text text-anchor="middle" x="432" y="-99.8" font-family="Times,serif" font-size="14.00">FuseMockApiModule</text>
</g>
<!-- FuseMockApiModule&#45;&gt;AppModule -->
<g id="edge5" class="edge">
<title>FuseMockApiModule&#45;&gt;AppModule</title>
<path fill="none" stroke="black" d="M477.29,-122.01C477.29,-138.05 477.29,-159 477.29,-159 477.29,-159 530.32,-159 530.32,-159"/>
<polygon fill="black" stroke="black" points="530.32,-162.5 540.32,-159 530.32,-155.5 530.32,-162.5"/>
</g>
<!-- FuseModule -->
<g id="node7" class="node">
<title>FuseModule</title>
<polygon fill="#8dd3c7" stroke="black" points="343.99,-122 340.99,-126 319.99,-126 316.99,-122 258.01,-122 258.01,-86 343.99,-86 343.99,-122"/>
<text text-anchor="middle" x="301" y="-99.8" font-family="Times,serif" font-size="14.00">FuseModule</text>
</g>
<!-- FuseModule&#45;&gt;AppModule -->
<g id="edge6" class="edge">
<title>FuseModule&#45;&gt;AppModule</title>
<path fill="none" stroke="black" d="M301,-122.27C301,-140.56 301,-166 301,-166 301,-166 530.23,-166 530.23,-166"/>
<polygon fill="black" stroke="black" points="530.23,-169.5 540.23,-166 530.23,-162.5 530.23,-169.5"/>
</g>
<!-- LayoutModule -->
<g id="node8" class="node">
<title>LayoutModule</title>
<polygon fill="#8dd3c7" stroke="black" points="239.71,-122 236.71,-126 215.71,-126 212.71,-122 140.29,-122 140.29,-86 239.71,-86 239.71,-122"/>
<text text-anchor="middle" x="190" y="-99.8" font-family="Times,serif" font-size="14.00">LayoutModule</text>
</g>
<!-- LayoutModule&#45;&gt;AppModule -->
<g id="edge7" class="edge">
<title>LayoutModule&#45;&gt;AppModule</title>
<path fill="none" stroke="black" d="M190,-122.13C190,-142.57 190,-173 190,-173 190,-173 530.05,-173 530.05,-173"/>
<polygon fill="black" stroke="black" points="530.05,-176.5 540.05,-173 530.05,-169.5 530.05,-176.5"/>
</g>
<!-- SharedModule -->
<g id="node9" class="node">
<title>SharedModule</title>
<polygon fill="#8dd3c7" stroke="black" points="122.42,-122 119.42,-126 98.42,-126 95.42,-122 23.58,-122 23.58,-86 122.42,-86 122.42,-122"/>
<text text-anchor="middle" x="73" y="-99.8" font-family="Times,serif" font-size="14.00">SharedModule</text>
</g>
<!-- SharedModule&#45;&gt;AppModule -->
<g id="edge8" class="edge">
<title>SharedModule&#45;&gt;AppModule</title>
<path fill="none" stroke="black" d="M73,-122.01C73,-144.49 73,-180 73,-180 73,-180 529.91,-180 529.91,-180"/>
<polygon fill="black" stroke="black" points="529.91,-183.5 539.91,-180 529.91,-176.5 529.91,-183.5"/>
</g>
<!-- CacheCustomInterceptor -->
<g id="node12" class="node">
<title>CacheCustomInterceptor</title>
<ellipse fill="#fdb462" stroke="black" cx="1149" cy="-104" rx="107.64" ry="18"/>
<text text-anchor="middle" x="1149" y="-99.8" font-family="Times,serif" font-size="14.00">CacheCustomInterceptor</text>
</g>
<!-- CacheCustomInterceptor&#45;&gt;AppModule -->
<g id="edge11" class="edge">
<title>CacheCustomInterceptor&#45;&gt;AppModule</title>
<path fill="none" stroke="black" d="M1149,-122.01C1149,-144.49 1149,-180 1149,-180 1149,-180 633.69,-180 633.69,-180"/>
<polygon fill="black" stroke="black" points="633.69,-176.5 623.69,-180 633.69,-183.5 633.69,-176.5"/>
</g>
</g>
</svg>
