<?xml version="1.0" encoding="UTF-8" standalone="no"?>
<!DOCTYPE svg PUBLIC "-//W3C//DTD SVG 1.1//EN"
 "http://www.w3.org/Graphics/SVG/1.1/DTD/svg11.dtd">
<!-- Generated by graphviz version 2.47.0 (20210316.0004)
 -->
<!-- Title: dependencies Pages: 1 -->
<svg width="504pt" height="284pt"
 viewBox="0.00 0.00 504.00 284.00" xmlns="http://www.w3.org/2000/svg" xmlns:xlink="http://www.w3.org/1999/xlink">
<g id="graph0" class="graph" transform="scale(1 1) rotate(0) translate(4 280)">
<title>dependencies</title>
<polygon fill="white" stroke="transparent" points="-4,4 -4,-280 500,-280 500,4 -4,4"/>
<text text-anchor="start" x="227.01" y="-42.4" font-family="Times-12" font-weight="bold" font-size="14.00">Legend</text>
<polygon fill="#ffffb3" stroke="transparent" points="14,-10 14,-30 34,-30 34,-10 14,-10"/>
<text text-anchor="start" x="37.63" y="-15.4" font-family="Times-12" font-size="14.00"> &#160;Declarations</text>
<polygon fill="#8dd3c7" stroke="transparent" points="127,-10 127,-30 147,-30 147,-10 127,-10"/>
<text text-anchor="start" x="150.73" y="-15.4" font-family="Times-12" font-size="14.00"> &#160;Module</text>
<polygon fill="#80b1d3" stroke="transparent" points="213,-10 213,-30 233,-30 233,-10 213,-10"/>
<text text-anchor="start" x="236.78" y="-15.4" font-family="Times-12" font-size="14.00"> &#160;Bootstrap</text>
<polygon fill="#fdb462" stroke="transparent" points="310,-10 310,-30 330,-30 330,-10 310,-10"/>
<text text-anchor="start" x="333.67" y="-15.4" font-family="Times-12" font-size="14.00"> &#160;Providers</text>
<polygon fill="#fb8072" stroke="transparent" points="406,-10 406,-30 426,-30 426,-10 406,-10"/>
<text text-anchor="start" x="429.73" y="-15.4" font-family="Times-12" font-size="14.00"> &#160;Exports</text>
<g id="clust1" class="cluster">
<title>cluster_ScreenFilterModule</title>
<polygon fill="none" stroke="black" stroke-dasharray="1,5" points="81,-70 81,-268 415,-268 415,-70 81,-70"/>
</g>
<g id="clust4" class="cluster">
<title>cluster_ScreenFilterModule_imports</title>
<polygon fill="none" stroke="black" points="263,-78 263,-130 407,-130 407,-78 263,-78"/>
</g>
<g id="clust2" class="cluster">
<title>cluster_ScreenFilterModule_declarations</title>
<polygon fill="none" stroke="black" points="89,-78 89,-130 255,-130 255,-78 89,-78"/>
</g>
<g id="clust5" class="cluster">
<title>cluster_ScreenFilterModule_exports</title>
<polygon fill="none" stroke="black" points="163,-208 163,-260 333,-260 333,-208 163,-208"/>
</g>
<!-- ScreenFilterComponent -->
<g id="node1" class="node">
<title>ScreenFilterComponent</title>
<polygon fill="#ffffb3" stroke="black" points="246.75,-122 97.25,-122 97.25,-86 246.75,-86 246.75,-122"/>
<text text-anchor="middle" x="172" y="-99.8" font-family="Times,serif" font-size="14.00">ScreenFilterComponent</text>
</g>
<!-- ScreenFilterModule -->
<g id="node2" class="node">
<title>ScreenFilterModule</title>
<polygon fill="#8dd3c7" stroke="black" points="311.97,-187 308.97,-191 287.97,-191 284.97,-187 184.03,-187 184.03,-151 311.97,-151 311.97,-187"/>
<text text-anchor="middle" x="248" y="-164.8" font-family="Times,serif" font-size="14.00">ScreenFilterModule</text>
</g>
<!-- ScreenFilterComponent&#45;&gt;ScreenFilterModule -->
<g id="edge1" class="edge">
<title>ScreenFilterComponent&#45;&gt;ScreenFilterModule</title>
<path fill="none" stroke="black" d="M215.45,-122.11C215.45,-122.11 215.45,-140.99 215.45,-140.99"/>
<polygon fill="black" stroke="black" points="211.95,-140.99 215.45,-150.99 218.95,-140.99 211.95,-140.99"/>
</g>
<!-- ScreenFilterComponent  -->
<g id="node4" class="node">
<title>ScreenFilterComponent </title>
<polygon fill="#fb8072" stroke="black" points="324.75,-252 171.25,-252 171.25,-216 324.75,-216 324.75,-252"/>
<text text-anchor="middle" x="248" y="-229.8" font-family="Times,serif" font-size="14.00">ScreenFilterComponent </text>
</g>
<!-- ScreenFilterModule&#45;&gt;ScreenFilterComponent  -->
<g id="edge3" class="edge">
<title>ScreenFilterModule&#45;&gt;ScreenFilterComponent </title>
<path fill="none" stroke="black" stroke-dasharray="5,2" d="M248,-187.11C248,-187.11 248,-205.99 248,-205.99"/>
<polygon fill="black" stroke="black" points="244.5,-205.99 248,-215.99 251.5,-205.99 244.5,-205.99"/>
</g>
<!-- FuseDrawerModule -->
<g id="node3" class="node">
<title>FuseDrawerModule</title>
<polygon fill="#8dd3c7" stroke="black" points="398.96,-122 395.96,-126 374.96,-126 371.96,-122 271.04,-122 271.04,-86 398.96,-86 398.96,-122"/>
<text text-anchor="middle" x="335" y="-99.8" font-family="Times,serif" font-size="14.00">FuseDrawerModule</text>
</g>
<!-- FuseDrawerModule&#45;&gt;ScreenFilterModule -->
<g id="edge2" class="edge">
<title>FuseDrawerModule&#45;&gt;ScreenFilterModule</title>
<path fill="none" stroke="black" d="M291.5,-122.11C291.5,-122.11 291.5,-140.99 291.5,-140.99"/>
<polygon fill="black" stroke="black" points="288,-140.99 291.5,-150.99 295,-140.99 288,-140.99"/>
</g>
</g>
</svg>
