<?xml version="1.0" encoding="UTF-8" standalone="no"?>
<!DOCTYPE svg PUBLIC "-//W3C//DTD SVG 1.1//EN"
 "http://www.w3.org/Graphics/SVG/1.1/DTD/svg11.dtd">
<!-- Generated by graphviz version 2.47.0 (20210316.0004)
 -->
<!-- Title: dependencies Pages: 1 -->
<svg width="1061pt" height="284pt"
 viewBox="0.00 0.00 1061.00 284.00" xmlns="http://www.w3.org/2000/svg" xmlns:xlink="http://www.w3.org/1999/xlink">
<g id="graph0" class="graph" transform="scale(1 1) rotate(0) translate(4 280)">
<title>dependencies</title>
<polygon fill="white" stroke="transparent" points="-4,4 -4,-280 1057,-280 1057,4 -4,4"/>
<text text-anchor="start" x="505.51" y="-42.4" font-family="Times-12" font-weight="bold" font-size="14.00">Legend</text>
<polygon fill="#ffffb3" stroke="transparent" points="292.5,-10 292.5,-30 312.5,-30 312.5,-10 292.5,-10"/>
<text text-anchor="start" x="316.13" y="-15.4" font-family="Times-12" font-size="14.00"> &#160;Declarations</text>
<polygon fill="#8dd3c7" stroke="transparent" points="405.5,-10 405.5,-30 425.5,-30 425.5,-10 405.5,-10"/>
<text text-anchor="start" x="429.23" y="-15.4" font-family="Times-12" font-size="14.00"> &#160;Module</text>
<polygon fill="#80b1d3" stroke="transparent" points="491.5,-10 491.5,-30 511.5,-30 511.5,-10 491.5,-10"/>
<text text-anchor="start" x="515.28" y="-15.4" font-family="Times-12" font-size="14.00"> &#160;Bootstrap</text>
<polygon fill="#fdb462" stroke="transparent" points="588.5,-10 588.5,-30 608.5,-30 608.5,-10 588.5,-10"/>
<text text-anchor="start" x="612.17" y="-15.4" font-family="Times-12" font-size="14.00"> &#160;Providers</text>
<polygon fill="#fb8072" stroke="transparent" points="684.5,-10 684.5,-30 704.5,-30 704.5,-10 684.5,-10"/>
<text text-anchor="start" x="708.23" y="-15.4" font-family="Times-12" font-size="14.00"> &#160;Exports</text>
<g id="clust1" class="cluster">
<title>cluster_UiTabBasicGridModule</title>
<polygon fill="none" stroke="black" stroke-dasharray="1,5" points="8,-70 8,-268 1045,-268 1045,-70 8,-70"/>
</g>
<g id="clust2" class="cluster">
<title>cluster_UiTabBasicGridModule_declarations</title>
<polygon fill="none" stroke="black" points="861,-78 861,-130 1037,-130 1037,-78 861,-78"/>
</g>
<g id="clust5" class="cluster">
<title>cluster_UiTabBasicGridModule_exports</title>
<polygon fill="none" stroke="black" points="483,-208 483,-260 663,-260 663,-208 483,-208"/>
</g>
<g id="clust4" class="cluster">
<title>cluster_UiTabBasicGridModule_imports</title>
<polygon fill="none" stroke="black" points="16,-78 16,-130 853,-130 853,-78 16,-78"/>
</g>
<!-- TabBasicGridComponent -->
<g id="node1" class="node">
<title>TabBasicGridComponent</title>
<polygon fill="#ffffb3" stroke="black" points="1028.86,-122 869.14,-122 869.14,-86 1028.86,-86 1028.86,-122"/>
<text text-anchor="middle" x="949" y="-99.8" font-family="Times,serif" font-size="14.00">TabBasicGridComponent</text>
</g>
<!-- UiTabBasicGridModule -->
<g id="node2" class="node">
<title>UiTabBasicGridModule</title>
<polygon fill="#8dd3c7" stroke="black" points="649.07,-187 646.07,-191 625.07,-191 622.07,-187 496.93,-187 496.93,-151 649.07,-151 649.07,-187"/>
<text text-anchor="middle" x="573" y="-164.8" font-family="Times,serif" font-size="14.00">UiTabBasicGridModule</text>
</g>
<!-- TabBasicGridComponent&#45;&gt;UiTabBasicGridModule -->
<g id="edge1" class="edge">
<title>TabBasicGridComponent&#45;&gt;UiTabBasicGridModule</title>
<path fill="none" stroke="black" d="M949,-122.28C949,-143.32 949,-175 949,-175 949,-175 659.09,-175 659.09,-175"/>
<polygon fill="black" stroke="black" points="659.09,-171.5 649.09,-175 659.09,-178.5 659.09,-171.5"/>
</g>
<!-- TabBasicGridComponent  -->
<g id="node8" class="node">
<title>TabBasicGridComponent </title>
<polygon fill="#fb8072" stroke="black" points="654.86,-252 491.14,-252 491.14,-216 654.86,-216 654.86,-252"/>
<text text-anchor="middle" x="573" y="-229.8" font-family="Times,serif" font-size="14.00">TabBasicGridComponent </text>
</g>
<!-- UiTabBasicGridModule&#45;&gt;TabBasicGridComponent  -->
<g id="edge7" class="edge">
<title>UiTabBasicGridModule&#45;&gt;TabBasicGridComponent </title>
<path fill="none" stroke="black" stroke-dasharray="5,2" d="M573,-187.11C573,-187.11 573,-205.99 573,-205.99"/>
<polygon fill="black" stroke="black" points="569.5,-205.99 573,-215.99 576.5,-205.99 569.5,-205.99"/>
</g>
<!-- FuseDrawerModule -->
<g id="node3" class="node">
<title>FuseDrawerModule</title>
<polygon fill="#8dd3c7" stroke="black" points="844.96,-122 841.96,-126 820.96,-126 817.96,-122 717.04,-122 717.04,-86 844.96,-86 844.96,-122"/>
<text text-anchor="middle" x="781" y="-99.8" font-family="Times,serif" font-size="14.00">FuseDrawerModule</text>
</g>
<!-- FuseDrawerModule&#45;&gt;UiTabBasicGridModule -->
<g id="edge2" class="edge">
<title>FuseDrawerModule&#45;&gt;UiTabBasicGridModule</title>
<path fill="none" stroke="black" d="M781,-122.02C781,-139.37 781,-163 781,-163 781,-163 659.27,-163 659.27,-163"/>
<polygon fill="black" stroke="black" points="659.27,-159.5 649.27,-163 659.27,-166.5 659.27,-159.5"/>
</g>
<!-- SharedModule -->
<g id="node4" class="node">
<title>SharedModule</title>
<polygon fill="#8dd3c7" stroke="black" points="699.42,-122 696.42,-126 675.42,-126 672.42,-122 600.58,-122 600.58,-86 699.42,-86 699.42,-122"/>
<text text-anchor="middle" x="650" y="-99.8" font-family="Times,serif" font-size="14.00">SharedModule</text>
</g>
<!-- SharedModule&#45;&gt;UiTabBasicGridModule -->
<g id="edge3" class="edge">
<title>SharedModule&#45;&gt;UiTabBasicGridModule</title>
<path fill="none" stroke="black" d="M624.91,-122.11C624.91,-122.11 624.91,-140.99 624.91,-140.99"/>
<polygon fill="black" stroke="black" points="621.41,-140.99 624.91,-150.99 628.41,-140.99 621.41,-140.99"/>
</g>
<!-- TabDynamicDialogModule -->
<g id="node5" class="node">
<title>TabDynamicDialogModule</title>
<polygon fill="#8dd3c7" stroke="black" points="582.24,-122 579.24,-126 558.24,-126 555.24,-122 411.76,-122 411.76,-86 582.24,-86 582.24,-122"/>
<text text-anchor="middle" x="497" y="-99.8" font-family="Times,serif" font-size="14.00">TabDynamicDialogModule</text>
</g>
<!-- TabDynamicDialogModule&#45;&gt;UiTabBasicGridModule -->
<g id="edge4" class="edge">
<title>TabDynamicDialogModule&#45;&gt;UiTabBasicGridModule</title>
<path fill="none" stroke="black" d="M539.67,-122.11C539.67,-122.11 539.67,-140.99 539.67,-140.99"/>
<polygon fill="black" stroke="black" points="536.17,-140.99 539.67,-150.99 543.17,-140.99 536.17,-140.99"/>
</g>
<!-- TabDynamicSidebarModule -->
<g id="node6" class="node">
<title>TabDynamicSidebarModule</title>
<polygon fill="#8dd3c7" stroke="black" points="393.9,-122 390.9,-126 369.9,-126 366.9,-122 218.1,-122 218.1,-86 393.9,-86 393.9,-122"/>
<text text-anchor="middle" x="306" y="-99.8" font-family="Times,serif" font-size="14.00">TabDynamicSidebarModule</text>
</g>
<!-- TabDynamicSidebarModule&#45;&gt;UiTabBasicGridModule -->
<g id="edge5" class="edge">
<title>TabDynamicSidebarModule&#45;&gt;UiTabBasicGridModule</title>
<path fill="none" stroke="black" d="M306,-122.02C306,-139.37 306,-163 306,-163 306,-163 486.85,-163 486.85,-163"/>
<polygon fill="black" stroke="black" points="486.85,-166.5 496.85,-163 486.85,-159.5 486.85,-166.5"/>
</g>
<!-- UiTabFormRendererModule -->
<g id="node7" class="node">
<title>UiTabFormRendererModule</title>
<polygon fill="#8dd3c7" stroke="black" points="200.45,-122 197.45,-126 176.45,-126 173.45,-122 23.55,-122 23.55,-86 200.45,-86 200.45,-122"/>
<text text-anchor="middle" x="112" y="-99.8" font-family="Times,serif" font-size="14.00">UiTabFormRendererModule</text>
</g>
<!-- UiTabFormRendererModule&#45;&gt;UiTabBasicGridModule -->
<g id="edge6" class="edge">
<title>UiTabFormRendererModule&#45;&gt;UiTabBasicGridModule</title>
<path fill="none" stroke="black" d="M112,-122.28C112,-143.32 112,-175 112,-175 112,-175 486.88,-175 486.88,-175"/>
<polygon fill="black" stroke="black" points="486.88,-178.5 496.88,-175 486.88,-171.5 486.88,-178.5"/>
</g>
</g>
</svg>
