<?xml version="1.0" encoding="UTF-8" standalone="no"?>
<!DOCTYPE svg PUBLIC "-//W3C//DTD SVG 1.1//EN"
 "http://www.w3.org/Graphics/SVG/1.1/DTD/svg11.dtd">
<!-- Generated by graphviz version 2.47.0 (20210316.0004)
 -->
<!-- Title: dependencies Pages: 1 -->
<svg width="546pt" height="211pt"
 viewBox="0.00 0.00 546.00 211.00" xmlns="http://www.w3.org/2000/svg" xmlns:xlink="http://www.w3.org/1999/xlink">
<g id="graph0" class="graph" transform="scale(1 1) rotate(0) translate(4 207)">
<title>dependencies</title>
<polygon fill="white" stroke="transparent" points="-4,4 -4,-207 542,-207 542,4 -4,4"/>
<text text-anchor="start" x="248.01" y="-42.4" font-family="Times-12" font-weight="bold" font-size="14.00">Legend</text>
<polygon fill="#ffffb3" stroke="transparent" points="35,-10 35,-30 55,-30 55,-10 35,-10"/>
<text text-anchor="start" x="58.63" y="-15.4" font-family="Times-12" font-size="14.00"> &#160;Declarations</text>
<polygon fill="#8dd3c7" stroke="transparent" points="148,-10 148,-30 168,-30 168,-10 148,-10"/>
<text text-anchor="start" x="171.73" y="-15.4" font-family="Times-12" font-size="14.00"> &#160;Module</text>
<polygon fill="#80b1d3" stroke="transparent" points="234,-10 234,-30 254,-30 254,-10 234,-10"/>
<text text-anchor="start" x="257.78" y="-15.4" font-family="Times-12" font-size="14.00"> &#160;Bootstrap</text>
<polygon fill="#fdb462" stroke="transparent" points="331,-10 331,-30 351,-30 351,-10 331,-10"/>
<text text-anchor="start" x="354.67" y="-15.4" font-family="Times-12" font-size="14.00"> &#160;Providers</text>
<polygon fill="#fb8072" stroke="transparent" points="427,-10 427,-30 447,-30 447,-10 427,-10"/>
<text text-anchor="start" x="450.73" y="-15.4" font-family="Times-12" font-size="14.00"> &#160;Exports</text>
<g id="clust1" class="cluster">
<title>cluster_AuthConfirmationRequiredModule</title>
<polygon fill="none" stroke="black" stroke-dasharray="1,5" points="8,-70 8,-195 530,-195 530,-70 8,-70"/>
</g>
<g id="clust4" class="cluster">
<title>cluster_AuthConfirmationRequiredModule_imports</title>
<polygon fill="none" stroke="black" points="276,-78 276,-130 522,-130 522,-78 276,-78"/>
</g>
<g id="clust2" class="cluster">
<title>cluster_AuthConfirmationRequiredModule_declarations</title>
<polygon fill="none" stroke="black" points="16,-78 16,-130 268,-130 268,-78 16,-78"/>
</g>
<!-- AuthConfirmationRequiredComponent -->
<g id="node1" class="node">
<title>AuthConfirmationRequiredComponent</title>
<polygon fill="#ffffb3" stroke="black" points="260.08,-122 23.92,-122 23.92,-86 260.08,-86 260.08,-122"/>
<text text-anchor="middle" x="142" y="-99.8" font-family="Times,serif" font-size="14.00">AuthConfirmationRequiredComponent</text>
</g>
<!-- AuthConfirmationRequiredModule -->
<g id="node2" class="node">
<title>AuthConfirmationRequiredModule</title>
<polygon fill="#8dd3c7" stroke="black" points="440.3,-187 437.3,-191 416.3,-191 413.3,-187 225.7,-187 225.7,-151 440.3,-151 440.3,-187"/>
<text text-anchor="middle" x="333" y="-164.8" font-family="Times,serif" font-size="14.00">AuthConfirmationRequiredModule</text>
</g>
<!-- AuthConfirmationRequiredComponent&#45;&gt;AuthConfirmationRequiredModule -->
<g id="edge1" class="edge">
<title>AuthConfirmationRequiredComponent&#45;&gt;AuthConfirmationRequiredModule</title>
<path fill="none" stroke="black" d="M242.95,-122.11C242.95,-122.11 242.95,-140.99 242.95,-140.99"/>
<polygon fill="black" stroke="black" points="239.45,-140.99 242.95,-150.99 246.45,-140.99 239.45,-140.99"/>
</g>
<!-- FuseCardModule -->
<g id="node3" class="node">
<title>FuseCardModule</title>
<polygon fill="#8dd3c7" stroke="black" points="513.7,-122 510.7,-126 489.7,-126 486.7,-122 400.3,-122 400.3,-86 513.7,-86 513.7,-122"/>
<text text-anchor="middle" x="457" y="-99.8" font-family="Times,serif" font-size="14.00">FuseCardModule</text>
</g>
<!-- FuseCardModule&#45;&gt;AuthConfirmationRequiredModule -->
<g id="edge2" class="edge">
<title>FuseCardModule&#45;&gt;AuthConfirmationRequiredModule</title>
<path fill="none" stroke="black" d="M420.27,-122.11C420.27,-122.11 420.27,-140.99 420.27,-140.99"/>
<polygon fill="black" stroke="black" points="416.77,-140.99 420.27,-150.99 423.77,-140.99 416.77,-140.99"/>
</g>
<!-- SharedModule -->
<g id="node4" class="node">
<title>SharedModule</title>
<polygon fill="#8dd3c7" stroke="black" points="382.42,-122 379.42,-126 358.42,-126 355.42,-122 283.58,-122 283.58,-86 382.42,-86 382.42,-122"/>
<text text-anchor="middle" x="333" y="-99.8" font-family="Times,serif" font-size="14.00">SharedModule</text>
</g>
<!-- SharedModule&#45;&gt;AuthConfirmationRequiredModule -->
<g id="edge3" class="edge">
<title>SharedModule&#45;&gt;AuthConfirmationRequiredModule</title>
<path fill="none" stroke="black" d="M333,-122.11C333,-122.11 333,-140.99 333,-140.99"/>
<polygon fill="black" stroke="black" points="329.5,-140.99 333,-150.99 336.5,-140.99 329.5,-140.99"/>
</g>
</g>
</svg>
