<?xml version="1.0" encoding="UTF-8" standalone="no"?>
<!DOCTYPE svg PUBLIC "-//W3C//DTD SVG 1.1//EN"
 "http://www.w3.org/Graphics/SVG/1.1/DTD/svg11.dtd">
<!-- Generated by graphviz version 2.47.0 (20210316.0004)
 -->
<!-- Title: dependencies Pages: 1 -->
<svg width="1614pt" height="284pt"
 viewBox="0.00 0.00 1614.00 284.00" xmlns="http://www.w3.org/2000/svg" xmlns:xlink="http://www.w3.org/1999/xlink">
<g id="graph0" class="graph" transform="scale(1 1) rotate(0) translate(4 280)">
<title>dependencies</title>
<polygon fill="white" stroke="transparent" points="-4,4 -4,-280 1610,-280 1610,4 -4,4"/>
<text text-anchor="start" x="782.01" y="-42.4" font-family="Times-12" font-weight="bold" font-size="14.00">Legend</text>
<polygon fill="#ffffb3" stroke="transparent" points="569,-10 569,-30 589,-30 589,-10 569,-10"/>
<text text-anchor="start" x="592.63" y="-15.4" font-family="Times-12" font-size="14.00"> &#160;Declarations</text>
<polygon fill="#8dd3c7" stroke="transparent" points="682,-10 682,-30 702,-30 702,-10 682,-10"/>
<text text-anchor="start" x="705.73" y="-15.4" font-family="Times-12" font-size="14.00"> &#160;Module</text>
<polygon fill="#80b1d3" stroke="transparent" points="768,-10 768,-30 788,-30 788,-10 768,-10"/>
<text text-anchor="start" x="791.78" y="-15.4" font-family="Times-12" font-size="14.00"> &#160;Bootstrap</text>
<polygon fill="#fdb462" stroke="transparent" points="865,-10 865,-30 885,-30 885,-10 865,-10"/>
<text text-anchor="start" x="888.67" y="-15.4" font-family="Times-12" font-size="14.00"> &#160;Providers</text>
<polygon fill="#fb8072" stroke="transparent" points="961,-10 961,-30 981,-30 981,-10 961,-10"/>
<text text-anchor="start" x="984.73" y="-15.4" font-family="Times-12" font-size="14.00"> &#160;Exports</text>
<g id="clust1" class="cluster">
<title>cluster_ModernLayoutModule</title>
<polygon fill="none" stroke="black" stroke-dasharray="1,5" points="8,-70 8,-268 1598,-268 1598,-70 8,-70"/>
</g>
<g id="clust2" class="cluster">
<title>cluster_ModernLayoutModule_declarations</title>
<polygon fill="none" stroke="black" points="1408,-78 1408,-130 1590,-130 1590,-78 1408,-78"/>
</g>
<g id="clust5" class="cluster">
<title>cluster_ModernLayoutModule_exports</title>
<polygon fill="none" stroke="black" points="605,-208 605,-260 789,-260 789,-208 605,-208"/>
</g>
<g id="clust4" class="cluster">
<title>cluster_ModernLayoutModule_imports</title>
<polygon fill="none" stroke="black" points="16,-78 16,-130 1400,-130 1400,-78 16,-78"/>
</g>
<!-- ModernLayoutComponent -->
<g id="node1" class="node">
<title>ModernLayoutComponent</title>
<polygon fill="#ffffb3" stroke="black" points="1581.81,-122 1416.19,-122 1416.19,-86 1581.81,-86 1581.81,-122"/>
<text text-anchor="middle" x="1499" y="-99.8" font-family="Times,serif" font-size="14.00">ModernLayoutComponent</text>
</g>
<!-- ModernLayoutModule -->
<g id="node2" class="node">
<title>ModernLayoutModule</title>
<polygon fill="#8dd3c7" stroke="black" points="768.53,-187 765.53,-191 744.53,-191 741.53,-187 625.47,-187 625.47,-151 768.53,-151 768.53,-187"/>
<text text-anchor="middle" x="697" y="-164.8" font-family="Times,serif" font-size="14.00">ModernLayoutModule</text>
</g>
<!-- ModernLayoutComponent&#45;&gt;ModernLayoutModule -->
<g id="edge1" class="edge">
<title>ModernLayoutComponent&#45;&gt;ModernLayoutModule</title>
<path fill="none" stroke="black" d="M1499,-122.25C1499,-145.02 1499,-181 1499,-181 1499,-181 778.88,-181 778.88,-181"/>
<polygon fill="black" stroke="black" points="778.88,-177.5 768.88,-181 778.88,-184.5 778.88,-177.5"/>
</g>
<!-- ModernLayoutComponent  -->
<g id="node13" class="node">
<title>ModernLayoutComponent </title>
<polygon fill="#fb8072" stroke="black" points="781.31,-252 612.69,-252 612.69,-216 781.31,-216 781.31,-252"/>
<text text-anchor="middle" x="697" y="-229.8" font-family="Times,serif" font-size="14.00">ModernLayoutComponent </text>
</g>
<!-- ModernLayoutModule&#45;&gt;ModernLayoutComponent  -->
<g id="edge12" class="edge">
<title>ModernLayoutModule&#45;&gt;ModernLayoutComponent </title>
<path fill="none" stroke="black" stroke-dasharray="5,2" d="M697,-187.11C697,-187.11 697,-205.99 697,-205.99"/>
<polygon fill="black" stroke="black" points="693.5,-205.99 697,-215.99 700.5,-205.99 693.5,-205.99"/>
</g>
<!-- FuseFullscreenModule -->
<g id="node3" class="node">
<title>FuseFullscreenModule</title>
<polygon fill="#8dd3c7" stroke="black" points="1392.3,-122 1389.3,-126 1368.3,-126 1365.3,-122 1247.7,-122 1247.7,-86 1392.3,-86 1392.3,-122"/>
<text text-anchor="middle" x="1320" y="-99.8" font-family="Times,serif" font-size="14.00">FuseFullscreenModule</text>
</g>
<!-- FuseFullscreenModule&#45;&gt;ModernLayoutModule -->
<g id="edge2" class="edge">
<title>FuseFullscreenModule&#45;&gt;ModernLayoutModule</title>
<path fill="none" stroke="black" d="M1320,-122.28C1320,-143.32 1320,-175 1320,-175 1320,-175 778.77,-175 778.77,-175"/>
<polygon fill="black" stroke="black" points="778.77,-171.5 768.77,-175 778.77,-178.5 778.77,-171.5"/>
</g>
<!-- FuseLoadingBarModule -->
<g id="node4" class="node">
<title>FuseLoadingBarModule</title>
<polygon fill="#8dd3c7" stroke="black" points="1229.36,-122 1226.36,-126 1205.36,-126 1202.36,-122 1076.64,-122 1076.64,-86 1229.36,-86 1229.36,-122"/>
<text text-anchor="middle" x="1153" y="-99.8" font-family="Times,serif" font-size="14.00">FuseLoadingBarModule</text>
</g>
<!-- FuseLoadingBarModule&#45;&gt;ModernLayoutModule -->
<g id="edge3" class="edge">
<title>FuseLoadingBarModule&#45;&gt;ModernLayoutModule</title>
<path fill="none" stroke="black" d="M1153,-122.11C1153,-141.34 1153,-169 1153,-169 1153,-169 778.75,-169 778.75,-169"/>
<polygon fill="black" stroke="black" points="778.75,-165.5 768.75,-169 778.75,-172.5 778.75,-165.5"/>
</g>
<!-- FuseNavigationModule -->
<g id="node5" class="node">
<title>FuseNavigationModule</title>
<polygon fill="#8dd3c7" stroke="black" points="1058.2,-122 1055.2,-126 1034.2,-126 1031.2,-122 909.8,-122 909.8,-86 1058.2,-86 1058.2,-122"/>
<text text-anchor="middle" x="984" y="-99.8" font-family="Times,serif" font-size="14.00">FuseNavigationModule</text>
</g>
<!-- FuseNavigationModule&#45;&gt;ModernLayoutModule -->
<g id="edge4" class="edge">
<title>FuseNavigationModule&#45;&gt;ModernLayoutModule</title>
<path fill="none" stroke="black" d="M984,-122.02C984,-139.37 984,-163 984,-163 984,-163 778.68,-163 778.68,-163"/>
<polygon fill="black" stroke="black" points="778.68,-159.5 768.68,-163 778.68,-166.5 778.68,-159.5"/>
</g>
<!-- LanguagesModule -->
<g id="node6" class="node">
<title>LanguagesModule</title>
<polygon fill="#8dd3c7" stroke="black" points="892.19,-122 889.19,-126 868.19,-126 865.19,-122 771.81,-122 771.81,-86 892.19,-86 892.19,-122"/>
<text text-anchor="middle" x="832" y="-99.8" font-family="Times,serif" font-size="14.00">LanguagesModule</text>
</g>
<!-- LanguagesModule&#45;&gt;ModernLayoutModule -->
<g id="edge5" class="edge">
<title>LanguagesModule&#45;&gt;ModernLayoutModule</title>
<path fill="none" stroke="black" d="M776.65,-122.24C776.65,-137.57 776.65,-157 776.65,-157 776.65,-157 775.86,-157 775.86,-157"/>
<polygon fill="black" stroke="black" points="778.73,-153.5 768.73,-157 778.73,-160.5 778.73,-153.5"/>
</g>
<!-- MessagesModule -->
<g id="node7" class="node">
<title>MessagesModule</title>
<polygon fill="#8dd3c7" stroke="black" points="753.97,-122 750.97,-126 729.97,-126 726.97,-122 640.03,-122 640.03,-86 753.97,-86 753.97,-122"/>
<text text-anchor="middle" x="697" y="-99.8" font-family="Times,serif" font-size="14.00">MessagesModule</text>
</g>
<!-- MessagesModule&#45;&gt;ModernLayoutModule -->
<g id="edge6" class="edge">
<title>MessagesModule&#45;&gt;ModernLayoutModule</title>
<path fill="none" stroke="black" d="M697,-122.11C697,-122.11 697,-140.99 697,-140.99"/>
<polygon fill="black" stroke="black" points="693.5,-140.99 697,-150.99 700.5,-140.99 693.5,-140.99"/>
</g>
<!-- NotificationsModule -->
<g id="node8" class="node">
<title>NotificationsModule</title>
<polygon fill="#8dd3c7" stroke="black" points="622.14,-122 619.14,-126 598.14,-126 595.14,-122 489.86,-122 489.86,-86 622.14,-86 622.14,-122"/>
<text text-anchor="middle" x="556" y="-99.8" font-family="Times,serif" font-size="14.00">NotificationsModule</text>
</g>
<!-- NotificationsModule&#45;&gt;ModernLayoutModule -->
<g id="edge7" class="edge">
<title>NotificationsModule&#45;&gt;ModernLayoutModule</title>
<path fill="none" stroke="black" d="M617.46,-122.24C617.46,-137.57 617.46,-157 617.46,-157 617.46,-157 618.25,-157 618.25,-157"/>
<polygon fill="black" stroke="black" points="615.38,-160.5 625.38,-157 615.38,-153.5 615.38,-160.5"/>
</g>
<!-- SearchModule -->
<g id="node9" class="node">
<title>SearchModule</title>
<polygon fill="#8dd3c7" stroke="black" points="471.64,-122 468.64,-126 447.64,-126 444.64,-122 374.36,-122 374.36,-86 471.64,-86 471.64,-122"/>
<text text-anchor="middle" x="423" y="-99.8" font-family="Times,serif" font-size="14.00">SearchModule</text>
</g>
<!-- SearchModule&#45;&gt;ModernLayoutModule -->
<g id="edge8" class="edge">
<title>SearchModule&#45;&gt;ModernLayoutModule</title>
<path fill="none" stroke="black" d="M423,-122.02C423,-139.37 423,-163 423,-163 423,-163 615.37,-163 615.37,-163"/>
<polygon fill="black" stroke="black" points="615.37,-166.5 625.37,-163 615.37,-159.5 615.37,-166.5"/>
</g>
<!-- SharedModule -->
<g id="node10" class="node">
<title>SharedModule</title>
<polygon fill="#8dd3c7" stroke="black" points="356.42,-122 353.42,-126 332.42,-126 329.42,-122 257.58,-122 257.58,-86 356.42,-86 356.42,-122"/>
<text text-anchor="middle" x="307" y="-99.8" font-family="Times,serif" font-size="14.00">SharedModule</text>
</g>
<!-- SharedModule&#45;&gt;ModernLayoutModule -->
<g id="edge9" class="edge">
<title>SharedModule&#45;&gt;ModernLayoutModule</title>
<path fill="none" stroke="black" d="M307,-122.11C307,-141.34 307,-169 307,-169 307,-169 615.47,-169 615.47,-169"/>
<polygon fill="black" stroke="black" points="615.47,-172.5 625.47,-169 615.47,-165.5 615.47,-172.5"/>
</g>
<!-- ShortcutsModule -->
<g id="node11" class="node">
<title>ShortcutsModule</title>
<polygon fill="#8dd3c7" stroke="black" points="240.43,-122 237.43,-126 216.43,-126 213.43,-122 127.57,-122 127.57,-86 240.43,-86 240.43,-122"/>
<text text-anchor="middle" x="184" y="-99.8" font-family="Times,serif" font-size="14.00">ShortcutsModule</text>
</g>
<!-- ShortcutsModule&#45;&gt;ModernLayoutModule -->
<g id="edge10" class="edge">
<title>ShortcutsModule&#45;&gt;ModernLayoutModule</title>
<path fill="none" stroke="black" d="M184,-122.28C184,-143.32 184,-175 184,-175 184,-175 615.4,-175 615.4,-175"/>
<polygon fill="black" stroke="black" points="615.4,-178.5 625.4,-175 615.4,-171.5 615.4,-178.5"/>
</g>
<!-- UserModule -->
<g id="node12" class="node">
<title>UserModule</title>
<polygon fill="#8dd3c7" stroke="black" points="109.98,-122 106.98,-126 85.98,-126 82.98,-122 24.02,-122 24.02,-86 109.98,-86 109.98,-122"/>
<text text-anchor="middle" x="67" y="-99.8" font-family="Times,serif" font-size="14.00">UserModule</text>
</g>
<!-- UserModule&#45;&gt;ModernLayoutModule -->
<g id="edge11" class="edge">
<title>UserModule&#45;&gt;ModernLayoutModule</title>
<path fill="none" stroke="black" d="M67,-122.25C67,-145.02 67,-181 67,-181 67,-181 615.34,-181 615.34,-181"/>
<polygon fill="black" stroke="black" points="615.34,-184.5 625.34,-181 615.34,-177.5 615.34,-184.5"/>
</g>
</g>
</svg>
