<?xml version="1.0" encoding="UTF-8" standalone="no"?>
<!DOCTYPE svg PUBLIC "-//W3C//DTD SVG 1.1//EN"
 "http://www.w3.org/Graphics/SVG/1.1/DTD/svg11.dtd">
<!-- Generated by graphviz version 2.47.0 (20210316.0004)
 -->
<!-- Title: dependencies Pages: 1 -->
<svg width="1606pt" height="284pt"
 viewBox="0.00 0.00 1606.00 284.00" xmlns="http://www.w3.org/2000/svg" xmlns:xlink="http://www.w3.org/1999/xlink">
<g id="graph0" class="graph" transform="scale(1 1) rotate(0) translate(4 280)">
<title>dependencies</title>
<polygon fill="white" stroke="transparent" points="-4,4 -4,-280 1602,-280 1602,4 -4,4"/>
<text text-anchor="start" x="778.01" y="-42.4" font-family="Times-12" font-weight="bold" font-size="14.00">Legend</text>
<polygon fill="#ffffb3" stroke="transparent" points="565,-10 565,-30 585,-30 585,-10 565,-10"/>
<text text-anchor="start" x="588.63" y="-15.4" font-family="Times-12" font-size="14.00"> &#160;Declarations</text>
<polygon fill="#8dd3c7" stroke="transparent" points="678,-10 678,-30 698,-30 698,-10 678,-10"/>
<text text-anchor="start" x="701.73" y="-15.4" font-family="Times-12" font-size="14.00"> &#160;Module</text>
<polygon fill="#80b1d3" stroke="transparent" points="764,-10 764,-30 784,-30 784,-10 764,-10"/>
<text text-anchor="start" x="787.78" y="-15.4" font-family="Times-12" font-size="14.00"> &#160;Bootstrap</text>
<polygon fill="#fdb462" stroke="transparent" points="861,-10 861,-30 881,-30 881,-10 861,-10"/>
<text text-anchor="start" x="884.67" y="-15.4" font-family="Times-12" font-size="14.00"> &#160;Providers</text>
<polygon fill="#fb8072" stroke="transparent" points="957,-10 957,-30 977,-30 977,-10 957,-10"/>
<text text-anchor="start" x="980.73" y="-15.4" font-family="Times-12" font-size="14.00"> &#160;Exports</text>
<g id="clust1" class="cluster">
<title>cluster_ClassyLayoutModule</title>
<polygon fill="none" stroke="black" stroke-dasharray="1,5" points="8,-70 8,-268 1590,-268 1590,-70 8,-70"/>
</g>
<g id="clust2" class="cluster">
<title>cluster_ClassyLayoutModule_declarations</title>
<polygon fill="none" stroke="black" points="1408,-78 1408,-130 1582,-130 1582,-78 1408,-78"/>
</g>
<g id="clust4" class="cluster">
<title>cluster_ClassyLayoutModule_imports</title>
<polygon fill="none" stroke="black" points="16,-78 16,-130 1400,-130 1400,-78 16,-78"/>
</g>
<g id="clust5" class="cluster">
<title>cluster_ClassyLayoutModule_exports</title>
<polygon fill="none" stroke="black" points="608,-208 608,-260 786,-260 786,-208 608,-208"/>
</g>
<!-- ClassyLayoutComponent -->
<g id="node1" class="node">
<title>ClassyLayoutComponent</title>
<polygon fill="#ffffb3" stroke="black" points="1574.32,-122 1415.68,-122 1415.68,-86 1574.32,-86 1574.32,-122"/>
<text text-anchor="middle" x="1495" y="-99.8" font-family="Times,serif" font-size="14.00">ClassyLayoutComponent</text>
</g>
<!-- ClassyLayoutModule -->
<g id="node2" class="node">
<title>ClassyLayoutModule</title>
<polygon fill="#8dd3c7" stroke="black" points="765.04,-187 762.04,-191 741.04,-191 738.04,-187 628.96,-187 628.96,-151 765.04,-151 765.04,-187"/>
<text text-anchor="middle" x="697" y="-164.8" font-family="Times,serif" font-size="14.00">ClassyLayoutModule</text>
</g>
<!-- ClassyLayoutComponent&#45;&gt;ClassyLayoutModule -->
<g id="edge1" class="edge">
<title>ClassyLayoutComponent&#45;&gt;ClassyLayoutModule</title>
<path fill="none" stroke="black" d="M1495,-122.01C1495,-144.49 1495,-180 1495,-180 1495,-180 775.38,-180 775.38,-180"/>
<polygon fill="black" stroke="black" points="775.38,-176.5 765.38,-180 775.38,-183.5 775.38,-176.5"/>
</g>
<!-- ClassyLayoutComponent  -->
<g id="node13" class="node">
<title>ClassyLayoutComponent </title>
<polygon fill="#fb8072" stroke="black" points="777.82,-252 616.18,-252 616.18,-216 777.82,-216 777.82,-252"/>
<text text-anchor="middle" x="697" y="-229.8" font-family="Times,serif" font-size="14.00">ClassyLayoutComponent </text>
</g>
<!-- ClassyLayoutModule&#45;&gt;ClassyLayoutComponent  -->
<g id="edge12" class="edge">
<title>ClassyLayoutModule&#45;&gt;ClassyLayoutComponent </title>
<path fill="none" stroke="black" stroke-dasharray="5,2" d="M697,-187.11C697,-187.11 697,-205.99 697,-205.99"/>
<polygon fill="black" stroke="black" points="693.5,-205.99 697,-215.99 700.5,-205.99 693.5,-205.99"/>
</g>
<!-- FuseFullscreenModule -->
<g id="node3" class="node">
<title>FuseFullscreenModule</title>
<polygon fill="#8dd3c7" stroke="black" points="1392.3,-122 1389.3,-126 1368.3,-126 1365.3,-122 1247.7,-122 1247.7,-86 1392.3,-86 1392.3,-122"/>
<text text-anchor="middle" x="1320" y="-99.8" font-family="Times,serif" font-size="14.00">FuseFullscreenModule</text>
</g>
<!-- FuseFullscreenModule&#45;&gt;ClassyLayoutModule -->
<g id="edge2" class="edge">
<title>FuseFullscreenModule&#45;&gt;ClassyLayoutModule</title>
<path fill="none" stroke="black" d="M1320,-122.13C1320,-142.57 1320,-173 1320,-173 1320,-173 775.16,-173 775.16,-173"/>
<polygon fill="black" stroke="black" points="775.16,-169.5 765.16,-173 775.16,-176.5 775.16,-169.5"/>
</g>
<!-- FuseLoadingBarModule -->
<g id="node4" class="node">
<title>FuseLoadingBarModule</title>
<polygon fill="#8dd3c7" stroke="black" points="1229.36,-122 1226.36,-126 1205.36,-126 1202.36,-122 1076.64,-122 1076.64,-86 1229.36,-86 1229.36,-122"/>
<text text-anchor="middle" x="1153" y="-99.8" font-family="Times,serif" font-size="14.00">FuseLoadingBarModule</text>
</g>
<!-- FuseLoadingBarModule&#45;&gt;ClassyLayoutModule -->
<g id="edge3" class="edge">
<title>FuseLoadingBarModule&#45;&gt;ClassyLayoutModule</title>
<path fill="none" stroke="black" d="M1153,-122.27C1153,-140.56 1153,-166 1153,-166 1153,-166 775.27,-166 775.27,-166"/>
<polygon fill="black" stroke="black" points="775.27,-162.5 765.27,-166 775.27,-169.5 775.27,-162.5"/>
</g>
<!-- FuseNavigationModule -->
<g id="node5" class="node">
<title>FuseNavigationModule</title>
<polygon fill="#8dd3c7" stroke="black" points="1058.2,-122 1055.2,-126 1034.2,-126 1031.2,-122 909.8,-122 909.8,-86 1058.2,-86 1058.2,-122"/>
<text text-anchor="middle" x="984" y="-99.8" font-family="Times,serif" font-size="14.00">FuseNavigationModule</text>
</g>
<!-- FuseNavigationModule&#45;&gt;ClassyLayoutModule -->
<g id="edge4" class="edge">
<title>FuseNavigationModule&#45;&gt;ClassyLayoutModule</title>
<path fill="none" stroke="black" d="M984,-122.01C984,-138.05 984,-159 984,-159 984,-159 775.38,-159 775.38,-159"/>
<polygon fill="black" stroke="black" points="775.38,-155.5 765.38,-159 775.38,-162.5 775.38,-155.5"/>
</g>
<!-- LanguagesModule -->
<g id="node6" class="node">
<title>LanguagesModule</title>
<polygon fill="#8dd3c7" stroke="black" points="892.19,-122 889.19,-126 868.19,-126 865.19,-122 771.81,-122 771.81,-86 892.19,-86 892.19,-122"/>
<text text-anchor="middle" x="832" y="-99.8" font-family="Times,serif" font-size="14.00">LanguagesModule</text>
</g>
<!-- LanguagesModule&#45;&gt;ClassyLayoutModule -->
<g id="edge5" class="edge">
<title>LanguagesModule&#45;&gt;ClassyLayoutModule</title>
<path fill="none" stroke="black" d="M771.58,-104C764.44,-104 759.63,-104 759.63,-104 759.63,-104 759.63,-140.89 759.63,-140.89"/>
<polygon fill="black" stroke="black" points="756.13,-140.89 759.63,-150.89 763.13,-140.89 756.13,-140.89"/>
</g>
<!-- MessagesModule -->
<g id="node7" class="node">
<title>MessagesModule</title>
<polygon fill="#8dd3c7" stroke="black" points="753.97,-122 750.97,-126 729.97,-126 726.97,-122 640.03,-122 640.03,-86 753.97,-86 753.97,-122"/>
<text text-anchor="middle" x="697" y="-99.8" font-family="Times,serif" font-size="14.00">MessagesModule</text>
</g>
<!-- MessagesModule&#45;&gt;ClassyLayoutModule -->
<g id="edge6" class="edge">
<title>MessagesModule&#45;&gt;ClassyLayoutModule</title>
<path fill="none" stroke="black" d="M697,-122.11C697,-122.11 697,-140.99 697,-140.99"/>
<polygon fill="black" stroke="black" points="693.5,-140.99 697,-150.99 700.5,-140.99 693.5,-140.99"/>
</g>
<!-- NotificationsModule -->
<g id="node8" class="node">
<title>NotificationsModule</title>
<polygon fill="#8dd3c7" stroke="black" points="622.14,-122 619.14,-126 598.14,-126 595.14,-122 489.86,-122 489.86,-86 622.14,-86 622.14,-122"/>
<text text-anchor="middle" x="556" y="-99.8" font-family="Times,serif" font-size="14.00">NotificationsModule</text>
</g>
<!-- NotificationsModule&#45;&gt;ClassyLayoutModule -->
<g id="edge7" class="edge">
<title>NotificationsModule&#45;&gt;ClassyLayoutModule</title>
<path fill="none" stroke="black" d="M622.47,-104C629.63,-104 634.37,-104 634.37,-104 634.37,-104 634.37,-140.89 634.37,-140.89"/>
<polygon fill="black" stroke="black" points="630.87,-140.89 634.37,-150.89 637.87,-140.89 630.87,-140.89"/>
</g>
<!-- SearchModule -->
<g id="node9" class="node">
<title>SearchModule</title>
<polygon fill="#8dd3c7" stroke="black" points="471.64,-122 468.64,-126 447.64,-126 444.64,-122 374.36,-122 374.36,-86 471.64,-86 471.64,-122"/>
<text text-anchor="middle" x="423" y="-99.8" font-family="Times,serif" font-size="14.00">SearchModule</text>
</g>
<!-- SearchModule&#45;&gt;ClassyLayoutModule -->
<g id="edge8" class="edge">
<title>SearchModule&#45;&gt;ClassyLayoutModule</title>
<path fill="none" stroke="black" d="M423,-122.01C423,-138.05 423,-159 423,-159 423,-159 618.92,-159 618.92,-159"/>
<polygon fill="black" stroke="black" points="618.92,-162.5 628.92,-159 618.92,-155.5 618.92,-162.5"/>
</g>
<!-- SharedModule -->
<g id="node10" class="node">
<title>SharedModule</title>
<polygon fill="#8dd3c7" stroke="black" points="356.42,-122 353.42,-126 332.42,-126 329.42,-122 257.58,-122 257.58,-86 356.42,-86 356.42,-122"/>
<text text-anchor="middle" x="307" y="-99.8" font-family="Times,serif" font-size="14.00">SharedModule</text>
</g>
<!-- SharedModule&#45;&gt;ClassyLayoutModule -->
<g id="edge9" class="edge">
<title>SharedModule&#45;&gt;ClassyLayoutModule</title>
<path fill="none" stroke="black" d="M307,-122.27C307,-140.56 307,-166 307,-166 307,-166 618.62,-166 618.62,-166"/>
<polygon fill="black" stroke="black" points="618.62,-169.5 628.62,-166 618.62,-162.5 618.62,-169.5"/>
</g>
<!-- ShortcutsModule -->
<g id="node11" class="node">
<title>ShortcutsModule</title>
<polygon fill="#8dd3c7" stroke="black" points="240.43,-122 237.43,-126 216.43,-126 213.43,-122 127.57,-122 127.57,-86 240.43,-86 240.43,-122"/>
<text text-anchor="middle" x="184" y="-99.8" font-family="Times,serif" font-size="14.00">ShortcutsModule</text>
</g>
<!-- ShortcutsModule&#45;&gt;ClassyLayoutModule -->
<g id="edge10" class="edge">
<title>ShortcutsModule&#45;&gt;ClassyLayoutModule</title>
<path fill="none" stroke="black" d="M184,-122.13C184,-142.57 184,-173 184,-173 184,-173 618.88,-173 618.88,-173"/>
<polygon fill="black" stroke="black" points="618.88,-176.5 628.88,-173 618.88,-169.5 618.88,-176.5"/>
</g>
<!-- UserModule -->
<g id="node12" class="node">
<title>UserModule</title>
<polygon fill="#8dd3c7" stroke="black" points="109.98,-122 106.98,-126 85.98,-126 82.98,-122 24.02,-122 24.02,-86 109.98,-86 109.98,-122"/>
<text text-anchor="middle" x="67" y="-99.8" font-family="Times,serif" font-size="14.00">UserModule</text>
</g>
<!-- UserModule&#45;&gt;ClassyLayoutModule -->
<g id="edge11" class="edge">
<title>UserModule&#45;&gt;ClassyLayoutModule</title>
<path fill="none" stroke="black" d="M67,-122.01C67,-144.49 67,-180 67,-180 67,-180 618.68,-180 618.68,-180"/>
<polygon fill="black" stroke="black" points="618.68,-183.5 628.68,-180 618.68,-176.5 618.68,-183.5"/>
</g>
</g>
</svg>
