<?xml version="1.0" encoding="UTF-8" standalone="no"?>
<!DOCTYPE svg PUBLIC "-//W3C//DTD SVG 1.1//EN"
 "http://www.w3.org/Graphics/SVG/1.1/DTD/svg11.dtd">
<!-- Generated by graphviz version 2.47.0 (20210316.0004)
 -->
<!-- Title: dependencies Pages: 1 -->
<svg width="504pt" height="211pt"
 viewBox="0.00 0.00 504.00 211.00" xmlns="http://www.w3.org/2000/svg" xmlns:xlink="http://www.w3.org/1999/xlink">
<g id="graph0" class="graph" transform="scale(1 1) rotate(0) translate(4 207)">
<title>dependencies</title>
<polygon fill="white" stroke="transparent" points="-4,4 -4,-207 500,-207 500,4 -4,4"/>
<text text-anchor="start" x="227.01" y="-42.4" font-family="Times-12" font-weight="bold" font-size="14.00">Legend</text>
<polygon fill="#ffffb3" stroke="transparent" points="14,-10 14,-30 34,-30 34,-10 14,-10"/>
<text text-anchor="start" x="37.63" y="-15.4" font-family="Times-12" font-size="14.00"> &#160;Declarations</text>
<polygon fill="#8dd3c7" stroke="transparent" points="127,-10 127,-30 147,-30 147,-10 127,-10"/>
<text text-anchor="start" x="150.73" y="-15.4" font-family="Times-12" font-size="14.00"> &#160;Module</text>
<polygon fill="#80b1d3" stroke="transparent" points="213,-10 213,-30 233,-30 233,-10 213,-10"/>
<text text-anchor="start" x="236.78" y="-15.4" font-family="Times-12" font-size="14.00"> &#160;Bootstrap</text>
<polygon fill="#fdb462" stroke="transparent" points="310,-10 310,-30 330,-30 330,-10 310,-10"/>
<text text-anchor="start" x="333.67" y="-15.4" font-family="Times-12" font-size="14.00"> &#160;Providers</text>
<polygon fill="#fb8072" stroke="transparent" points="406,-10 406,-30 426,-30 426,-10 406,-10"/>
<text text-anchor="start" x="429.73" y="-15.4" font-family="Times-12" font-size="14.00"> &#160;Exports</text>
<g id="clust1" class="cluster">
<title>cluster_TabCustomTrackMapModule</title>
<polygon fill="none" stroke="black" stroke-dasharray="1,5" points="30,-70 30,-195 466,-195 466,-70 30,-70"/>
</g>
<g id="clust4" class="cluster">
<title>cluster_TabCustomTrackMapModule_imports</title>
<polygon fill="none" stroke="black" points="266,-78 266,-130 458,-130 458,-78 266,-78"/>
</g>
<g id="clust2" class="cluster">
<title>cluster_TabCustomTrackMapModule_declarations</title>
<polygon fill="none" stroke="black" points="38,-78 38,-130 258,-130 258,-78 38,-78"/>
</g>
<!-- TabCustomTrackMapComponent -->
<g id="node1" class="node">
<title>TabCustomTrackMapComponent</title>
<polygon fill="#ffffb3" stroke="black" points="250.46,-122 45.54,-122 45.54,-86 250.46,-86 250.46,-122"/>
<text text-anchor="middle" x="148" y="-99.8" font-family="Times,serif" font-size="14.00">TabCustomTrackMapComponent</text>
</g>
<!-- TabCustomTrackMapModule -->
<g id="node2" class="node">
<title>TabCustomTrackMapModule</title>
<polygon fill="#8dd3c7" stroke="black" points="346.68,-187 343.68,-191 322.68,-191 319.68,-187 163.32,-187 163.32,-151 346.68,-151 346.68,-187"/>
<text text-anchor="middle" x="255" y="-164.8" font-family="Times,serif" font-size="14.00">TabCustomTrackMapModule</text>
</g>
<!-- TabCustomTrackMapComponent&#45;&gt;TabCustomTrackMapModule -->
<g id="edge1" class="edge">
<title>TabCustomTrackMapComponent&#45;&gt;TabCustomTrackMapModule</title>
<path fill="none" stroke="black" d="M206.95,-122.11C206.95,-122.11 206.95,-140.99 206.95,-140.99"/>
<polygon fill="black" stroke="black" points="203.45,-140.99 206.95,-150.99 210.45,-140.99 203.45,-140.99"/>
</g>
<!-- TabDynamicSidebarModule -->
<g id="node3" class="node">
<title>TabDynamicSidebarModule</title>
<polygon fill="#8dd3c7" stroke="black" points="449.9,-122 446.9,-126 425.9,-126 422.9,-122 274.1,-122 274.1,-86 449.9,-86 449.9,-122"/>
<text text-anchor="middle" x="362" y="-99.8" font-family="Times,serif" font-size="14.00">TabDynamicSidebarModule</text>
</g>
<!-- TabDynamicSidebarModule&#45;&gt;TabCustomTrackMapModule -->
<g id="edge2" class="edge">
<title>TabDynamicSidebarModule&#45;&gt;TabCustomTrackMapModule</title>
<path fill="none" stroke="black" d="M310.45,-122.11C310.45,-122.11 310.45,-140.99 310.45,-140.99"/>
<polygon fill="black" stroke="black" points="306.95,-140.99 310.45,-150.99 313.95,-140.99 306.95,-140.99"/>
</g>
</g>
</svg>
