<?xml version="1.0" encoding="UTF-8" standalone="no"?>
<!DOCTYPE svg PUBLIC "-//W3C//DTD SVG 1.1//EN"
 "http://www.w3.org/Graphics/SVG/1.1/DTD/svg11.dtd">
<!-- Generated by graphviz version 2.47.0 (20210316.0004)
 -->
<!-- Title: dependencies Pages: 1 -->
<svg width="1626pt" height="284pt"
 viewBox="0.00 0.00 1626.00 284.00" xmlns="http://www.w3.org/2000/svg" xmlns:xlink="http://www.w3.org/1999/xlink">
<g id="graph0" class="graph" transform="scale(1 1) rotate(0) translate(4 280)">
<title>dependencies</title>
<polygon fill="white" stroke="transparent" points="-4,4 -4,-280 1622,-280 1622,4 -4,4"/>
<text text-anchor="start" x="788.01" y="-42.4" font-family="Times-12" font-weight="bold" font-size="14.00">Legend</text>
<polygon fill="#ffffb3" stroke="transparent" points="575,-10 575,-30 595,-30 595,-10 575,-10"/>
<text text-anchor="start" x="598.63" y="-15.4" font-family="Times-12" font-size="14.00"> &#160;Declarations</text>
<polygon fill="#8dd3c7" stroke="transparent" points="688,-10 688,-30 708,-30 708,-10 688,-10"/>
<text text-anchor="start" x="711.73" y="-15.4" font-family="Times-12" font-size="14.00"> &#160;Module</text>
<polygon fill="#80b1d3" stroke="transparent" points="774,-10 774,-30 794,-30 794,-10 774,-10"/>
<text text-anchor="start" x="797.78" y="-15.4" font-family="Times-12" font-size="14.00"> &#160;Bootstrap</text>
<polygon fill="#fdb462" stroke="transparent" points="871,-10 871,-30 891,-30 891,-10 871,-10"/>
<text text-anchor="start" x="894.67" y="-15.4" font-family="Times-12" font-size="14.00"> &#160;Providers</text>
<polygon fill="#fb8072" stroke="transparent" points="967,-10 967,-30 987,-30 987,-10 967,-10"/>
<text text-anchor="start" x="990.73" y="-15.4" font-family="Times-12" font-size="14.00"> &#160;Exports</text>
<g id="clust1" class="cluster">
<title>cluster_EnterpriseLayoutModule</title>
<polygon fill="none" stroke="black" stroke-dasharray="1,5" points="8,-70 8,-268 1610,-268 1610,-70 8,-70"/>
</g>
<g id="clust4" class="cluster">
<title>cluster_EnterpriseLayoutModule_imports</title>
<polygon fill="none" stroke="black" points="218,-78 218,-130 1602,-130 1602,-78 218,-78"/>
</g>
<g id="clust2" class="cluster">
<title>cluster_EnterpriseLayoutModule_declarations</title>
<polygon fill="none" stroke="black" points="16,-78 16,-130 210,-130 210,-78 16,-78"/>
</g>
<g id="clust5" class="cluster">
<title>cluster_EnterpriseLayoutModule_exports</title>
<polygon fill="none" stroke="black" points="659,-208 659,-260 857,-260 857,-208 659,-208"/>
</g>
<!-- EnterpriseLayoutComponent -->
<g id="node1" class="node">
<title>EnterpriseLayoutComponent</title>
<polygon fill="#ffffb3" stroke="black" points="202.02,-122 23.98,-122 23.98,-86 202.02,-86 202.02,-122"/>
<text text-anchor="middle" x="113" y="-99.8" font-family="Times,serif" font-size="14.00">EnterpriseLayoutComponent</text>
</g>
<!-- EnterpriseLayoutModule -->
<g id="node2" class="node">
<title>EnterpriseLayoutModule</title>
<polygon fill="#8dd3c7" stroke="black" points="836.24,-187 833.24,-191 812.24,-191 809.24,-187 679.76,-187 679.76,-151 836.24,-151 836.24,-187"/>
<text text-anchor="middle" x="758" y="-164.8" font-family="Times,serif" font-size="14.00">EnterpriseLayoutModule</text>
</g>
<!-- EnterpriseLayoutComponent&#45;&gt;EnterpriseLayoutModule -->
<g id="edge1" class="edge">
<title>EnterpriseLayoutComponent&#45;&gt;EnterpriseLayoutModule</title>
<path fill="none" stroke="black" d="M113,-122.01C113,-144.49 113,-180 113,-180 113,-180 669.56,-180 669.56,-180"/>
<polygon fill="black" stroke="black" points="669.56,-183.5 679.56,-180 669.56,-176.5 669.56,-183.5"/>
</g>
<!-- EnterpriseLayoutComponent  -->
<g id="node13" class="node">
<title>EnterpriseLayoutComponent </title>
<polygon fill="#fb8072" stroke="black" points="849.02,-252 666.98,-252 666.98,-216 849.02,-216 849.02,-252"/>
<text text-anchor="middle" x="758" y="-229.8" font-family="Times,serif" font-size="14.00">EnterpriseLayoutComponent </text>
</g>
<!-- EnterpriseLayoutModule&#45;&gt;EnterpriseLayoutComponent  -->
<g id="edge12" class="edge">
<title>EnterpriseLayoutModule&#45;&gt;EnterpriseLayoutComponent </title>
<path fill="none" stroke="black" stroke-dasharray="5,2" d="M758,-187.11C758,-187.11 758,-205.99 758,-205.99"/>
<polygon fill="black" stroke="black" points="754.5,-205.99 758,-215.99 761.5,-205.99 754.5,-205.99"/>
</g>
<!-- FuseFullscreenModule -->
<g id="node3" class="node">
<title>FuseFullscreenModule</title>
<polygon fill="#8dd3c7" stroke="black" points="1594.3,-122 1591.3,-126 1570.3,-126 1567.3,-122 1449.7,-122 1449.7,-86 1594.3,-86 1594.3,-122"/>
<text text-anchor="middle" x="1522" y="-99.8" font-family="Times,serif" font-size="14.00">FuseFullscreenModule</text>
</g>
<!-- FuseFullscreenModule&#45;&gt;EnterpriseLayoutModule -->
<g id="edge2" class="edge">
<title>FuseFullscreenModule&#45;&gt;EnterpriseLayoutModule</title>
<path fill="none" stroke="black" d="M1522,-122.01C1522,-144.49 1522,-180 1522,-180 1522,-180 846.53,-180 846.53,-180"/>
<polygon fill="black" stroke="black" points="846.53,-176.5 836.53,-180 846.53,-183.5 846.53,-176.5"/>
</g>
<!-- FuseLoadingBarModule -->
<g id="node4" class="node">
<title>FuseLoadingBarModule</title>
<polygon fill="#8dd3c7" stroke="black" points="1431.36,-122 1428.36,-126 1407.36,-126 1404.36,-122 1278.64,-122 1278.64,-86 1431.36,-86 1431.36,-122"/>
<text text-anchor="middle" x="1355" y="-99.8" font-family="Times,serif" font-size="14.00">FuseLoadingBarModule</text>
</g>
<!-- FuseLoadingBarModule&#45;&gt;EnterpriseLayoutModule -->
<g id="edge3" class="edge">
<title>FuseLoadingBarModule&#45;&gt;EnterpriseLayoutModule</title>
<path fill="none" stroke="black" d="M1355,-122.13C1355,-142.57 1355,-173 1355,-173 1355,-173 846.35,-173 846.35,-173"/>
<polygon fill="black" stroke="black" points="846.35,-169.5 836.35,-173 846.35,-176.5 846.35,-169.5"/>
</g>
<!-- FuseNavigationModule -->
<g id="node5" class="node">
<title>FuseNavigationModule</title>
<polygon fill="#8dd3c7" stroke="black" points="1260.2,-122 1257.2,-126 1236.2,-126 1233.2,-122 1111.8,-122 1111.8,-86 1260.2,-86 1260.2,-122"/>
<text text-anchor="middle" x="1186" y="-99.8" font-family="Times,serif" font-size="14.00">FuseNavigationModule</text>
</g>
<!-- FuseNavigationModule&#45;&gt;EnterpriseLayoutModule -->
<g id="edge4" class="edge">
<title>FuseNavigationModule&#45;&gt;EnterpriseLayoutModule</title>
<path fill="none" stroke="black" d="M1186,-122.27C1186,-140.56 1186,-166 1186,-166 1186,-166 846.5,-166 846.5,-166"/>
<polygon fill="black" stroke="black" points="846.5,-162.5 836.5,-166 846.5,-169.5 846.5,-162.5"/>
</g>
<!-- LanguagesModule -->
<g id="node6" class="node">
<title>LanguagesModule</title>
<polygon fill="#8dd3c7" stroke="black" points="1094.19,-122 1091.19,-126 1070.19,-126 1067.19,-122 973.81,-122 973.81,-86 1094.19,-86 1094.19,-122"/>
<text text-anchor="middle" x="1034" y="-99.8" font-family="Times,serif" font-size="14.00">LanguagesModule</text>
</g>
<!-- LanguagesModule&#45;&gt;EnterpriseLayoutModule -->
<g id="edge5" class="edge">
<title>LanguagesModule&#45;&gt;EnterpriseLayoutModule</title>
<path fill="none" stroke="black" d="M1034,-122.01C1034,-138.05 1034,-159 1034,-159 1034,-159 846.35,-159 846.35,-159"/>
<polygon fill="black" stroke="black" points="846.35,-155.5 836.35,-159 846.35,-162.5 846.35,-155.5"/>
</g>
<!-- MessagesModule -->
<g id="node7" class="node">
<title>MessagesModule</title>
<polygon fill="#8dd3c7" stroke="black" points="955.97,-122 952.97,-126 931.97,-126 928.97,-122 842.03,-122 842.03,-86 955.97,-86 955.97,-122"/>
<text text-anchor="middle" x="899" y="-99.8" font-family="Times,serif" font-size="14.00">MessagesModule</text>
</g>
<!-- MessagesModule&#45;&gt;EnterpriseLayoutModule -->
<g id="edge6" class="edge">
<title>MessagesModule&#45;&gt;EnterpriseLayoutModule</title>
<path fill="none" stroke="black" d="M841.99,-104C835.05,-104 830.35,-104 830.35,-104 830.35,-104 830.35,-140.89 830.35,-140.89"/>
<polygon fill="black" stroke="black" points="826.85,-140.89 830.35,-150.89 833.85,-140.89 826.85,-140.89"/>
</g>
<!-- NotificationsModule -->
<g id="node8" class="node">
<title>NotificationsModule</title>
<polygon fill="#8dd3c7" stroke="black" points="824.14,-122 821.14,-126 800.14,-126 797.14,-122 691.86,-122 691.86,-86 824.14,-86 824.14,-122"/>
<text text-anchor="middle" x="758" y="-99.8" font-family="Times,serif" font-size="14.00">NotificationsModule</text>
</g>
<!-- NotificationsModule&#45;&gt;EnterpriseLayoutModule -->
<g id="edge7" class="edge">
<title>NotificationsModule&#45;&gt;EnterpriseLayoutModule</title>
<path fill="none" stroke="black" d="M758,-122.11C758,-122.11 758,-140.99 758,-140.99"/>
<polygon fill="black" stroke="black" points="754.5,-140.99 758,-150.99 761.5,-140.99 754.5,-140.99"/>
</g>
<!-- SearchModule -->
<g id="node9" class="node">
<title>SearchModule</title>
<polygon fill="#8dd3c7" stroke="black" points="673.64,-122 670.64,-126 649.64,-126 646.64,-122 576.36,-122 576.36,-86 673.64,-86 673.64,-122"/>
<text text-anchor="middle" x="625" y="-99.8" font-family="Times,serif" font-size="14.00">SearchModule</text>
</g>
<!-- SearchModule&#45;&gt;EnterpriseLayoutModule -->
<g id="edge8" class="edge">
<title>SearchModule&#45;&gt;EnterpriseLayoutModule</title>
<path fill="none" stroke="black" d="M673.67,-104C680.72,-104 685.65,-104 685.65,-104 685.65,-104 685.65,-140.89 685.65,-140.89"/>
<polygon fill="black" stroke="black" points="682.16,-140.89 685.65,-150.89 689.16,-140.89 682.16,-140.89"/>
</g>
<!-- SharedModule -->
<g id="node10" class="node">
<title>SharedModule</title>
<polygon fill="#8dd3c7" stroke="black" points="558.42,-122 555.42,-126 534.42,-126 531.42,-122 459.58,-122 459.58,-86 558.42,-86 558.42,-122"/>
<text text-anchor="middle" x="509" y="-99.8" font-family="Times,serif" font-size="14.00">SharedModule</text>
</g>
<!-- SharedModule&#45;&gt;EnterpriseLayoutModule -->
<g id="edge9" class="edge">
<title>SharedModule&#45;&gt;EnterpriseLayoutModule</title>
<path fill="none" stroke="black" d="M509,-122.01C509,-138.05 509,-159 509,-159 509,-159 669.56,-159 669.56,-159"/>
<polygon fill="black" stroke="black" points="669.56,-162.5 679.56,-159 669.56,-155.5 669.56,-162.5"/>
</g>
<!-- ShortcutsModule -->
<g id="node11" class="node">
<title>ShortcutsModule</title>
<polygon fill="#8dd3c7" stroke="black" points="442.43,-122 439.43,-126 418.43,-126 415.43,-122 329.57,-122 329.57,-86 442.43,-86 442.43,-122"/>
<text text-anchor="middle" x="386" y="-99.8" font-family="Times,serif" font-size="14.00">ShortcutsModule</text>
</g>
<!-- ShortcutsModule&#45;&gt;EnterpriseLayoutModule -->
<g id="edge10" class="edge">
<title>ShortcutsModule&#45;&gt;EnterpriseLayoutModule</title>
<path fill="none" stroke="black" d="M386,-122.27C386,-140.56 386,-166 386,-166 386,-166 669.56,-166 669.56,-166"/>
<polygon fill="black" stroke="black" points="669.56,-169.5 679.56,-166 669.56,-162.5 669.56,-169.5"/>
</g>
<!-- UserModule -->
<g id="node12" class="node">
<title>UserModule</title>
<polygon fill="#8dd3c7" stroke="black" points="311.98,-122 308.98,-126 287.98,-126 284.98,-122 226.02,-122 226.02,-86 311.98,-86 311.98,-122"/>
<text text-anchor="middle" x="269" y="-99.8" font-family="Times,serif" font-size="14.00">UserModule</text>
</g>
<!-- UserModule&#45;&gt;EnterpriseLayoutModule -->
<g id="edge11" class="edge">
<title>UserModule&#45;&gt;EnterpriseLayoutModule</title>
<path fill="none" stroke="black" d="M269,-122.13C269,-142.57 269,-173 269,-173 269,-173 669.7,-173 669.7,-173"/>
<polygon fill="black" stroke="black" points="669.7,-176.5 679.7,-173 669.7,-169.5 669.7,-176.5"/>
</g>
</g>
</svg>
