<?xml version="1.0" encoding="UTF-8" standalone="no"?>
<!DOCTYPE svg PUBLIC "-//W3C//DTD SVG 1.1//EN"
 "http://www.w3.org/Graphics/SVG/1.1/DTD/svg11.dtd">
<!-- Generated by graphviz version 2.47.0 (20210316.0004)
 -->
<!-- Title: dependencies Pages: 1 -->
<svg width="866pt" height="211pt"
 viewBox="0.00 0.00 866.00 211.00" xmlns="http://www.w3.org/2000/svg" xmlns:xlink="http://www.w3.org/1999/xlink">
<g id="graph0" class="graph" transform="scale(1 1) rotate(0) translate(4 207)">
<title>dependencies</title>
<polygon fill="white" stroke="transparent" points="-4,4 -4,-207 862,-207 862,4 -4,4"/>
<text text-anchor="start" x="408.01" y="-42.4" font-family="Times-12" font-weight="bold" font-size="14.00">Legend</text>
<polygon fill="#ffffb3" stroke="transparent" points="195,-10 195,-30 215,-30 215,-10 195,-10"/>
<text text-anchor="start" x="218.63" y="-15.4" font-family="Times-12" font-size="14.00"> &#160;Declarations</text>
<polygon fill="#8dd3c7" stroke="transparent" points="308,-10 308,-30 328,-30 328,-10 308,-10"/>
<text text-anchor="start" x="331.73" y="-15.4" font-family="Times-12" font-size="14.00"> &#160;Module</text>
<polygon fill="#80b1d3" stroke="transparent" points="394,-10 394,-30 414,-30 414,-10 394,-10"/>
<text text-anchor="start" x="417.78" y="-15.4" font-family="Times-12" font-size="14.00"> &#160;Bootstrap</text>
<polygon fill="#fdb462" stroke="transparent" points="491,-10 491,-30 511,-30 511,-10 491,-10"/>
<text text-anchor="start" x="514.67" y="-15.4" font-family="Times-12" font-size="14.00"> &#160;Providers</text>
<polygon fill="#fb8072" stroke="transparent" points="587,-10 587,-30 607,-30 607,-10 587,-10"/>
<text text-anchor="start" x="610.73" y="-15.4" font-family="Times-12" font-size="14.00"> &#160;Exports</text>
<g id="clust1" class="cluster">
<title>cluster_FuseModule</title>
<polygon fill="none" stroke="black" stroke-dasharray="1,5" points="8,-70 8,-195 850,-195 850,-70 8,-70"/>
</g>
<g id="clust3" class="cluster">
<title>cluster_FuseModule_imports</title>
<polygon fill="none" stroke="black" points="16,-78 16,-130 842,-130 842,-78 16,-78"/>
</g>
<!-- FuseConfirmationModule -->
<g id="node1" class="node">
<title>FuseConfirmationModule</title>
<polygon fill="#8dd3c7" stroke="black" points="833.93,-122 830.93,-126 809.93,-126 806.93,-122 672.07,-122 672.07,-86 833.93,-86 833.93,-122"/>
<text text-anchor="middle" x="753" y="-99.8" font-family="Times,serif" font-size="14.00">FuseConfirmationModule</text>
</g>
<!-- FuseModule -->
<g id="node6" class="node">
<title>FuseModule</title>
<polygon fill="#8dd3c7" stroke="black" points="461.99,-187 458.99,-191 437.99,-191 434.99,-187 376.01,-187 376.01,-151 461.99,-151 461.99,-187"/>
<text text-anchor="middle" x="419" y="-164.8" font-family="Times,serif" font-size="14.00">FuseModule</text>
</g>
<!-- FuseConfirmationModule&#45;&gt;FuseModule -->
<g id="edge1" class="edge">
<title>FuseConfirmationModule&#45;&gt;FuseModule</title>
<path fill="none" stroke="black" d="M753,-122.28C753,-143.32 753,-175 753,-175 753,-175 472.32,-175 472.32,-175"/>
<polygon fill="black" stroke="black" points="472.32,-171.5 462.32,-175 472.32,-178.5 472.32,-171.5"/>
</g>
<!-- FuseLoadingModule -->
<g id="node2" class="node">
<title>FuseLoadingModule</title>
<polygon fill="#8dd3c7" stroke="black" points="654.15,-122 651.15,-126 630.15,-126 627.15,-122 521.85,-122 521.85,-86 654.15,-86 654.15,-122"/>
<text text-anchor="middle" x="588" y="-99.8" font-family="Times,serif" font-size="14.00">FuseLoadingModule</text>
</g>
<!-- FuseLoadingModule&#45;&gt;FuseModule -->
<g id="edge2" class="edge">
<title>FuseLoadingModule&#45;&gt;FuseModule</title>
<path fill="none" stroke="black" d="M588,-122.02C588,-139.37 588,-163 588,-163 588,-163 472.08,-163 472.08,-163"/>
<polygon fill="black" stroke="black" points="472.08,-159.5 462.08,-163 472.08,-166.5 472.08,-159.5"/>
</g>
<!-- FuseMediaWatcherModule -->
<g id="node3" class="node">
<title>FuseMediaWatcherModule</title>
<polygon fill="#8dd3c7" stroke="black" points="503.67,-122 500.67,-126 479.67,-126 476.67,-122 334.33,-122 334.33,-86 503.67,-86 503.67,-122"/>
<text text-anchor="middle" x="419" y="-99.8" font-family="Times,serif" font-size="14.00">FuseMediaWatcherModule</text>
</g>
<!-- FuseMediaWatcherModule&#45;&gt;FuseModule -->
<g id="edge3" class="edge">
<title>FuseMediaWatcherModule&#45;&gt;FuseModule</title>
<path fill="none" stroke="black" d="M419,-122.11C419,-122.11 419,-140.99 419,-140.99"/>
<polygon fill="black" stroke="black" points="415.5,-140.99 419,-150.99 422.5,-140.99 415.5,-140.99"/>
</g>
<!-- FuseSplashScreenModule -->
<g id="node4" class="node">
<title>FuseSplashScreenModule</title>
<polygon fill="#8dd3c7" stroke="black" points="316.91,-122 313.91,-126 292.91,-126 289.91,-122 155.09,-122 155.09,-86 316.91,-86 316.91,-122"/>
<text text-anchor="middle" x="236" y="-99.8" font-family="Times,serif" font-size="14.00">FuseSplashScreenModule</text>
</g>
<!-- FuseSplashScreenModule&#45;&gt;FuseModule -->
<g id="edge4" class="edge">
<title>FuseSplashScreenModule&#45;&gt;FuseModule</title>
<path fill="none" stroke="black" d="M236,-122.02C236,-139.37 236,-163 236,-163 236,-163 365.63,-163 365.63,-163"/>
<polygon fill="black" stroke="black" points="365.63,-166.5 375.63,-163 365.63,-159.5 365.63,-166.5"/>
</g>
<!-- FuseUtilsModule -->
<g id="node5" class="node">
<title>FuseUtilsModule</title>
<polygon fill="#8dd3c7" stroke="black" points="137.71,-122 134.71,-126 113.71,-126 110.71,-122 24.29,-122 24.29,-86 137.71,-86 137.71,-122"/>
<text text-anchor="middle" x="81" y="-99.8" font-family="Times,serif" font-size="14.00">FuseUtilsModule</text>
</g>
<!-- FuseUtilsModule&#45;&gt;FuseModule -->
<g id="edge5" class="edge">
<title>FuseUtilsModule&#45;&gt;FuseModule</title>
<path fill="none" stroke="black" d="M81,-122.28C81,-143.32 81,-175 81,-175 81,-175 365.85,-175 365.85,-175"/>
<polygon fill="black" stroke="black" points="365.85,-178.5 375.85,-175 365.85,-171.5 365.85,-178.5"/>
</g>
</g>
</svg>
