<?xml version="1.0" encoding="UTF-8" standalone="no"?>
<!DOCTYPE svg PUBLIC "-//W3C//DTD SVG 1.1//EN"
 "http://www.w3.org/Graphics/SVG/1.1/DTD/svg11.dtd">
<!-- Generated by graphviz version 2.47.0 (20210316.0004)
 -->
<!-- Title: dependencies Pages: 1 -->
<svg width="846pt" height="284pt"
 viewBox="0.00 0.00 846.00 284.00" xmlns="http://www.w3.org/2000/svg" xmlns:xlink="http://www.w3.org/1999/xlink">
<g id="graph0" class="graph" transform="scale(1 1) rotate(0) translate(4 280)">
<title>dependencies</title>
<polygon fill="white" stroke="transparent" points="-4,4 -4,-280 842,-280 842,4 -4,4"/>
<text text-anchor="start" x="398.01" y="-42.4" font-family="Times-12" font-weight="bold" font-size="14.00">Legend</text>
<polygon fill="#ffffb3" stroke="transparent" points="185,-10 185,-30 205,-30 205,-10 185,-10"/>
<text text-anchor="start" x="208.63" y="-15.4" font-family="Times-12" font-size="14.00"> &#160;Declarations</text>
<polygon fill="#8dd3c7" stroke="transparent" points="298,-10 298,-30 318,-30 318,-10 298,-10"/>
<text text-anchor="start" x="321.73" y="-15.4" font-family="Times-12" font-size="14.00"> &#160;Module</text>
<polygon fill="#80b1d3" stroke="transparent" points="384,-10 384,-30 404,-30 404,-10 384,-10"/>
<text text-anchor="start" x="407.78" y="-15.4" font-family="Times-12" font-size="14.00"> &#160;Bootstrap</text>
<polygon fill="#fdb462" stroke="transparent" points="481,-10 481,-30 501,-30 501,-10 481,-10"/>
<text text-anchor="start" x="504.67" y="-15.4" font-family="Times-12" font-size="14.00"> &#160;Providers</text>
<polygon fill="#fb8072" stroke="transparent" points="577,-10 577,-30 597,-30 597,-10 577,-10"/>
<text text-anchor="start" x="600.73" y="-15.4" font-family="Times-12" font-size="14.00"> &#160;Exports</text>
<g id="clust1" class="cluster">
<title>cluster_UiTabCustomGanttChartModule</title>
<polygon fill="none" stroke="black" stroke-dasharray="1,5" points="8,-70 8,-268 830,-268 830,-70 8,-70"/>
</g>
<g id="clust2" class="cluster">
<title>cluster_UiTabCustomGanttChartModule_declarations</title>
<polygon fill="none" stroke="black" points="598,-78 598,-130 822,-130 822,-78 598,-78"/>
</g>
<g id="clust4" class="cluster">
<title>cluster_UiTabCustomGanttChartModule_imports</title>
<polygon fill="none" stroke="black" points="16,-78 16,-130 590,-130 590,-78 16,-78"/>
</g>
<g id="clust5" class="cluster">
<title>cluster_UiTabCustomGanttChartModule_exports</title>
<polygon fill="none" stroke="black" points="287,-208 287,-260 515,-260 515,-208 287,-208"/>
</g>
<!-- TabCustomGanttChartComponent -->
<g id="node1" class="node">
<title>TabCustomGanttChartComponent</title>
<polygon fill="#ffffb3" stroke="black" points="814.37,-122 605.63,-122 605.63,-86 814.37,-86 814.37,-122"/>
<text text-anchor="middle" x="710" y="-99.8" font-family="Times,serif" font-size="14.00">TabCustomGanttChartComponent</text>
</g>
<!-- UiTabCustomGanttChartModule -->
<g id="node2" class="node">
<title>UiTabCustomGanttChartModule</title>
<polygon fill="#8dd3c7" stroke="black" points="501.58,-187 498.58,-191 477.58,-191 474.58,-187 300.42,-187 300.42,-151 501.58,-151 501.58,-187"/>
<text text-anchor="middle" x="401" y="-164.8" font-family="Times,serif" font-size="14.00">UiTabCustomGanttChartModule</text>
</g>
<!-- TabCustomGanttChartComponent&#45;&gt;UiTabCustomGanttChartModule -->
<g id="edge1" class="edge">
<title>TabCustomGanttChartComponent&#45;&gt;UiTabCustomGanttChartModule</title>
<path fill="none" stroke="black" d="M710,-122.11C710,-141.34 710,-169 710,-169 710,-169 511.75,-169 511.75,-169"/>
<polygon fill="black" stroke="black" points="511.75,-165.5 501.75,-169 511.75,-172.5 511.75,-165.5"/>
</g>
<!-- TabCustomGanttChartComponent  -->
<g id="node6" class="node">
<title>TabCustomGanttChartComponent </title>
<polygon fill="#fb8072" stroke="black" points="507.37,-252 294.63,-252 294.63,-216 507.37,-216 507.37,-252"/>
<text text-anchor="middle" x="401" y="-229.8" font-family="Times,serif" font-size="14.00">TabCustomGanttChartComponent </text>
</g>
<!-- UiTabCustomGanttChartModule&#45;&gt;TabCustomGanttChartComponent  -->
<g id="edge5" class="edge">
<title>UiTabCustomGanttChartModule&#45;&gt;TabCustomGanttChartComponent </title>
<path fill="none" stroke="black" stroke-dasharray="5,2" d="M401,-187.11C401,-187.11 401,-205.99 401,-205.99"/>
<polygon fill="black" stroke="black" points="397.5,-205.99 401,-215.99 404.5,-205.99 397.5,-205.99"/>
</g>
<!-- TabDynamicDialogModule -->
<g id="node3" class="node">
<title>TabDynamicDialogModule</title>
<polygon fill="#8dd3c7" stroke="black" points="582.24,-122 579.24,-126 558.24,-126 555.24,-122 411.76,-122 411.76,-86 582.24,-86 582.24,-122"/>
<text text-anchor="middle" x="497" y="-99.8" font-family="Times,serif" font-size="14.00">TabDynamicDialogModule</text>
</g>
<!-- TabDynamicDialogModule&#45;&gt;UiTabCustomGanttChartModule -->
<g id="edge2" class="edge">
<title>TabDynamicDialogModule&#45;&gt;UiTabCustomGanttChartModule</title>
<path fill="none" stroke="black" d="M456.59,-122.11C456.59,-122.11 456.59,-140.99 456.59,-140.99"/>
<polygon fill="black" stroke="black" points="453.09,-140.99 456.59,-150.99 460.09,-140.99 453.09,-140.99"/>
</g>
<!-- TabDynamicSidebarModule -->
<g id="node4" class="node">
<title>TabDynamicSidebarModule</title>
<polygon fill="#8dd3c7" stroke="black" points="393.9,-122 390.9,-126 369.9,-126 366.9,-122 218.1,-122 218.1,-86 393.9,-86 393.9,-122"/>
<text text-anchor="middle" x="306" y="-99.8" font-family="Times,serif" font-size="14.00">TabDynamicSidebarModule</text>
</g>
<!-- TabDynamicSidebarModule&#45;&gt;UiTabCustomGanttChartModule -->
<g id="edge3" class="edge">
<title>TabDynamicSidebarModule&#45;&gt;UiTabCustomGanttChartModule</title>
<path fill="none" stroke="black" d="M347.08,-122.11C347.08,-122.11 347.08,-140.99 347.08,-140.99"/>
<polygon fill="black" stroke="black" points="343.58,-140.99 347.08,-150.99 350.58,-140.99 343.58,-140.99"/>
</g>
<!-- UiTabFormRendererModule -->
<g id="node5" class="node">
<title>UiTabFormRendererModule</title>
<polygon fill="#8dd3c7" stroke="black" points="200.45,-122 197.45,-126 176.45,-126 173.45,-122 23.55,-122 23.55,-86 200.45,-86 200.45,-122"/>
<text text-anchor="middle" x="112" y="-99.8" font-family="Times,serif" font-size="14.00">UiTabFormRendererModule</text>
</g>
<!-- UiTabFormRendererModule&#45;&gt;UiTabCustomGanttChartModule -->
<g id="edge4" class="edge">
<title>UiTabFormRendererModule&#45;&gt;UiTabCustomGanttChartModule</title>
<path fill="none" stroke="black" d="M112,-122.11C112,-141.34 112,-169 112,-169 112,-169 290.33,-169 290.33,-169"/>
<polygon fill="black" stroke="black" points="290.33,-172.5 300.33,-169 290.33,-165.5 290.33,-172.5"/>
</g>
</g>
</svg>
