<?xml version="1.0" encoding="UTF-8" standalone="no"?>
<!DOCTYPE svg PUBLIC "-//W3C//DTD SVG 1.1//EN"
 "http://www.w3.org/Graphics/SVG/1.1/DTD/svg11.dtd">
<!-- Generated by graphviz version 2.47.0 (20210316.0004)
 -->
<!-- Title: dependencies Pages: 1 -->
<svg width="504pt" height="211pt"
 viewBox="0.00 0.00 504.00 211.00" xmlns="http://www.w3.org/2000/svg" xmlns:xlink="http://www.w3.org/1999/xlink">
<g id="graph0" class="graph" transform="scale(1 1) rotate(0) translate(4 207)">
<title>dependencies</title>
<polygon fill="white" stroke="transparent" points="-4,4 -4,-207 500,-207 500,4 -4,4"/>
<text text-anchor="start" x="227.01" y="-42.4" font-family="Times-12" font-weight="bold" font-size="14.00">Legend</text>
<polygon fill="#ffffb3" stroke="transparent" points="14,-10 14,-30 34,-30 34,-10 14,-10"/>
<text text-anchor="start" x="37.63" y="-15.4" font-family="Times-12" font-size="14.00"> &#160;Declarations</text>
<polygon fill="#8dd3c7" stroke="transparent" points="127,-10 127,-30 147,-30 147,-10 127,-10"/>
<text text-anchor="start" x="150.73" y="-15.4" font-family="Times-12" font-size="14.00"> &#160;Module</text>
<polygon fill="#80b1d3" stroke="transparent" points="213,-10 213,-30 233,-30 233,-10 213,-10"/>
<text text-anchor="start" x="236.78" y="-15.4" font-family="Times-12" font-size="14.00"> &#160;Bootstrap</text>
<polygon fill="#fdb462" stroke="transparent" points="310,-10 310,-30 330,-30 330,-10 310,-10"/>
<text text-anchor="start" x="333.67" y="-15.4" font-family="Times-12" font-size="14.00"> &#160;Providers</text>
<polygon fill="#fb8072" stroke="transparent" points="406,-10 406,-30 426,-30 426,-10 406,-10"/>
<text text-anchor="start" x="429.73" y="-15.4" font-family="Times-12" font-size="14.00"> &#160;Exports</text>
<g id="clust1" class="cluster">
<title>cluster_TabCustomPlacePickerMapModule</title>
<polygon fill="none" stroke="black" stroke-dasharray="1,5" points="33,-70 33,-195 463,-195 463,-70 33,-70"/>
</g>
<g id="clust2" class="cluster">
<title>cluster_TabCustomPlacePickerMapModule_declarations</title>
<polygon fill="none" stroke="black" points="41,-78 41,-130 455,-130 455,-78 41,-78"/>
</g>
<!-- MapdialogComponent -->
<g id="node1" class="node">
<title>MapdialogComponent</title>
<polygon fill="#ffffb3" stroke="black" points="446.99,-122 305.01,-122 305.01,-86 446.99,-86 446.99,-122"/>
<text text-anchor="middle" x="376" y="-99.8" font-family="Times,serif" font-size="14.00">MapdialogComponent</text>
</g>
<!-- TabCustomPlacePickerMapModule -->
<g id="node3" class="node">
<title>TabCustomPlacePickerMapModule</title>
<polygon fill="#8dd3c7" stroke="black" points="365.12,-187 362.12,-191 341.12,-191 338.12,-187 148.88,-187 148.88,-151 365.12,-151 365.12,-187"/>
<text text-anchor="middle" x="257" y="-164.8" font-family="Times,serif" font-size="14.00">TabCustomPlacePickerMapModule</text>
</g>
<!-- MapdialogComponent&#45;&gt;TabCustomPlacePickerMapModule -->
<g id="edge1" class="edge">
<title>MapdialogComponent&#45;&gt;TabCustomPlacePickerMapModule</title>
<path fill="none" stroke="black" d="M335.16,-122.11C335.16,-122.11 335.16,-140.99 335.16,-140.99"/>
<polygon fill="black" stroke="black" points="331.66,-140.99 335.16,-150.99 338.66,-140.99 331.66,-140.99"/>
</g>
<!-- TabCustomPlacePickerMapComponent -->
<g id="node2" class="node">
<title>TabCustomPlacePickerMapComponent</title>
<polygon fill="#ffffb3" stroke="black" points="287.4,-122 48.6,-122 48.6,-86 287.4,-86 287.4,-122"/>
<text text-anchor="middle" x="168" y="-99.8" font-family="Times,serif" font-size="14.00">TabCustomPlacePickerMapComponent</text>
</g>
<!-- TabCustomPlacePickerMapComponent&#45;&gt;TabCustomPlacePickerMapModule -->
<g id="edge2" class="edge">
<title>TabCustomPlacePickerMapComponent&#45;&gt;TabCustomPlacePickerMapModule</title>
<path fill="none" stroke="black" d="M217.95,-122.11C217.95,-122.11 217.95,-140.99 217.95,-140.99"/>
<polygon fill="black" stroke="black" points="214.45,-140.99 217.95,-150.99 221.45,-140.99 214.45,-140.99"/>
</g>
</g>
</svg>
