<?xml version="1.0" encoding="UTF-8" standalone="no"?>
<!DOCTYPE svg PUBLIC "-//W3C//DTD SVG 1.1//EN"
 "http://www.w3.org/Graphics/SVG/1.1/DTD/svg11.dtd">
<!-- Generated by graphviz version 2.47.0 (20210316.0004)
 -->
<!-- Title: dependencies Pages: 1 -->
<svg width="504pt" height="284pt"
 viewBox="0.00 0.00 504.00 284.00" xmlns="http://www.w3.org/2000/svg" xmlns:xlink="http://www.w3.org/1999/xlink">
<g id="graph0" class="graph" transform="scale(1 1) rotate(0) translate(4 280)">
<title>dependencies</title>
<polygon fill="white" stroke="transparent" points="-4,4 -4,-280 500,-280 500,4 -4,4"/>
<text text-anchor="start" x="227.01" y="-42.4" font-family="Times-12" font-weight="bold" font-size="14.00">Legend</text>
<polygon fill="#ffffb3" stroke="transparent" points="14,-10 14,-30 34,-30 34,-10 14,-10"/>
<text text-anchor="start" x="37.63" y="-15.4" font-family="Times-12" font-size="14.00"> &#160;Declarations</text>
<polygon fill="#8dd3c7" stroke="transparent" points="127,-10 127,-30 147,-30 147,-10 127,-10"/>
<text text-anchor="start" x="150.73" y="-15.4" font-family="Times-12" font-size="14.00"> &#160;Module</text>
<polygon fill="#80b1d3" stroke="transparent" points="213,-10 213,-30 233,-30 233,-10 213,-10"/>
<text text-anchor="start" x="236.78" y="-15.4" font-family="Times-12" font-size="14.00"> &#160;Bootstrap</text>
<polygon fill="#fdb462" stroke="transparent" points="310,-10 310,-30 330,-30 330,-10 310,-10"/>
<text text-anchor="start" x="333.67" y="-15.4" font-family="Times-12" font-size="14.00"> &#160;Providers</text>
<polygon fill="#fb8072" stroke="transparent" points="406,-10 406,-30 426,-30 426,-10 406,-10"/>
<text text-anchor="start" x="429.73" y="-15.4" font-family="Times-12" font-size="14.00"> &#160;Exports</text>
<g id="clust1" class="cluster">
<title>cluster_FuseFullscreenModule</title>
<polygon fill="none" stroke="black" stroke-dasharray="1,5" points="49,-70 49,-268 447,-268 447,-70 49,-70"/>
</g>
<g id="clust2" class="cluster">
<title>cluster_FuseFullscreenModule_declarations</title>
<polygon fill="none" stroke="black" points="257,-78 257,-130 439,-130 439,-78 257,-78"/>
</g>
<g id="clust5" class="cluster">
<title>cluster_FuseFullscreenModule_exports</title>
<polygon fill="none" stroke="black" points="156,-208 156,-260 342,-260 342,-208 156,-208"/>
</g>
<g id="clust4" class="cluster">
<title>cluster_FuseFullscreenModule_imports</title>
<polygon fill="none" stroke="black" points="57,-78 57,-130 249,-130 249,-78 57,-78"/>
</g>
<!-- FuseFullscreenComponent -->
<g id="node1" class="node">
<title>FuseFullscreenComponent</title>
<polygon fill="#ffffb3" stroke="black" points="431.09,-122 264.91,-122 264.91,-86 431.09,-86 431.09,-122"/>
<text text-anchor="middle" x="348" y="-99.8" font-family="Times,serif" font-size="14.00">FuseFullscreenComponent</text>
</g>
<!-- FuseFullscreenModule -->
<g id="node2" class="node">
<title>FuseFullscreenModule</title>
<polygon fill="#8dd3c7" stroke="black" points="321.3,-187 318.3,-191 297.3,-191 294.3,-187 176.7,-187 176.7,-151 321.3,-151 321.3,-187"/>
<text text-anchor="middle" x="249" y="-164.8" font-family="Times,serif" font-size="14.00">FuseFullscreenModule</text>
</g>
<!-- FuseFullscreenComponent&#45;&gt;FuseFullscreenModule -->
<g id="edge1" class="edge">
<title>FuseFullscreenComponent&#45;&gt;FuseFullscreenModule</title>
<path fill="none" stroke="black" d="M293.05,-122.11C293.05,-122.11 293.05,-140.99 293.05,-140.99"/>
<polygon fill="black" stroke="black" points="289.55,-140.99 293.05,-150.99 296.55,-140.99 289.55,-140.99"/>
</g>
<!-- FuseFullscreenComponent  -->
<g id="node4" class="node">
<title>FuseFullscreenComponent </title>
<polygon fill="#fb8072" stroke="black" points="333.59,-252 164.41,-252 164.41,-216 333.59,-216 333.59,-252"/>
<text text-anchor="middle" x="249" y="-229.8" font-family="Times,serif" font-size="14.00">FuseFullscreenComponent </text>
</g>
<!-- FuseFullscreenModule&#45;&gt;FuseFullscreenComponent  -->
<g id="edge3" class="edge">
<title>FuseFullscreenModule&#45;&gt;FuseFullscreenComponent </title>
<path fill="none" stroke="black" stroke-dasharray="5,2" d="M249,-187.11C249,-187.11 249,-205.99 249,-205.99"/>
<polygon fill="black" stroke="black" points="245.5,-205.99 249,-215.99 252.5,-205.99 245.5,-205.99"/>
</g>
<!-- TabDynamicSidebarModule -->
<g id="node3" class="node">
<title>TabDynamicSidebarModule</title>
<polygon fill="#8dd3c7" stroke="black" points="240.9,-122 237.9,-126 216.9,-126 213.9,-122 65.1,-122 65.1,-86 240.9,-86 240.9,-122"/>
<text text-anchor="middle" x="153" y="-99.8" font-family="Times,serif" font-size="14.00">TabDynamicSidebarModule</text>
</g>
<!-- TabDynamicSidebarModule&#45;&gt;FuseFullscreenModule -->
<g id="edge2" class="edge">
<title>TabDynamicSidebarModule&#45;&gt;FuseFullscreenModule</title>
<path fill="none" stroke="black" d="M208.77,-122.11C208.77,-122.11 208.77,-140.99 208.77,-140.99"/>
<polygon fill="black" stroke="black" points="205.27,-140.99 208.77,-150.99 212.27,-140.99 205.27,-140.99"/>
</g>
</g>
</svg>
