<?xml version="1.0" encoding="UTF-8" standalone="no"?>
<!DOCTYPE svg PUBLIC "-//W3C//DTD SVG 1.1//EN"
 "http://www.w3.org/Graphics/SVG/1.1/DTD/svg11.dtd">
<!-- Generated by graphviz version 2.47.0 (20210316.0004)
 -->
<!-- Title: dependencies Pages: 1 -->
<svg width="636pt" height="211pt"
 viewBox="0.00 0.00 636.00 211.00" xmlns="http://www.w3.org/2000/svg" xmlns:xlink="http://www.w3.org/1999/xlink">
<g id="graph0" class="graph" transform="scale(1 1) rotate(0) translate(4 207)">
<title>dependencies</title>
<polygon fill="white" stroke="transparent" points="-4,4 -4,-207 632,-207 632,4 -4,4"/>
<text text-anchor="start" x="293.01" y="-42.4" font-family="Times-12" font-weight="bold" font-size="14.00">Legend</text>
<polygon fill="#ffffb3" stroke="transparent" points="80,-10 80,-30 100,-30 100,-10 80,-10"/>
<text text-anchor="start" x="103.63" y="-15.4" font-family="Times-12" font-size="14.00"> &#160;Declarations</text>
<polygon fill="#8dd3c7" stroke="transparent" points="193,-10 193,-30 213,-30 213,-10 193,-10"/>
<text text-anchor="start" x="216.73" y="-15.4" font-family="Times-12" font-size="14.00"> &#160;Module</text>
<polygon fill="#80b1d3" stroke="transparent" points="279,-10 279,-30 299,-30 299,-10 279,-10"/>
<text text-anchor="start" x="302.78" y="-15.4" font-family="Times-12" font-size="14.00"> &#160;Bootstrap</text>
<polygon fill="#fdb462" stroke="transparent" points="376,-10 376,-30 396,-30 396,-10 376,-10"/>
<text text-anchor="start" x="399.67" y="-15.4" font-family="Times-12" font-size="14.00"> &#160;Providers</text>
<polygon fill="#fb8072" stroke="transparent" points="472,-10 472,-30 492,-30 492,-10 472,-10"/>
<text text-anchor="start" x="495.73" y="-15.4" font-family="Times-12" font-size="14.00"> &#160;Exports</text>
<g id="clust1" class="cluster">
<title>cluster_AuthResetPasswordModule</title>
<polygon fill="none" stroke="black" stroke-dasharray="1,5" points="8,-70 8,-195 620,-195 620,-70 8,-70"/>
</g>
<g id="clust4" class="cluster">
<title>cluster_AuthResetPasswordModule_imports</title>
<polygon fill="none" stroke="black" points="234,-78 234,-130 612,-130 612,-78 234,-78"/>
</g>
<g id="clust2" class="cluster">
<title>cluster_AuthResetPasswordModule_declarations</title>
<polygon fill="none" stroke="black" points="16,-78 16,-130 226,-130 226,-78 16,-78"/>
</g>
<!-- AuthResetPasswordComponent -->
<g id="node1" class="node">
<title>AuthResetPasswordComponent</title>
<polygon fill="#ffffb3" stroke="black" points="218.08,-122 23.92,-122 23.92,-86 218.08,-86 218.08,-122"/>
<text text-anchor="middle" x="121" y="-99.8" font-family="Times,serif" font-size="14.00">AuthResetPasswordComponent</text>
</g>
<!-- AuthResetPasswordModule -->
<g id="node2" class="node">
<title>AuthResetPasswordModule</title>
<polygon fill="#8dd3c7" stroke="black" points="439.3,-187 436.3,-191 415.3,-191 412.3,-187 266.7,-187 266.7,-151 439.3,-151 439.3,-187"/>
<text text-anchor="middle" x="353" y="-164.8" font-family="Times,serif" font-size="14.00">AuthResetPasswordModule</text>
</g>
<!-- AuthResetPasswordComponent&#45;&gt;AuthResetPasswordModule -->
<g id="edge1" class="edge">
<title>AuthResetPasswordComponent&#45;&gt;AuthResetPasswordModule</title>
<path fill="none" stroke="black" d="M121,-122.11C121,-141.34 121,-169 121,-169 121,-169 256.61,-169 256.61,-169"/>
<polygon fill="black" stroke="black" points="256.61,-172.5 266.61,-169 256.61,-165.5 256.61,-172.5"/>
</g>
<!-- FuseAlertModule -->
<g id="node3" class="node">
<title>FuseAlertModule</title>
<polygon fill="#8dd3c7" stroke="black" points="604.25,-122 601.25,-126 580.25,-126 577.25,-122 489.75,-122 489.75,-86 604.25,-86 604.25,-122"/>
<text text-anchor="middle" x="547" y="-99.8" font-family="Times,serif" font-size="14.00">FuseAlertModule</text>
</g>
<!-- FuseAlertModule&#45;&gt;AuthResetPasswordModule -->
<g id="edge2" class="edge">
<title>FuseAlertModule&#45;&gt;AuthResetPasswordModule</title>
<path fill="none" stroke="black" d="M547,-122.11C547,-141.34 547,-169 547,-169 547,-169 449.22,-169 449.22,-169"/>
<polygon fill="black" stroke="black" points="449.22,-165.5 439.22,-169 449.22,-172.5 449.22,-165.5"/>
</g>
<!-- FuseCardModule -->
<g id="node4" class="node">
<title>FuseCardModule</title>
<polygon fill="#8dd3c7" stroke="black" points="471.7,-122 468.7,-126 447.7,-126 444.7,-122 358.3,-122 358.3,-86 471.7,-86 471.7,-122"/>
<text text-anchor="middle" x="415" y="-99.8" font-family="Times,serif" font-size="14.00">FuseCardModule</text>
</g>
<!-- FuseCardModule&#45;&gt;AuthResetPasswordModule -->
<g id="edge3" class="edge">
<title>FuseCardModule&#45;&gt;AuthResetPasswordModule</title>
<path fill="none" stroke="black" d="M398.77,-122.11C398.77,-122.11 398.77,-140.99 398.77,-140.99"/>
<polygon fill="black" stroke="black" points="395.27,-140.99 398.77,-150.99 402.27,-140.99 395.27,-140.99"/>
</g>
<!-- SharedModule -->
<g id="node5" class="node">
<title>SharedModule</title>
<polygon fill="#8dd3c7" stroke="black" points="340.42,-122 337.42,-126 316.42,-126 313.42,-122 241.58,-122 241.58,-86 340.42,-86 340.42,-122"/>
<text text-anchor="middle" x="291" y="-99.8" font-family="Times,serif" font-size="14.00">SharedModule</text>
</g>
<!-- SharedModule&#45;&gt;AuthResetPasswordModule -->
<g id="edge4" class="edge">
<title>SharedModule&#45;&gt;AuthResetPasswordModule</title>
<path fill="none" stroke="black" d="M303.53,-122.11C303.53,-122.11 303.53,-140.99 303.53,-140.99"/>
<polygon fill="black" stroke="black" points="300.03,-140.99 303.53,-150.99 307.03,-140.99 300.03,-140.99"/>
</g>
</g>
</svg>
