<?xml version="1.0" encoding="UTF-8" standalone="no"?>
<!DOCTYPE svg PUBLIC "-//W3C//DTD SVG 1.1//EN"
 "http://www.w3.org/Graphics/SVG/1.1/DTD/svg11.dtd">
<!-- Generated by graphviz version 2.47.0 (20210316.0004)
 -->
<!-- Title: dependencies Pages: 1 -->
<svg width="504pt" height="284pt"
 viewBox="0.00 0.00 504.00 284.00" xmlns="http://www.w3.org/2000/svg" xmlns:xlink="http://www.w3.org/1999/xlink">
<g id="graph0" class="graph" transform="scale(1 1) rotate(0) translate(4 280)">
<title>dependencies</title>
<polygon fill="white" stroke="transparent" points="-4,4 -4,-280 500,-280 500,4 -4,4"/>
<text text-anchor="start" x="227.01" y="-42.4" font-family="Times-12" font-weight="bold" font-size="14.00">Legend</text>
<polygon fill="#ffffb3" stroke="transparent" points="14,-10 14,-30 34,-30 34,-10 14,-10"/>
<text text-anchor="start" x="37.63" y="-15.4" font-family="Times-12" font-size="14.00"> &#160;Declarations</text>
<polygon fill="#8dd3c7" stroke="transparent" points="127,-10 127,-30 147,-30 147,-10 127,-10"/>
<text text-anchor="start" x="150.73" y="-15.4" font-family="Times-12" font-size="14.00"> &#160;Module</text>
<polygon fill="#80b1d3" stroke="transparent" points="213,-10 213,-30 233,-30 233,-10 213,-10"/>
<text text-anchor="start" x="236.78" y="-15.4" font-family="Times-12" font-size="14.00"> &#160;Bootstrap</text>
<polygon fill="#fdb462" stroke="transparent" points="310,-10 310,-30 330,-30 330,-10 310,-10"/>
<text text-anchor="start" x="333.67" y="-15.4" font-family="Times-12" font-size="14.00"> &#160;Providers</text>
<polygon fill="#fb8072" stroke="transparent" points="406,-10 406,-30 426,-30 426,-10 406,-10"/>
<text text-anchor="start" x="429.73" y="-15.4" font-family="Times-12" font-size="14.00"> &#160;Exports</text>
<g id="clust1" class="cluster">
<title>cluster_TabTransitionPreviewModule</title>
<polygon fill="none" stroke="black" stroke-dasharray="1,5" points="50,-70 50,-268 446,-268 446,-70 50,-70"/>
</g>
<g id="clust5" class="cluster">
<title>cluster_TabTransitionPreviewModule_exports</title>
<polygon fill="none" stroke="black" points="135,-208 135,-260 361,-260 361,-208 135,-208"/>
</g>
<g id="clust4" class="cluster">
<title>cluster_TabTransitionPreviewModule_imports</title>
<polygon fill="none" stroke="black" points="288,-78 288,-130 438,-130 438,-78 288,-78"/>
</g>
<g id="clust2" class="cluster">
<title>cluster_TabTransitionPreviewModule_declarations</title>
<polygon fill="none" stroke="black" points="58,-78 58,-130 280,-130 280,-78 58,-78"/>
</g>
<!-- TabTransitionPreviewComponent -->
<g id="node1" class="node">
<title>TabTransitionPreviewComponent</title>
<polygon fill="#ffffb3" stroke="black" points="272.01,-122 65.99,-122 65.99,-86 272.01,-86 272.01,-122"/>
<text text-anchor="middle" x="169" y="-99.8" font-family="Times,serif" font-size="14.00">TabTransitionPreviewComponent</text>
</g>
<!-- TabTransitionPreviewModule -->
<g id="node2" class="node">
<title>TabTransitionPreviewModule</title>
<polygon fill="#8dd3c7" stroke="black" points="340.23,-187 337.23,-191 316.23,-191 313.23,-187 155.77,-187 155.77,-151 340.23,-151 340.23,-187"/>
<text text-anchor="middle" x="248" y="-164.8" font-family="Times,serif" font-size="14.00">TabTransitionPreviewModule</text>
</g>
<!-- TabTransitionPreviewComponent&#45;&gt;TabTransitionPreviewModule -->
<g id="edge1" class="edge">
<title>TabTransitionPreviewComponent&#45;&gt;TabTransitionPreviewModule</title>
<path fill="none" stroke="black" d="M213.95,-122.11C213.95,-122.11 213.95,-140.99 213.95,-140.99"/>
<polygon fill="black" stroke="black" points="210.45,-140.99 213.95,-150.99 217.45,-140.99 210.45,-140.99"/>
</g>
<!-- TabTransitionPreviewComponent  -->
<g id="node4" class="node">
<title>TabTransitionPreviewComponent </title>
<polygon fill="#fb8072" stroke="black" points="353.01,-252 142.99,-252 142.99,-216 353.01,-216 353.01,-252"/>
<text text-anchor="middle" x="248" y="-229.8" font-family="Times,serif" font-size="14.00">TabTransitionPreviewComponent </text>
</g>
<!-- TabTransitionPreviewModule&#45;&gt;TabTransitionPreviewComponent  -->
<g id="edge3" class="edge">
<title>TabTransitionPreviewModule&#45;&gt;TabTransitionPreviewComponent </title>
<path fill="none" stroke="black" stroke-dasharray="5,2" d="M248,-187.11C248,-187.11 248,-205.99 248,-205.99"/>
<polygon fill="black" stroke="black" points="244.5,-205.99 248,-215.99 251.5,-205.99 244.5,-205.99"/>
</g>
<!-- TabBlueprintModule -->
<g id="node3" class="node">
<title>TabBlueprintModule</title>
<polygon fill="#8dd3c7" stroke="black" points="430.2,-122 427.2,-126 406.2,-126 403.2,-122 295.8,-122 295.8,-86 430.2,-86 430.2,-122"/>
<text text-anchor="middle" x="363" y="-99.8" font-family="Times,serif" font-size="14.00">TabBlueprintModule</text>
</g>
<!-- TabBlueprintModule&#45;&gt;TabTransitionPreviewModule -->
<g id="edge2" class="edge">
<title>TabBlueprintModule&#45;&gt;TabTransitionPreviewModule</title>
<path fill="none" stroke="black" d="M318.13,-122.11C318.13,-122.11 318.13,-140.99 318.13,-140.99"/>
<polygon fill="black" stroke="black" points="314.63,-140.99 318.13,-150.99 321.63,-140.99 314.63,-140.99"/>
</g>
</g>
</svg>
