<?xml version="1.0" encoding="UTF-8" standalone="no"?>
<!DOCTYPE svg PUBLIC "-//W3C//DTD SVG 1.1//EN"
 "http://www.w3.org/Graphics/SVG/1.1/DTD/svg11.dtd">
<!-- Generated by graphviz version 2.47.0 (20210316.0004)
 -->
<!-- Title: dependencies Pages: 1 -->
<svg width="642pt" height="211pt"
 viewBox="0.00 0.00 642.00 211.00" xmlns="http://www.w3.org/2000/svg" xmlns:xlink="http://www.w3.org/1999/xlink">
<g id="graph0" class="graph" transform="scale(1 1) rotate(0) translate(4 207)">
<title>dependencies</title>
<polygon fill="white" stroke="transparent" points="-4,4 -4,-207 638,-207 638,4 -4,4"/>
<text text-anchor="start" x="296.01" y="-42.4" font-family="Times-12" font-weight="bold" font-size="14.00">Legend</text>
<polygon fill="#ffffb3" stroke="transparent" points="83,-10 83,-30 103,-30 103,-10 83,-10"/>
<text text-anchor="start" x="106.63" y="-15.4" font-family="Times-12" font-size="14.00"> &#160;Declarations</text>
<polygon fill="#8dd3c7" stroke="transparent" points="196,-10 196,-30 216,-30 216,-10 196,-10"/>
<text text-anchor="start" x="219.73" y="-15.4" font-family="Times-12" font-size="14.00"> &#160;Module</text>
<polygon fill="#80b1d3" stroke="transparent" points="282,-10 282,-30 302,-30 302,-10 282,-10"/>
<text text-anchor="start" x="305.78" y="-15.4" font-family="Times-12" font-size="14.00"> &#160;Bootstrap</text>
<polygon fill="#fdb462" stroke="transparent" points="379,-10 379,-30 399,-30 399,-10 379,-10"/>
<text text-anchor="start" x="402.67" y="-15.4" font-family="Times-12" font-size="14.00"> &#160;Providers</text>
<polygon fill="#fb8072" stroke="transparent" points="475,-10 475,-30 495,-30 495,-10 475,-10"/>
<text text-anchor="start" x="498.73" y="-15.4" font-family="Times-12" font-size="14.00"> &#160;Exports</text>
<g id="clust1" class="cluster">
<title>cluster_AuthForgotPasswordModule</title>
<polygon fill="none" stroke="black" stroke-dasharray="1,5" points="8,-70 8,-195 626,-195 626,-70 8,-70"/>
</g>
<g id="clust4" class="cluster">
<title>cluster_AuthForgotPasswordModule_imports</title>
<polygon fill="none" stroke="black" points="240,-78 240,-130 618,-130 618,-78 240,-78"/>
</g>
<g id="clust2" class="cluster">
<title>cluster_AuthForgotPasswordModule_declarations</title>
<polygon fill="none" stroke="black" points="16,-78 16,-130 232,-130 232,-78 16,-78"/>
</g>
<!-- AuthForgotPasswordComponent -->
<g id="node1" class="node">
<title>AuthForgotPasswordComponent</title>
<polygon fill="#ffffb3" stroke="black" points="224.32,-122 23.68,-122 23.68,-86 224.32,-86 224.32,-122"/>
<text text-anchor="middle" x="124" y="-99.8" font-family="Times,serif" font-size="14.00">AuthForgotPasswordComponent</text>
</g>
<!-- AuthForgotPasswordModule -->
<g id="node2" class="node">
<title>AuthForgotPasswordModule</title>
<polygon fill="#8dd3c7" stroke="black" points="448.04,-187 445.04,-191 424.04,-191 421.04,-187 269.96,-187 269.96,-151 448.04,-151 448.04,-187"/>
<text text-anchor="middle" x="359" y="-164.8" font-family="Times,serif" font-size="14.00">AuthForgotPasswordModule</text>
</g>
<!-- AuthForgotPasswordComponent&#45;&gt;AuthForgotPasswordModule -->
<g id="edge1" class="edge">
<title>AuthForgotPasswordComponent&#45;&gt;AuthForgotPasswordModule</title>
<path fill="none" stroke="black" d="M124,-122.11C124,-141.34 124,-169 124,-169 124,-169 259.82,-169 259.82,-169"/>
<polygon fill="black" stroke="black" points="259.82,-172.5 269.82,-169 259.82,-165.5 259.82,-172.5"/>
</g>
<!-- FuseAlertModule -->
<g id="node3" class="node">
<title>FuseAlertModule</title>
<polygon fill="#8dd3c7" stroke="black" points="610.25,-122 607.25,-126 586.25,-126 583.25,-122 495.75,-122 495.75,-86 610.25,-86 610.25,-122"/>
<text text-anchor="middle" x="553" y="-99.8" font-family="Times,serif" font-size="14.00">FuseAlertModule</text>
</g>
<!-- FuseAlertModule&#45;&gt;AuthForgotPasswordModule -->
<g id="edge2" class="edge">
<title>FuseAlertModule&#45;&gt;AuthForgotPasswordModule</title>
<path fill="none" stroke="black" d="M553,-122.11C553,-141.34 553,-169 553,-169 553,-169 458.05,-169 458.05,-169"/>
<polygon fill="black" stroke="black" points="458.05,-165.5 448.05,-169 458.05,-172.5 458.05,-165.5"/>
</g>
<!-- FuseCardModule -->
<g id="node4" class="node">
<title>FuseCardModule</title>
<polygon fill="#8dd3c7" stroke="black" points="477.7,-122 474.7,-126 453.7,-126 450.7,-122 364.3,-122 364.3,-86 477.7,-86 477.7,-122"/>
<text text-anchor="middle" x="421" y="-99.8" font-family="Times,serif" font-size="14.00">FuseCardModule</text>
</g>
<!-- FuseCardModule&#45;&gt;AuthForgotPasswordModule -->
<g id="edge3" class="edge">
<title>FuseCardModule&#45;&gt;AuthForgotPasswordModule</title>
<path fill="none" stroke="black" d="M406.33,-122.11C406.33,-122.11 406.33,-140.99 406.33,-140.99"/>
<polygon fill="black" stroke="black" points="402.83,-140.99 406.33,-150.99 409.83,-140.99 402.83,-140.99"/>
</g>
<!-- SharedModule -->
<g id="node5" class="node">
<title>SharedModule</title>
<polygon fill="#8dd3c7" stroke="black" points="346.42,-122 343.42,-126 322.42,-126 319.42,-122 247.58,-122 247.58,-86 346.42,-86 346.42,-122"/>
<text text-anchor="middle" x="297" y="-99.8" font-family="Times,serif" font-size="14.00">SharedModule</text>
</g>
<!-- SharedModule&#45;&gt;AuthForgotPasswordModule -->
<g id="edge4" class="edge">
<title>SharedModule&#45;&gt;AuthForgotPasswordModule</title>
<path fill="none" stroke="black" d="M307.97,-122.11C307.97,-122.11 307.97,-140.99 307.97,-140.99"/>
<polygon fill="black" stroke="black" points="304.47,-140.99 307.97,-150.99 311.47,-140.99 304.47,-140.99"/>
</g>
</g>
</svg>
