<?xml version="1.0" encoding="UTF-8" standalone="no"?>
<!DOCTYPE svg PUBLIC "-//W3C//DTD SVG 1.1//EN"
 "http://www.w3.org/Graphics/SVG/1.1/DTD/svg11.dtd">
<!-- Generated by graphviz version 2.47.0 (20210316.0004)
 -->
<!-- Title: dependencies Pages: 1 -->
<svg width="507pt" height="284pt"
 viewBox="0.00 0.00 507.00 284.00" xmlns="http://www.w3.org/2000/svg" xmlns:xlink="http://www.w3.org/1999/xlink">
<g id="graph0" class="graph" transform="scale(1 1) rotate(0) translate(4 280)">
<title>dependencies</title>
<polygon fill="white" stroke="transparent" points="-4,4 -4,-280 503,-280 503,4 -4,4"/>
<text text-anchor="start" x="228.51" y="-42.4" font-family="Times-12" font-weight="bold" font-size="14.00">Legend</text>
<polygon fill="#ffffb3" stroke="transparent" points="15.5,-10 15.5,-30 35.5,-30 35.5,-10 15.5,-10"/>
<text text-anchor="start" x="39.13" y="-15.4" font-family="Times-12" font-size="14.00"> &#160;Declarations</text>
<polygon fill="#8dd3c7" stroke="transparent" points="128.5,-10 128.5,-30 148.5,-30 148.5,-10 128.5,-10"/>
<text text-anchor="start" x="152.23" y="-15.4" font-family="Times-12" font-size="14.00"> &#160;Module</text>
<polygon fill="#80b1d3" stroke="transparent" points="214.5,-10 214.5,-30 234.5,-30 234.5,-10 214.5,-10"/>
<text text-anchor="start" x="238.28" y="-15.4" font-family="Times-12" font-size="14.00"> &#160;Bootstrap</text>
<polygon fill="#fdb462" stroke="transparent" points="311.5,-10 311.5,-30 331.5,-30 331.5,-10 311.5,-10"/>
<text text-anchor="start" x="335.17" y="-15.4" font-family="Times-12" font-size="14.00"> &#160;Providers</text>
<polygon fill="#fb8072" stroke="transparent" points="407.5,-10 407.5,-30 427.5,-30 427.5,-10 407.5,-10"/>
<text text-anchor="start" x="431.23" y="-15.4" font-family="Times-12" font-size="14.00"> &#160;Exports</text>
<g id="clust1" class="cluster">
<title>cluster_EmptyLayoutModule</title>
<polygon fill="none" stroke="black" stroke-dasharray="1,5" points="8,-70 8,-268 491,-268 491,-70 8,-70"/>
</g>
<g id="clust2" class="cluster">
<title>cluster_EmptyLayoutModule_declarations</title>
<polygon fill="none" stroke="black" points="309,-78 309,-130 483,-130 483,-78 309,-78"/>
</g>
<g id="clust5" class="cluster">
<title>cluster_EmptyLayoutModule_exports</title>
<polygon fill="none" stroke="black" points="128,-208 128,-260 306,-260 306,-208 128,-208"/>
</g>
<g id="clust4" class="cluster">
<title>cluster_EmptyLayoutModule_imports</title>
<polygon fill="none" stroke="black" points="16,-78 16,-130 301,-130 301,-78 16,-78"/>
</g>
<!-- EmptyLayoutComponent -->
<g id="node1" class="node">
<title>EmptyLayoutComponent</title>
<polygon fill="#ffffb3" stroke="black" points="475.32,-122 316.68,-122 316.68,-86 475.32,-86 475.32,-122"/>
<text text-anchor="middle" x="396" y="-99.8" font-family="Times,serif" font-size="14.00">EmptyLayoutComponent</text>
</g>
<!-- EmptyLayoutModule -->
<g id="node2" class="node">
<title>EmptyLayoutModule</title>
<polygon fill="#8dd3c7" stroke="black" points="285.04,-187 282.04,-191 261.04,-191 258.04,-187 148.96,-187 148.96,-151 285.04,-151 285.04,-187"/>
<text text-anchor="middle" x="217" y="-164.8" font-family="Times,serif" font-size="14.00">EmptyLayoutModule</text>
</g>
<!-- EmptyLayoutComponent&#45;&gt;EmptyLayoutModule -->
<g id="edge1" class="edge">
<title>EmptyLayoutComponent&#45;&gt;EmptyLayoutModule</title>
<path fill="none" stroke="black" d="M396,-122.11C396,-141.34 396,-169 396,-169 396,-169 295.18,-169 295.18,-169"/>
<polygon fill="black" stroke="black" points="295.18,-165.5 285.18,-169 295.18,-172.5 295.18,-165.5"/>
</g>
<!-- EmptyLayoutComponent  -->
<g id="node5" class="node">
<title>EmptyLayoutComponent </title>
<polygon fill="#fb8072" stroke="black" points="297.82,-252 136.18,-252 136.18,-216 297.82,-216 297.82,-252"/>
<text text-anchor="middle" x="217" y="-229.8" font-family="Times,serif" font-size="14.00">EmptyLayoutComponent </text>
</g>
<!-- EmptyLayoutModule&#45;&gt;EmptyLayoutComponent  -->
<g id="edge4" class="edge">
<title>EmptyLayoutModule&#45;&gt;EmptyLayoutComponent </title>
<path fill="none" stroke="black" stroke-dasharray="5,2" d="M217,-187.11C217,-187.11 217,-205.99 217,-205.99"/>
<polygon fill="black" stroke="black" points="213.5,-205.99 217,-215.99 220.5,-205.99 213.5,-205.99"/>
</g>
<!-- FuseLoadingBarModule -->
<g id="node3" class="node">
<title>FuseLoadingBarModule</title>
<polygon fill="#8dd3c7" stroke="black" points="293.36,-122 290.36,-126 269.36,-126 266.36,-122 140.64,-122 140.64,-86 293.36,-86 293.36,-122"/>
<text text-anchor="middle" x="217" y="-99.8" font-family="Times,serif" font-size="14.00">FuseLoadingBarModule</text>
</g>
<!-- FuseLoadingBarModule&#45;&gt;EmptyLayoutModule -->
<g id="edge2" class="edge">
<title>FuseLoadingBarModule&#45;&gt;EmptyLayoutModule</title>
<path fill="none" stroke="black" d="M217,-122.11C217,-122.11 217,-140.99 217,-140.99"/>
<polygon fill="black" stroke="black" points="213.5,-140.99 217,-150.99 220.5,-140.99 213.5,-140.99"/>
</g>
<!-- SharedModule -->
<g id="node4" class="node">
<title>SharedModule</title>
<polygon fill="#8dd3c7" stroke="black" points="122.42,-122 119.42,-126 98.42,-126 95.42,-122 23.58,-122 23.58,-86 122.42,-86 122.42,-122"/>
<text text-anchor="middle" x="73" y="-99.8" font-family="Times,serif" font-size="14.00">SharedModule</text>
</g>
<!-- SharedModule&#45;&gt;EmptyLayoutModule -->
<g id="edge3" class="edge">
<title>SharedModule&#45;&gt;EmptyLayoutModule</title>
<path fill="none" stroke="black" d="M73,-122.11C73,-141.34 73,-169 73,-169 73,-169 138.8,-169 138.8,-169"/>
<polygon fill="black" stroke="black" points="138.8,-172.5 148.8,-169 138.8,-165.5 138.8,-172.5"/>
</g>
</g>
</svg>
